<svg width="192" height="48" viewBox="0 0 192 48" fill="none" xmlns="http://www.w3.org/2000/svg">
<path d="M149.017 16.0285C148.243 14.8715 147.152 13.9973 145.74 13.4058C144.328 12.7837 142.656 12.4727 140.721 12.4727H131.016V12.918H131.596C132.26 12.918 132.812 13.1395 133.256 13.5849C133.727 14.0302 133.975 14.5934 134.004 15.2744V36.3077C133.978 36.9604 133.727 37.5236 133.256 37.9973C132.812 38.4709 132.26 38.7089 131.596 38.7089H131.016V39.1543H139.601V38.7089H139.02C138.356 38.7089 137.79 38.4709 137.319 37.9973C136.923 37.5731 136.72 37.0665 136.655 36.5009V13.8064H140.637C142.685 13.8064 144.287 14.3248 145.448 15.3616C146.612 16.3984 147.19 17.8217 147.19 19.6314C147.19 20.0179 147.163 20.4326 147.106 20.8756C147.077 21.321 147.011 21.7051 146.898 22.0326C146.483 23.3074 145.917 24.2853 145.198 24.9663C144.507 25.6473 143.76 26.1233 142.957 26.3896C142.154 26.6276 141.395 26.7595 140.676 26.7902C139.957 26.7902 139.362 26.7454 138.891 26.6559C138.449 26.5663 138.227 26.5216 138.227 26.5216V26.9669C139.637 27.7092 141.048 28.0933 142.458 28.1239C143.869 28.1239 145.155 27.8129 146.315 27.1908C147.476 26.538 148.403 25.619 149.096 24.4338C149.815 23.2179 150.173 21.7663 150.173 20.0768C150.173 18.5051 149.786 17.1572 149.012 16.0308L149.017 16.0285Z" fill="url(#paint0_linear_30190_78754)"/>
<path d="M157.024 13.6272C157.576 13.1536 158.24 12.9156 159.014 12.9156H159.554L159.594 12.4702H150.178V12.9156H150.758C151.532 12.9156 152.182 13.1536 152.71 13.6272C153.262 14.0726 153.553 14.6358 153.582 15.3168V36.3053C153.553 36.958 153.262 37.5212 152.71 37.9948C152.184 38.4684 151.535 38.7064 150.758 38.7064H150.178V39.1518H159.594L159.554 38.7064H159.014C158.24 38.7064 157.576 38.4684 157.024 37.9948C156.498 37.5212 156.221 36.958 156.195 36.3053V15.3168C156.221 14.6358 156.498 14.0726 157.024 13.6272Z" fill="url(#paint1_linear_30190_78754)"/>
<path d="M187.461 12.4935H182.607V12.9389H183.312C183.947 12.9389 184.487 13.1604 184.929 13.6057C185.371 14.0511 185.608 14.5978 185.634 15.2505V33.614L164.064 11.8267H163.65C163.65 11.8267 163.705 12.3757 163.815 13.4714C163.954 14.5672 164.023 15.8726 164.023 17.3854V36.4158C164.023 37.0685 163.801 37.6175 163.359 38.0605C162.917 38.5059 162.377 38.7274 161.742 38.7274H161.037V39.1728H168.877V38.7274H168.172C167.563 38.7274 167.023 38.5059 166.555 38.0605C166.113 37.6152 165.891 37.0685 165.891 36.4158H165.886L165.855 17.8473L187.461 39.7948H187.834C187.834 39.7948 187.793 39.5286 187.71 38.9937C187.655 38.4305 187.6 37.7189 187.545 36.8588C187.49 35.9704 187.461 35.0514 187.461 34.1018V15.2505C187.461 14.5978 187.683 14.0488 188.125 13.6057C188.596 13.1604 189.133 12.9389 189.742 12.9389H190.447V12.4935H187.461Z" fill="url(#paint2_linear_30190_78754)"/>
<path d="M24.0767 25.2937H24.7598C26.0689 25.3126 26.9455 25.7132 26.9336 27.2448L26.8906 34.922C26.0951 35.702 25.185 36.383 24.1626 36.9603C23.1403 37.5094 22.0462 37.9429 20.8805 38.261C19.7435 38.5509 18.5515 38.6946 17.2998 38.6946C14.9135 38.6664 12.8114 38.0584 10.9912 36.8731C9.17336 35.6596 7.75206 33.9677 6.72969 31.7974C5.70731 29.6295 5.19612 27.0988 5.19612 24.2074C5.19612 21.3161 5.70731 18.7853 6.72969 16.6175C7.75206 14.4496 9.17336 12.7577 10.9912 11.5418C12.809 10.3282 14.9111 9.72026 17.2998 9.72026C19.175 9.72026 20.8519 10.0242 22.3281 10.6322C23.8067 11.2401 25.0274 12.1214 25.9924 13.2784C26.9861 14.4071 27.698 15.8092 28.1232 17.487H28.5077L27.655 11.3721C26.8309 10.8231 25.9088 10.3306 24.884 9.89699C23.8903 9.43513 22.7676 9.07224 21.5183 8.81304C20.269 8.55383 18.8621 8.42188 17.2998 8.42188C14.2876 8.42188 11.6314 9.08638 9.33102 10.4178C7.03067 11.7185 5.22479 13.5541 3.91815 15.927C2.64018 18.2952 2 21.0569 2 24.2098C2 27.3627 2.64018 30.1244 3.91815 32.4949C5.22479 34.8372 7.02828 36.6728 9.33102 38.0042C11.6338 39.3049 14.29 39.9694 17.2998 40.0001C19.4592 40.0001 21.3344 39.7244 22.9253 39.1753C24.5448 38.598 25.9088 37.8746 27.0172 37.0074C28.1256 36.1403 29.007 35.2731 29.6591 34.406V27.2496C29.6233 25.8828 30.3112 25.2985 31.7899 25.2985H32.43V24.8649H24.0767V25.2985V25.2937Z" fill="url(#paint3_linear_30190_78754)"/>
<path d="M80.3389 32.9471C79.94 33.8732 79.4718 34.712 78.9319 35.4637C78.3921 36.1872 77.6826 36.7645 76.8012 37.1981C75.9484 37.6034 74.8113 37.806 73.3924 37.806H66.9142V15.9008C66.9142 15.2363 67.1555 14.6873 67.6404 14.2537C68.1516 13.7919 68.7487 13.5586 69.4295 13.5586H69.9407V13.125H61.1191V13.5586H61.6303C62.3398 13.5586 62.937 13.7895 63.4195 14.2537C63.902 14.6873 64.1576 15.2363 64.1863 15.9008V36.3733C64.1576 37.0095 63.9163 37.5586 63.4625 38.0228C63.0086 38.4846 62.4258 38.7156 61.7163 38.7156H61.1191V39.1492H78.4231L80.7664 32.9471H80.3413H80.3389Z" fill="url(#paint4_linear_30190_78754)"/>
<path d="M101.655 14.6873C99.6105 13.6458 97.1812 13.125 94.3673 13.125H80.1328V13.5586H80.644C81.3272 13.5586 81.8933 13.7895 82.3496 14.2514C82.8321 14.6849 83.0877 15.2481 83.1163 15.9433V36.3285C83.0877 36.9648 82.8464 37.5279 82.3925 38.0204C81.9387 38.4823 81.3702 38.7156 80.687 38.7156H80.1328V39.1492H94.3673C97.1812 39.1492 99.6105 38.6284 101.655 37.5869C103.702 36.517 105.279 35.0137 106.387 33.0767C107.496 31.1397 108.05 28.8257 108.05 26.1371C108.05 23.4484 107.496 21.1344 106.387 19.1975C105.279 17.2322 103.702 15.7265 101.655 14.6873ZM102.126 34.7262C100.251 36.8092 97.6637 37.8484 94.3697 37.8484H85.8873V14.4257H94.3697C97.6661 14.4257 100.251 15.4814 102.126 17.5927C104.03 19.6758 104.98 22.5223 104.98 26.1371C104.98 29.7518 104.027 32.6148 102.126 34.7262Z" fill="url(#paint5_linear_30190_78754)"/>
<path d="M128.027 26.3423L114.915 18.3941C114.267 17.9535 113.747 17.5105 113.357 17.0698C113.011 16.6292 112.753 16.1862 112.579 15.7455C112.447 15.2695 112.385 14.8124 112.385 14.3694C112.342 13.0097 113.075 11.8716 114.59 10.9549C116.147 10.0029 118.011 9.52931 120.172 9.52931C122.726 9.52931 124.608 9.93697 125.822 10.7523C127.033 11.5346 127.64 12.6209 127.64 14.0135H128.418L128.354 8.96848C127.964 8.86716 127.511 8.76583 126.99 8.66215C126.514 8.52548 125.929 8.42415 125.239 8.35582C124.589 8.25449 123.81 8.16966 122.903 8.10133C121.993 8.03299 120.932 8 119.721 8C117.731 8 115.913 8.33932 114.27 9.01797C112.667 9.66362 111.391 10.5473 110.438 11.6666C109.485 12.7859 109.012 14.0442 109.012 15.4368C109.012 16.3205 109.227 17.2536 109.66 18.2386C110.092 19.2236 110.914 20.1237 112.127 20.939L125.107 28.7859C125.929 29.3632 126.514 29.9923 126.861 30.671C127.25 31.3166 127.444 32.0471 127.444 32.8624C127.444 34.5261 126.665 35.8692 125.107 36.8872C123.593 37.8722 121.496 38.3976 118.811 38.466C116.907 38.499 115.242 38.2445 113.814 37.7025C112.387 37.1252 111.303 36.2934 110.57 35.2047C109.834 34.1184 109.552 32.8106 109.724 31.2813H108.945V37.9476C109.655 38.334 110.45 38.6875 111.41 38.9726C112.667 39.3119 114.009 39.5664 115.435 39.7361C116.907 39.9057 118.271 39.9906 119.525 39.9906C121.646 39.9906 123.572 39.6348 125.301 38.9208C127.076 38.1738 128.483 37.1723 129.519 35.914C130.559 34.658 131.058 33.2819 131.012 31.7879C130.969 30.8029 130.709 29.818 130.234 28.833C129.758 27.815 129.02 26.9809 128.027 26.3352V26.3423Z" fill="url(#paint6_linear_30190_78754)"/>
<path d="M60.704 20.0224C59.9659 18.3446 58.9292 16.9001 57.5939 15.6842C56.2873 14.4707 54.7513 13.5446 52.9908 12.9084C51.2566 12.2439 49.3958 11.9116 47.4084 11.9116C45.4209 11.9116 43.5577 12.2439 41.8259 12.9084C40.0917 13.5446 38.5581 14.4707 37.2228 15.6842C35.9162 16.8978 34.8938 18.3446 34.1533 20.0224C33.4152 21.6695 33.0449 23.5075 33.0449 25.5317C33.0449 27.5558 33.4152 29.4056 34.1533 31.0833C34.8914 32.7305 35.9138 34.1632 37.2228 35.3767C38.5581 36.5903 40.0917 37.5305 41.8259 38.195C43.5577 38.8312 45.4209 39.1493 47.4084 39.1493C49.3958 39.1493 51.2566 38.8312 52.9908 38.195C54.7513 37.5305 56.2873 36.5903 57.5939 35.3767C58.9292 34.1632 59.9659 32.7305 60.704 31.0833C61.4422 29.4056 61.8124 27.5558 61.8124 25.5317C61.8124 23.5075 61.4422 21.6719 60.704 20.0224ZM57.1663 31.9505C56.1726 33.8003 54.8206 35.2471 53.1174 36.2886C51.4143 37.3302 49.5104 37.8509 47.406 37.8509C45.3015 37.8509 43.4431 37.3302 41.7375 36.2886C40.032 35.2471 38.6823 33.8026 37.6886 31.9505C36.6949 30.1007 36.198 27.9611 36.198 25.5317C36.198 23.1022 36.6949 20.9343 37.6886 19.1128C38.6823 17.263 40.032 15.8162 41.7375 14.7747C43.4431 13.7331 45.3326 13.2124 47.406 13.2124C49.4794 13.2124 51.4119 13.7331 53.1174 14.7747C54.823 15.8162 56.1726 17.2607 57.1663 19.1128C58.16 20.9343 58.6569 23.0739 58.6569 25.5317C58.6569 27.9894 58.16 30.1007 57.1663 31.9505Z" fill="url(#paint7_linear_30190_78754)"/>
<path d="M53.8108 22.5792C51.5726 22.6829 49.4275 23.6561 47.8247 25.388C47.7888 25.421 47.7482 25.4422 47.7148 25.4752C47.722 25.454 47.7339 25.4375 47.7387 25.4163C48.6727 23.1707 50.3711 21.54 52.3274 20.6894C53.6556 20.112 55.096 19.9282 56.5173 20.1003C56.4838 20.0249 56.4599 19.9424 56.4241 19.867C56.1804 19.3509 55.901 18.882 55.6048 18.4366C54.1429 18.5804 52.7574 19.0399 51.575 19.8199C49.664 21.0805 48.2594 23.0623 47.7243 25.4257C47.7196 25.4446 47.7076 25.4587 47.7028 25.4776C47.7028 25.4776 47.7028 25.4776 47.7028 25.4823C47.4066 23.0505 48.1089 20.7506 49.4251 18.9951C50.4284 17.6543 51.7924 16.6363 53.357 16.0826C53.3426 16.0732 53.3307 16.0614 53.3164 16.0496C52.8291 15.7103 52.1244 15.3992 51.3457 15.1424C50.0414 16.0378 48.9856 17.216 48.3 18.5804C47.249 20.6729 46.991 23.1306 47.6909 25.4705C46.2553 23.5406 45.756 21.2148 46.0546 19.0375C46.2863 17.348 47.0101 15.755 48.14 14.4637C47.9107 14.4449 47.6933 14.4331 47.4974 14.4331C47.0244 14.4331 46.4464 14.5132 45.8396 14.6381C45.1397 16.0897 44.7958 17.6567 44.865 19.1954C44.9677 21.5447 45.9352 23.7998 47.667 25.4634C45.4837 24.5492 43.9239 22.8196 43.1308 20.8072C42.493 19.186 42.376 17.388 42.7892 15.6467C42.4405 15.814 42.1156 15.9883 41.8576 16.1698C41.4898 16.4266 41.1506 16.7188 40.8257 17.0322C40.9212 18.6558 41.3823 20.1969 42.192 21.5C43.4198 23.4793 45.3476 24.9356 47.6527 25.4799C45.3022 25.8169 43.0998 25.143 41.4324 23.8281C40.1975 22.8573 39.2635 21.533 38.7427 20.0084C38.4178 20.6941 38.1766 21.4387 37.9927 22.2234C38.8168 23.338 39.8344 24.2523 40.9953 24.872C43.0185 25.9536 45.3953 26.2198 47.6598 25.5011C45.7632 26.9998 43.5082 27.5559 41.4133 27.292C40.0279 27.1176 38.7332 26.5545 37.6152 25.7038C37.6176 26.3966 37.675 27.0517 37.7586 27.6902C39.0007 28.2157 40.3073 28.4749 41.5972 28.4137C43.8809 28.3076 46.0737 27.3062 47.6861 25.5106C46.7545 27.7751 45.0466 29.4151 43.0806 30.2705C41.6594 30.8879 40.1043 31.0788 38.5851 30.8337C38.6448 30.9798 38.6926 31.133 38.7594 31.2743C38.9792 31.7433 39.2276 32.1745 39.4928 32.5845C41.0717 32.4879 42.5671 32.0095 43.8331 31.173C45.7632 29.8982 47.1821 27.8953 47.7052 25.4988C47.7052 25.4988 47.7052 25.4964 47.7052 25.4941C47.9943 27.9212 47.2944 30.2116 45.983 31.9648C44.908 33.3998 43.4127 34.4414 41.7071 34.9645C41.7621 35.0045 41.8075 35.0517 41.8624 35.0917C42.3616 35.4405 43.0854 35.7397 43.8546 35.9966C45.2592 35.087 46.3819 33.8499 47.1033 32.4125C48.1567 30.3176 48.4123 27.8528 47.7076 25.5106C47.7076 25.5059 47.7076 25.5011 47.7076 25.4988C47.7291 25.5247 47.7435 25.553 47.7649 25.5766C49.1528 27.49 49.6425 29.7757 49.3487 31.92C49.105 33.692 48.312 35.3462 47.0866 36.6658C47.2155 36.6729 47.3732 36.7011 47.4902 36.7011C48.0516 36.7011 48.7754 36.5975 49.5326 36.4278C50.2564 34.955 50.6123 33.3598 50.543 31.7927C50.4403 29.4693 49.4872 27.2378 47.7864 25.5789C47.7649 25.553 47.7506 25.5247 47.7291 25.5011C47.7841 25.52 47.8294 25.5506 47.8844 25.5695C49.9865 26.5003 51.5009 28.1827 52.2749 30.1456C52.9222 31.7904 53.0297 33.6166 52.595 35.3816C52.8673 35.2449 53.1205 35.1082 53.3235 34.9645C53.7774 34.6464 54.1859 34.2693 54.5752 33.8664C54.4653 32.2758 54.0091 30.7677 53.216 29.4858C52.0169 27.5512 50.1393 26.1279 47.9011 25.5553C47.8462 25.5365 47.796 25.5035 47.7411 25.487C47.8056 25.4729 47.8701 25.4776 47.9346 25.4634C50.2158 25.1877 52.3513 25.8428 53.9757 27.1224C55.1581 28.0531 56.0515 29.3138 56.5841 30.7583C56.8756 30.0655 57.1168 29.3374 57.2769 28.555C56.4767 27.53 55.5044 26.6935 54.4128 26.1115C52.4421 25.0581 50.137 24.7942 47.9274 25.4446C47.8629 25.4587 47.8008 25.454 47.7363 25.4705C47.7721 25.4375 47.8151 25.4163 47.8509 25.381C49.7261 23.9412 51.9357 23.3969 53.9948 23.6561C55.2823 23.8187 56.4886 24.3229 57.5516 25.0676C57.5349 24.4031 57.4775 23.7715 57.3868 23.1612C56.2258 22.7135 55.01 22.5085 53.8132 22.5651L53.8108 22.5792ZM46.5682 23.8493C46.8835 24.4243 47.249 24.9757 47.6957 25.4776C47.6957 25.4776 47.6957 25.4776 47.6957 25.4799C47.6885 25.4799 47.6861 25.4752 47.6813 25.4729C47.237 24.9662 46.8763 24.4172 46.5682 23.8493ZM47.6909 25.4894C47.6909 25.4894 47.6885 25.4894 47.6861 25.4917C47.6813 25.4917 47.679 25.487 47.6742 25.487C47.679 25.487 47.6837 25.487 47.6885 25.487C47.6885 25.487 47.6885 25.4894 47.6909 25.4917V25.4894ZM47.6861 25.4776C47.6861 25.4776 47.6909 25.4799 47.6957 25.4823C47.6957 25.4823 47.6909 25.4823 47.6885 25.4823C47.6885 25.4823 47.6861 25.4776 47.6837 25.4752L47.6861 25.4776ZM47.6861 25.4964C47.6861 25.4964 47.6909 25.4964 47.6933 25.4988C47.6933 25.4988 47.6933 25.4988 47.6933 25.5011C47.6885 25.5011 47.6837 25.5011 47.679 25.5011C47.6813 25.4988 47.6837 25.4964 47.6885 25.4941L47.6861 25.4964ZM47.6861 25.4964C47.6861 25.4964 47.6885 25.4964 47.6885 25.4941C47.6885 25.4941 47.6885 25.4941 47.6909 25.4964C47.6909 25.4964 47.6885 25.4964 47.6861 25.4941V25.4964ZM47.6909 25.5035C47.6909 25.5035 47.6933 25.5035 47.6957 25.5035C47.6957 25.5035 47.6933 25.5035 47.6909 25.5082C47.6909 25.5082 47.6909 25.5082 47.6909 25.5059V25.5035ZM47.6909 25.5035C47.6909 25.5035 47.6909 25.5035 47.6933 25.5035C47.6933 25.5035 47.6933 25.5035 47.6909 25.5035ZM47.6909 25.4964C47.6909 25.4964 47.6909 25.4964 47.6909 25.4941V25.4988V25.4964ZM47.6909 25.4894C47.6909 25.4894 47.6885 25.4894 47.6861 25.4917C47.6861 25.4917 47.6861 25.4917 47.6861 25.4894C47.6861 25.4894 47.6861 25.4894 47.6909 25.4894C47.6909 25.4894 47.6909 25.4894 47.6933 25.4894H47.6909ZM46.6542 25.0393C46.9886 25.1948 47.3135 25.3645 47.6718 25.4776C47.6766 25.4799 47.6766 25.4847 47.6813 25.487C47.6742 25.487 47.6694 25.487 47.6622 25.487C47.3039 25.3692 46.9838 25.1972 46.6542 25.0369V25.0393ZM46.5586 25.6402C46.9265 25.6025 47.292 25.5789 47.6598 25.4917C47.667 25.4917 47.6718 25.4964 47.6766 25.4988C47.6718 25.5035 47.667 25.5059 47.6622 25.5082C47.2896 25.5907 46.9265 25.6095 46.5586 25.6402ZM46.3843 26.5097C46.8333 26.2175 47.2657 25.89 47.6694 25.5106C47.6742 25.5106 47.6813 25.5106 47.6885 25.5059C47.6885 25.5082 47.6861 25.5106 47.6837 25.5129C47.2753 25.897 46.8357 26.2222 46.3843 26.5073V26.5097ZM46.0427 28.5739C46.7593 27.6855 47.3254 26.6558 47.6861 25.5153C47.6861 25.5153 47.6909 25.5129 47.6933 25.5106C47.6933 25.5106 47.6933 25.5106 47.6957 25.5082C47.335 26.6817 46.7617 27.7138 46.0427 28.5763V28.5739ZM47.6933 25.4988C47.6933 25.4988 47.6933 25.5011 47.6933 25.5035C47.6933 25.5035 47.6933 25.5035 47.6933 25.5011V25.4988ZM47.6933 25.4847C47.4377 24.2805 47.4377 23.0905 47.6479 21.9712C47.4449 23.1165 47.4496 24.3041 47.6933 25.4823C47.6933 25.4823 47.6933 25.4847 47.6933 25.487V25.4847ZM47.6933 25.4941C47.6933 25.4964 47.6933 25.5011 47.6933 25.5035C47.6933 25.5011 47.6933 25.4988 47.6933 25.4941ZM47.7387 29.0593C47.9131 28.0979 47.9011 27.1035 47.7626 26.1115C47.9083 27.1224 47.9154 28.1168 47.7387 29.0593ZM47.7076 25.4682C47.7076 25.4682 47.7028 25.4776 47.7028 25.4823C47.7028 25.4823 47.7005 25.4823 47.7005 25.4847C47.7028 25.4776 47.7076 25.4729 47.71 25.4658L47.7076 25.4682ZM47.7005 25.4941C47.7005 25.4941 47.7028 25.4941 47.7052 25.4964C47.7052 25.4964 47.7052 25.4964 47.7028 25.4941H47.7005ZM47.7028 25.5059C47.7028 25.5059 47.7005 25.5059 47.6981 25.5059C47.6981 25.5059 47.7005 25.5059 47.7028 25.5035V25.5059ZM47.7028 25.5059C47.7028 25.5059 47.7028 25.5082 47.7028 25.5106C47.7028 25.5106 47.7005 25.5106 47.6981 25.5106C47.6981 25.5106 47.6981 25.5106 47.6933 25.5106C47.6933 25.5106 47.6981 25.5106 47.7005 25.5106L47.7028 25.5059ZM47.7028 25.5011C47.7028 25.5011 47.7052 25.5011 47.7076 25.4988C47.71 25.4988 47.7124 25.5011 47.7148 25.5035C47.7124 25.5035 47.7076 25.5035 47.7052 25.5035C47.7052 25.5035 47.7052 25.5035 47.7052 25.5011H47.7028ZM47.7052 25.4941C47.7052 25.4941 47.7028 25.4941 47.7005 25.4917C47.7028 25.4917 47.7076 25.4917 47.71 25.4917C47.71 25.4917 47.7052 25.4941 47.7052 25.4964V25.4941ZM47.6933 25.4941C47.6933 25.4941 47.6933 25.4941 47.6933 25.4964C47.6933 25.4964 47.6933 25.4988 47.6933 25.5011C47.6933 25.5011 47.6933 25.4964 47.6933 25.4941ZM47.6933 25.5059V25.5011C47.6933 25.5011 47.6933 25.5011 47.6933 25.5035C47.6933 25.5035 47.6933 25.5035 47.6909 25.5059H47.6933ZM47.7196 25.5412C47.7196 25.5412 47.7052 25.5224 47.6957 25.5153C47.6957 25.5153 47.6957 25.5153 47.6933 25.5129C47.6933 25.5129 47.7005 25.5176 47.7052 25.5176C47.71 25.5247 47.7148 25.5341 47.7196 25.5412ZM47.7673 25.5341C47.7458 25.5294 47.7291 25.5176 47.7076 25.5129C47.7076 25.5129 47.7052 25.5082 47.7028 25.5059C47.7076 25.5059 47.71 25.5059 47.7148 25.5059C47.7339 25.5129 47.7482 25.5271 47.7649 25.5341H47.7673ZM47.7888 25.487C47.765 25.4941 47.7411 25.4941 47.7172 25.5011C47.7124 25.5011 47.71 25.4988 47.7052 25.4964C47.7076 25.4941 47.7124 25.4917 47.7148 25.4894C47.7411 25.4847 47.7626 25.4894 47.7888 25.487ZM47.71 25.487C47.71 25.487 47.7028 25.487 47.6981 25.487C47.6981 25.487 47.6981 25.487 47.6981 25.4823C47.7124 25.4705 47.7267 25.4658 47.7411 25.454C47.7315 25.4658 47.7196 25.4729 47.7076 25.4847L47.71 25.487Z" fill="url(#paint8_linear_30190_78754)"/>
<defs>
<linearGradient id="paint0_linear_30190_78754" x1="140.597" y1="12.4727" x2="140.597" y2="39.1519" gradientUnits="userSpaceOnUse">
<stop stop-color="#C59359"/>
<stop offset="0.18" stop-color="#F7E09E"/>
<stop offset="0.51" stop-color="#FAE5A3"/>
<stop offset="0.6" stop-color="#F4DC9B"/>
<stop offset="0.73" stop-color="#E5C486"/>
<stop offset="0.9" stop-color="#CC9E63"/>
<stop offset="1" stop-color="#BC844C"/>
</linearGradient>
<linearGradient id="paint1_linear_30190_78754" x1="154.888" y1="8.00011" x2="154.888" y2="8.00011" gradientUnits="userSpaceOnUse">
<stop stop-color="#C59359"/>
<stop offset="0.18" stop-color="#F7E09E"/>
<stop offset="0.51" stop-color="#FAE5A3"/>
<stop offset="0.6" stop-color="#F4DC9B"/>
<stop offset="0.73" stop-color="#E5C486"/>
<stop offset="0.9" stop-color="#CC9E63"/>
<stop offset="1" stop-color="#BC844C"/>
</linearGradient>
<linearGradient id="paint2_linear_30190_78754" x1="175.745" y1="11.8267" x2="175.745" y2="39.7948" gradientUnits="userSpaceOnUse">
<stop stop-color="#C59359"/>
<stop offset="0.18" stop-color="#F7E09E"/>
<stop offset="0.51" stop-color="#FAE5A3"/>
<stop offset="0.6" stop-color="#F4DC9B"/>
<stop offset="0.73" stop-color="#E5C486"/>
<stop offset="0.9" stop-color="#CC9E63"/>
<stop offset="1" stop-color="#BC844C"/>
</linearGradient>
<linearGradient id="paint3_linear_30190_78754" x1="17.2138" y1="8.41952" x2="17.2138" y2="39.9977" gradientUnits="userSpaceOnUse">
<stop stop-color="#C59359"/>
<stop offset="0.18" stop-color="#F7E09E"/>
<stop offset="0.51" stop-color="#FAE5A3"/>
<stop offset="0.6" stop-color="#F4DC9B"/>
<stop offset="0.73" stop-color="#E5C486"/>
<stop offset="0.9" stop-color="#CC9E63"/>
<stop offset="1" stop-color="#BC844C"/>
</linearGradient>
<linearGradient id="paint4_linear_30190_78754" x1="70.9415" y1="13.125" x2="70.9415" y2="39.1549" gradientUnits="userSpaceOnUse">
<stop stop-color="#C59359"/>
<stop offset="0.435" stop-color="#F7E09E"/>
<stop offset="0.9" stop-color="#CC9E63"/>
<stop offset="1" stop-color="#BC844C"/>
</linearGradient>
<linearGradient id="paint5_linear_30190_78754" x1="94.0896" y1="13.125" x2="94.0896" y2="39.1549" gradientUnits="userSpaceOnUse">
<stop stop-color="#C59359"/>
<stop offset="0.435" stop-color="#F7E09E"/>
<stop offset="0.9" stop-color="#CC9E63"/>
<stop offset="1" stop-color="#BC844C"/>
</linearGradient>
<linearGradient id="paint6_linear_30190_78754" x1="119.979" y1="8" x2="119.979" y2="39.9976" gradientUnits="userSpaceOnUse">
<stop stop-color="#C59359"/>
<stop offset="0.435" stop-color="#F7E09E"/>
<stop offset="0.9" stop-color="#CC9E63"/>
<stop offset="1" stop-color="#BC844C"/>
</linearGradient>
<linearGradient id="paint7_linear_30190_78754" x1="47.4268" y1="11.9116" x2="47.4268" y2="39.1553" gradientUnits="userSpaceOnUse">
<stop stop-color="#C59359"/>
<stop offset="0.435" stop-color="#F7E09E"/>
<stop offset="0.9" stop-color="#CC9E63"/>
<stop offset="1" stop-color="#BC844C"/>
</linearGradient>
<linearGradient id="paint8_linear_30190_78754" x1="47.581" y1="14.4355" x2="47.581" y2="36.7129" gradientUnits="userSpaceOnUse">
<stop stop-color="#C59359"/>
<stop offset="0.18" stop-color="#F7E09E"/>
<stop offset="0.51" stop-color="#FAE5A3"/>
<stop offset="0.6" stop-color="#F4DC9B"/>
<stop offset="0.73" stop-color="#E5C486"/>
<stop offset="0.9" stop-color="#CC9E63"/>
<stop offset="1" stop-color="#BC844C"/>
</linearGradient>
</defs>
</svg>
