<svg width="1449" height="274" viewBox="0 0 1449 274" fill="none" xmlns="http://www.w3.org/2000/svg">
<g clip-path="url(#clip0_393_8247)">
<path d="M1160.72 61.26C1149.22 50.2 1133.99 44.11 1117.86 44.11H1014.79L1014.98 44.38H1014.64L1014.83 44.64H1014.5L1014.68 44.91H1014.35L1014.54 45.18H1014.21L1014.39 45.44H1014.06L1014.25 45.71H1013.91L1014.1 45.97H1013.77L1013.95 46.24H1013.63L1013.81 46.5H1013.49L1013.67 46.77H1013.33L1013.52 47.04H1013.19L1013.37 47.3H1013.05L1013.24 47.56H1012.91L1013.09 47.83H1012.77L1012.95 48.1H1012.62L1012.8 48.36H1012.47L1012.65 48.63H1012.33L1012.51 48.89H1012.19L1012.37 49.16H1012.03L1012.22 49.43H1011.89L1012.07 49.69H1011.75L1011.93 49.96H1011.61L1011.79 50.22H1011.47L1011.65 50.49H1011.31L1011.49 50.75H1011.17L1011.35 51.02H1011.04L1011.22 51.29H1010.9L1011.08 51.55H1010.75L1010.93 51.81H1010.6L1010.78 52.08H1010.46L1010.64 52.35H1010.31L1010.49 52.61H1010.18L1010.36 52.88H1010.03L1010.21 53.14H1009.88L1010.06 53.41H1009.75L1009.93 53.68H1009.6L1009.78 53.94H1009.47L1009.65 54.21H1009.32L1009.5 54.47H1009.17L1009.35 54.74H1009.03L1009.21 55H1008.89L1009.07 55.27H1008.75L1008.93 55.54H1008.6L1008.78 55.8H1008.46L1008.64 56.07H1008.32L1008.5 56.33H1008.17L1008.35 56.6H1008.04L1008.22 56.86H1007.9L1008.08 57.13H1007.75L1007.93 57.4H1007.61L1012.34 64.39C1015.8 69.52 1019.92 79.06 1019.92 95.41V234.37C1019.92 243.77 1018.56 250.91 1016.75 256.26L1015.92 257.46H1015.95L1015.77 257.73H1015.8L1015.62 257.99H1015.65L1015.48 258.25L1015.51 258.27L1015.33 258.52H1015.36L1015.19 258.79H1015.22L1015.04 259.05H1015.07L1014.9 259.32H1014.93L1014.75 259.58L1014.78 259.6L1014.61 259.85H1014.64L1014.46 260.11L1014.49 260.13L1014.32 260.38L1014.35 260.4L1014.17 260.65H1014.2L1014.03 260.91H1014.06L1013.88 261.18H1013.91L1013.74 261.44L1013.76 261.46L1013.59 261.71H1013.62L1013.45 261.97L1013.48 261.99L1013.3 262.24H1013.33L1013.15 262.5L1013.18 262.52L1013.01 262.77H1013.04L1012.87 263.04H1012.9L1012.73 263.3H1012.75L1012.58 263.57H1012.61L1012.43 263.83L1012.46 263.85L1012.29 264.1H1012.32L1012.15 264.36L1012.18 264.38L1012 264.63H1012.03L1011.86 264.9H1011.89L1011.72 265.16L1011.75 265.18L1011.57 265.43H1011.6L1011.43 265.69L1011.46 265.71L1011.29 265.96H1011.31L1011.14 266.22L1011.17 266.24L1010.99 266.49L1011.02 266.51L1010.86 266.75L1010.88 266.77L1010.71 267.02L1010.74 267.04L1010.57 267.29H1010.59L1010.42 267.55L1010.45 267.57L1010.28 267.82H1010.31L1010.14 268.08L1010.17 268.1L1009.99 268.35H1010.02L1009.85 268.61L1009.88 268.63L1009.71 268.88H1009.73L1009.56 269.15H1009.59L1009.42 269.41H1009.45L1009.28 269.67L1009.31 269.69L1009.14 269.94L1009.17 269.96L1009 270.21H1009.02L1008.85 270.47L1008.88 270.49L1008.71 270.74L1012.04 272.39H1071.46L1071.28 272.13H1071.63L1071.45 271.86H1071.81L1071.63 271.59H1071.98L1071.8 271.33H1072.15L1071.97 271.06H1072.33L1072.15 270.8H1072.5L1072.32 270.53H1072.68L1072.49 270.26H1072.86L1072.68 270H1073.03L1072.85 269.73H1073.21L1073.03 269.47H1073.38L1073.2 269.2H1073.55L1073.37 268.94H1073.74L1073.56 268.67H1073.9L1073.72 268.4H1074.08L1073.9 268.14H1074.25L1074.07 267.88H1074.42L1074.24 267.61H1074.6L1074.42 267.34H1074.77L1074.59 267.08H1074.95L1074.77 266.81H1075.13L1074.94 266.54H1075.3L1075.12 266.28H1075.49L1075.3 266.01H1075.66L1075.48 265.75H1075.83L1075.65 265.48H1075.99L1075.81 265.22H1076.18L1075.99 264.95H1076.35L1076.17 264.69H1076.53L1076.35 264.42H1076.71L1076.53 264.15H1076.88L1076.7 263.89H1077.07L1076.89 263.62H1077.24L1077.06 263.36H1077.42L1077.23 263.09H1077.6L1077.42 262.83H1077.78L1077.59 262.56H1077.95L1077.76 262.29H1078.13L1077.94 262.03H1078.3L1078.11 261.77H1078.47L1078.29 261.5H1078.66L1078.48 261.23H1078.83L1078.65 260.97H1079.01L1078.82 260.7H1079.18L1079 260.44H1079.37L1079.18 260.17H1079.54L1079.36 259.9H1079.72L1079.54 259.64H1079.9L1079.71 259.37H1080.08L1079.89 259.11H1080.26L1075.39 252.1C1068.97 242.85 1067.63 230.47 1067.63 221.72V174.58H1108.13C1123.86 174.58 1138.7 168.49 1149.93 157.42C1151.71 155.67 1153.36 153.83 1154.88 151.91C1155.12 151.62 1155.36 151.32 1155.6 151.02C1155.71 150.88 1155.82 150.75 1155.93 150.61C1155.96 150.58 1155.99 150.54 1156.02 150.51C1156.27 150.21 1156.52 149.9 1156.77 149.59C1157.13 149.16 1157.49 148.72 1157.84 148.28C1157.85 148.28 1157.86 148.25 1157.87 148.24C1157.94 148.15 1158.02 148.05 1158.1 147.96C1158.26 147.76 1158.42 147.57 1158.58 147.37C1158.64 147.3 1158.7 147.22 1158.77 147.14C1158.78 147.12 1158.8 147.1 1158.82 147.07C1159.19 146.64 1159.55 146.2 1159.91 145.75C1160.01 145.63 1160.11 145.5 1160.22 145.37C1160.39 145.15 1160.57 144.94 1160.74 144.73C1160.77 144.7 1160.79 144.67 1160.82 144.63C1161.15 144.24 1161.48 143.85 1161.8 143.45C1162.14 143.05 1162.46 142.65 1162.79 142.25C1162.92 142.09 1163.06 141.92 1163.2 141.75C1163.41 141.49 1163.63 141.24 1163.84 140.97C1163.89 140.92 1163.94 140.86 1163.99 140.8C1164.09 140.68 1164.19 140.56 1164.29 140.43C1164.5 140.18 1164.71 139.93 1164.92 139.68C1165.05 139.52 1165.18 139.36 1165.31 139.2C1173.95 128.84 1178.64 116.1 1178.64 102.7C1178.64 87.08 1172.28 72.37 1160.72 61.26ZM1124.4 131.92C1117.15 138.14 1107.57 141.92 1097.09 141.92H1067.62V76.74H1087.88C1109.92 76.74 1127.86 94.34 1127.86 115.97C1127.86 121.64 1126.62 127.04 1124.4 131.91V131.92Z" fill="url(#paint0_linear_393_8247)"/>
<path d="M1447.87 259.37H1447.14L1447.5 259.63H1446.77L1447.14 259.9H1446.42L1446.78 260.16H1446.06L1446.42 260.43H1445.7L1446.05 260.69H1445.33L1445.7 260.96H1444.98L1445.34 261.22H1444.61L1444.97 261.49H1444.25L1444.61 261.76H1443.9L1444.25 262.02H1443.55L1443.9 262.29H1443.16L1443.52 262.55H1442.82L1443.17 262.82H1442.46L1442.82 263.08H1442.09L1442.45 263.35H1441.75L1442.1 263.62H1441.37L1441.73 263.88H1441L1441.36 264.15H1440.66L1441.01 264.41H1440.3L1440.66 264.68H1439.94L1440.3 264.94H1439.59L1439.95 265.21H1439.21L1439.57 265.48H1438.87L1439.23 265.74H1438.5L1438.86 266.01H1438.15L1438.51 266.27H1437.8L1438.16 266.54H1437.44L1437.8 266.81H1437.08L1437.44 267.07H1436.74L1437.09 267.33H1436.38L1436.74 267.6H1436.03L1436.38 267.87H1435.66L1436.01 268.13H1435.3L1435.66 268.4H1434.95L1435.31 268.66H1434.6L1434.95 268.93H1434.25L1434.6 269.19H1433.88L1434.24 269.46H1433.53L1433.88 269.73H1433.18L1433.53 269.99H1432.81L1433.17 270.26H1432.48L1432.83 270.52H1432.11L1432.46 270.79H1431.76L1432.12 271.06H1431.4L1431.76 271.32H1431.04L1431.39 271.58H1430.7L1431.05 271.85H1430.34L1430.69 272.12H1429.98L1430.33 272.38H1417.08H1417.09C1412.89 272.39 1406.93 270.61 1400.74 267.52C1394.16 264.24 1387.94 259.78 1383.21 254.97C1377.51 249.35 1373.9 245.58 1366.74 238.07L1362.25 233.36C1348.02 218.35 1334.11 202.6 1320.66 187.36L1320.55 187.24C1308.12 173.16 1295.28 158.62 1282.22 144.7L1276.05 138.11V222.35C1276.05 238.94 1280.88 248.05 1283.76 252.01L1288.91 259.09H1288.43L1288.63 259.36H1288.15L1288.35 259.62H1287.87L1288.06 259.89H1287.59L1287.78 260.15H1287.31L1287.5 260.42H1287.02L1287.22 260.68H1286.74L1286.94 260.95H1286.46L1286.65 261.22H1286.19L1286.38 261.48H1285.9L1286.09 261.75H1285.62L1285.81 262.01H1285.34L1285.53 262.28H1285.05L1285.24 262.55H1284.78L1284.97 262.81H1284.5L1284.69 263.08H1284.21L1284.41 263.34H1283.94L1284.13 263.61H1283.65L1283.84 263.87H1283.37L1283.56 264.14H1283.09L1283.28 264.41H1282.81L1283 264.67H1282.53L1282.72 264.93H1282.26L1282.45 265.2H1281.98L1282.17 265.47H1281.7L1281.89 265.73H1281.42L1281.61 266H1281.14L1281.33 266.26H1280.87L1281.06 266.53H1280.58L1280.78 266.8H1280.31L1280.5 267.06H1280.03L1280.22 267.33H1279.76L1279.95 267.59H1279.48L1279.67 267.86H1279.2L1279.39 268.12H1278.92L1279.11 268.39H1278.64L1278.83 268.66H1278.37L1278.56 268.92H1278.09L1278.28 269.18H1277.81L1278 269.45H1277.53L1277.72 269.72H1277.26L1277.45 269.98H1276.97L1277.16 270.25H1276.71L1276.9 270.51H1276.43L1276.62 270.78H1276.15L1276.35 271.05H1275.88L1276.06 271.31H1275.6L1275.78 271.58H1275.32L1275.51 271.84H1275.04L1275.23 272.11H1274.76L1274.95 272.37H1228.04L1234.85 262.2C1236.62 260.55 1239.08 257.8 1240.64 253.78C1241.64 251.21 1241.89 249.11 1242.32 245.26C1242.63 242.55 1242.89 238.88 1242.79 234.49V103.32C1242.79 73.95 1239.44 67.65 1236.52 65.45L1235.8 64.91L1226.78 60.64L1238.59 44.11H1252.16C1256.47 44.11 1262.58 45.88 1268.92 48.97C1275.66 52.26 1282.05 56.72 1286.9 61.53C1293.92 68.27 1297.82 72.36 1308.07 83.15C1322.89 98.23 1337.27 114.02 1351.18 129.29C1363.86 143.23 1376.98 157.64 1390.42 171.47L1393.78 174.96V93.82C1393.78 77.45 1389.07 68.41 1386.26 64.49L1381.19 57.39H1381.72L1381.53 57.13H1382.05L1381.86 56.86H1382.38L1382.18 56.59H1382.71L1382.52 56.33H1383.04L1382.85 56.07H1383.37L1383.18 55.8H1383.71L1383.52 55.53H1384.02L1383.83 55.27H1384.37L1384.18 55H1384.69L1384.5 54.74H1385.02L1384.83 54.47H1385.36L1385.17 54.2H1385.68L1385.49 53.94H1386.02L1385.83 53.67H1386.35L1386.15 53.41H1386.67L1386.48 53.14H1387.01L1386.82 52.88H1387.34L1387.15 52.61H1387.68L1387.48 52.34H1388L1387.81 52.08H1388.34L1388.15 51.81H1388.67L1388.47 51.55H1388.99L1388.8 51.28H1389.32L1389.13 51.02H1389.67L1389.48 50.75H1389.99L1389.79 50.48H1390.33L1390.14 50.22H1390.66L1390.47 49.95H1390.98L1390.79 49.69H1391.32L1391.13 49.42H1391.65L1391.46 49.16H1391.99L1391.8 48.89H1392.34L1392.15 48.63H1392.66L1392.47 48.36H1393.01L1392.82 48.09H1393.33L1393.14 47.83H1393.67L1393.47 47.56H1394.01L1393.82 47.3H1394.34L1394.15 47.03H1394.67L1394.48 46.77H1395.02L1394.82 46.5H1395.35L1395.16 46.23H1395.68L1395.49 45.97H1396.02L1395.82 45.7H1396.36L1396.17 45.44H1396.69L1396.5 45.17H1397.02L1396.83 44.91H1397.37L1397.17 44.64H1397.7L1397.51 44.38H1398.05L1397.85 44.11H1443.34L1438.6 50.71L1438.18 51.3L1437.8 51.86C1431.49 61.23 1430.55 74.84 1430.55 82.12V213.17C1430.55 242.34 1434.16 248.73 1437.3 251.05L1448.24 259.1H1447.51L1447.87 259.37Z" fill="url(#paint1_linear_393_8247)"/>
<path d="M641.42 214.83L641.47 214.59L641.37 214.56L641.42 214.32L641.33 214.29L641.38 214.06L641.29 214.03L641.34 213.8L641.24 213.77L641.29 213.53L641.21 213.51L641.26 213.26L641.16 213.23L641.21 213L641.12 212.97L641.17 212.73L641.08 212.71L641.13 212.47L641.04 212.44L641.09 212.2L641 212.17L641.05 211.94L640.95 211.91L641 211.67L640.92 211.64L640.97 211.4L640.88 211.37L640.92 211.14L640.83 211.11L640.88 210.87L640.8 210.84L640.84 210.61L640.75 210.58L640.8 210.34L640.71 210.31L640.76 210.07L640.66 210.04L640.71 209.81L640.63 209.78L640.68 209.55L640.58 209.51L640.63 209.28L640.53 209.25L640.58 209.01L640.5 208.99L640.55 208.75L640.47 208.72L640.52 208.48L640.41 208.45L640.46 208.22L640.37 208.19L640.42 207.95L640.34 207.92L640.39 207.69L640.29 207.65L640.34 207.42L640.25 207.39L640.3 207.15L640.21 207.12L640.26 206.89L640.17 206.86L640.22 206.62L640.12 206.59L640.17 206.36L640.07 206.33L640.12 206.09L640.04 206.07L640.09 205.83L640 205.8L640.05 205.56L639.96 205.53L640.01 205.3L639.91 205.27L639.96 205.03L639.87 205L639.92 204.76L639.83 204.73L639.88 204.5L639.79 204.47L639.84 204.23L639.75 204.2L639.8 203.97L639.7 203.93L639.75 203.7L639.65 203.67L639.7 203.44L639.62 203.41L639.67 203.17L639.58 203.14L639.63 202.9L639.54 202.87L639.59 202.64L639.49 202.61L639.54 202.37L639.45 202.34L639.5 202.11L639.41 202.08L639.46 201.84L639.36 201.81L639.41 201.58L631.44 199.02L630.46 201.25C625.86 211.72 618.43 220.82 608.99 227.55C599.34 234.44 587.96 238.54 576.08 239.43H529.38L529.96 94.77C529.96 76.34 535.15 67.53 537.39 64.6L542.88 57.39H542.6L542.8 57.12H542.5L542.71 56.85H542.41L542.61 56.59H542.32L542.52 56.33H542.23L542.43 56.06H542.14L542.34 55.79H542.05L542.25 55.53H541.95L542.16 55.26H541.86L542.07 55H541.77L541.98 54.73H541.68L541.88 54.47H541.59L541.79 54.2H541.5L541.71 53.93H541.41L541.61 53.67H541.31L541.52 53.4H541.23L541.43 53.14H541.14L541.34 52.87H541.04L541.25 52.6H540.95L541.15 52.34H540.86L541.07 52.07H540.77L540.97 51.81H540.67L540.88 51.54H540.58L540.79 51.28H540.5L540.7 51.01H540.4L540.6 50.74H540.31L540.51 50.48H540.22L540.42 50.22H540.12L540.33 49.95H540.03L540.24 49.68H539.94L540.15 49.42H539.85L540.05 49.15H539.76L539.96 48.89H539.66L539.87 48.62H539.57L539.78 48.36H539.48L539.68 48.09H539.39L539.59 47.82H539.29L539.5 47.56H539.2L539.41 47.29H539.11L539.32 47.03H539.02L539.22 46.76H538.93L539.14 46.49H538.83L539.04 46.23H538.74L538.94 45.97H538.64L538.85 45.7H538.56L538.76 45.43H538.46L538.67 45.17H538.36L538.57 44.9H538.28L538.48 44.64H538.19L538.39 44.37H538.09L538.3 44.11H472.2L472.38 44.37H472.32L472.51 44.64H472.45L472.63 44.9H472.57L472.76 45.17H472.7L472.88 45.43H472.83L473.01 45.7H472.95L473.13 45.97H473.07L473.26 46.23H473.2L473.38 46.49H473.33L473.51 46.76H473.45L473.63 47.03H473.58L473.76 47.29H473.7L473.89 47.56H473.82L474.01 47.82H473.95L474.13 48.09H474.08L474.26 48.36H474.2L474.38 48.62H474.32L474.51 48.89H474.45L474.64 49.15H474.58L474.76 49.42H474.7L474.88 49.68H474.83L475.01 49.95H474.95L475.13 50.22H475.08L475.26 50.48H475.2L475.38 50.74H475.32L475.51 51.01H475.46L475.64 51.28H475.57L475.75 51.54H475.7L475.88 51.81H475.82L476 52.07H475.95L476.13 52.34H476.06L476.25 52.6H476.19L476.38 52.87H476.32L476.5 53.14H476.45L476.63 53.4H476.56L476.75 53.67H476.69L476.87 53.93H476.82L477 54.2H476.93L477.12 54.47H477.06L477.24 54.73H477.18L477.36 55H477.31L477.49 55.26H477.43L477.61 55.53H477.55L477.73 55.79H477.68L477.86 56.06H477.8L477.98 56.33H477.92L478.1 56.59H478.05L478.23 56.85H478.17L478.35 57.12H478.3L478.48 57.39H478.41L482.49 63.4C483.78 68.3 484.62 74.43 484.49 82.05V221.16C484.76 237.49 480.59 247 477.05 252.1L474.65 255.55V259.11H474.77V259.37H474.9V259.63H475.02V259.9H475.15V260.17H475.27V260.44H475.4V260.71H475.52V260.97H475.65V261.24H475.77V261.5H475.89V261.77H476.02V262.04H476.14V262.3H476.27V262.57H476.39V262.83H476.51V263.1H476.64V263.37H476.76V263.63H476.88V263.89H477.01V264.16H477.13V264.43H477.26V264.69H477.38V264.96H477.5V265.22H477.63V265.49H477.75V265.75H477.87V266.02H477.99V266.29H478.12V266.55H478.24V266.82H478.36V267.08H478.49V267.35H478.61V267.61H478.73V267.88H478.85V268.15H478.98V268.41H479.1V268.68H479.22V268.94H479.35V269.21H479.47V269.48H479.59V269.74H479.71V270H479.83V270.27H479.96V270.54H480.08V270.8H480.2V271.07H480.32V271.33H480.45V271.6H480.57V271.86H480.69V272.13H480.81V272.4H629.69L641.5 214.87L641.42 214.84V214.83Z" fill="url(#paint2_linear_393_8247)"/>
<path d="M1023.7 190.87C1023.54 182.61 1021.53 176.04 1019.91 171.92C1017.11 165.01 1012.77 158.32 1006.85 151.77C990.37 133.25 964.48 117.83 939.45 102.93C921.4 92.18 904.34 82.02 893.5 72.08C888.48 67.41 884.99 62.2 883.39 56.99C882.84 55.2 882.51 53.4 882.41 51.62C884.76 48.37 888.1 45.55 892.28 43.32C899.3 39.58 908.57 37.61 919.11 37.61C936.45 37.61 951.21 42.42 962.98 51.9C972.54 59.6 980.17 70.36 985.65 83.87L986.48 85.92L994.01 84.38V84.14L994.16 84.11V83.88L994.29 83.85V83.61L994.43 83.58V83.34L994.57 83.32V83.08L994.69 83.05V82.81L994.83 82.78V82.55L994.97 82.52V82.28L995.1 82.25V82.02L995.24 81.99V81.75L995.37 81.72V81.49L995.5 81.46V81.22L995.65 81.19V80.95L995.78 80.92V80.69L995.91 80.66V80.42L996.05 80.4V80.15L996.17 80.13V79.9L996.33 79.86V79.63L996.46 79.6V79.36L996.6 79.33V79.09L996.73 79.07V78.83L996.87 78.8V78.56L997 78.54V78.3L997.13 78.27V78.03L997.28 78V77.77L997.42 77.74V77.5L997.55 77.47V77.23L997.69 77.21V76.97L997.83 76.94V76.7L997.96 76.67V76.44L998.1 76.41V76.17L998.23 76.15V75.9L998.37 75.88V75.64L998.5 75.61V75.38L998.66 75.35V75.1L998.78 75.08V74.84L998.92 74.82V74.58L999.06 74.55V74.31L999.2 74.29V74.05L999.34 74.02V73.78L999.47 73.75V73.52L999.6 73.49V73.25L999.75 73.22V72.98L999.89 72.96V72.72L1000.03 72.69V72.45L1000.16 72.42V72.19L1000.3 72.16V71.92L1000.44 71.9V71.65L1000.57 71.63V71.39L1000.71 71.36V71.13L1000.86 71.1V0L994.35 3.37C989.92 5.66 985.25 6.33 979.15 6.67C978.23 6.72 977.18 6.75 976.03 6.75C968.66 6.75 958.17 5.7 948.01 4.69C938.56 3.75 929.62 2.87 923.67 2.87C903.82 2.87 886.85 6.19 874.59 12.47L874.53 12.5C856.75 22 845.01 36.08 841.16 52.4C840.99 53.08 840.83 53.76 840.69 54.44C840.63 54.72 840.57 54.99 840.52 55.27C840.44 55.6 840.37 55.92 840.3 56.25C840.28 56.34 840.26 56.43 840.25 56.52C840.24 56.52 840.24 56.55 840.23 56.57C840.09 57.16 839.96 57.76 839.84 58.35C839.83 58.41 839.81 58.47 839.8 58.53C839.72 58.88 839.65 59.22 839.58 59.57C839.54 59.75 839.49 59.93 839.46 60.11C839.42 60.28 839.38 60.45 839.34 60.63C839.32 60.75 839.29 60.87 839.26 60.99C839.1 61.66 838.96 62.34 838.82 63.02C838.79 63.18 838.75 63.34 838.72 63.49C838.65 63.8 838.58 64.11 838.52 64.42C838.4 64.94 838.29 65.45 838.19 65.97C837.99 66.86 837.81 67.74 837.66 68.64C834.93 84.67 839.84 100.78 851.52 114.04C864.41 128.4 883.5 139.8 903.73 151.88L903.88 151.97C907.27 153.99 910.77 156.08 914.17 158.14C940.79 174.63 965.06 191.07 969.63 210.8C970.46 214.52 970.57 218.23 969.99 221.78C961.59 231.78 946.31 237.27 926.83 237.27C916.62 237.27 907.44 235.29 899.55 231.38C892.79 228.03 886.71 223.12 881.49 216.8C871.61 204.85 866.2 189.72 862.24 178.68L858.31 167.68L832.92 230.15L832.96 230.18L832.86 230.42L832.9 230.45L832.81 230.68L832.85 230.72L832.76 230.95L832.8 230.98L832.7 231.21L832.74 231.25L832.65 231.48L832.69 231.51L832.6 231.75L832.63 231.78L832.54 232.01L832.58 232.04L832.48 232.27L832.52 232.31L832.43 232.54L832.47 232.58L832.38 232.81L832.42 232.84L832.32 233.07L832.36 233.1L832.27 233.34L832.31 233.37L832.22 233.6L832.25 233.64L832.16 233.87L832.2 233.9L832.11 234.13L832.15 234.17L832.06 234.4L832.09 234.43L832 234.67L832.04 234.7L831.94 234.93L831.98 234.96L831.89 235.2L831.93 235.23L831.84 235.46L831.88 235.5L831.78 235.73L831.82 235.76L831.73 236L831.77 236.03L831.68 236.26L831.71 236.29L831.62 236.52L831.66 236.56L831.57 236.79L831.61 236.83L831.51 237.06L831.55 237.09L831.46 237.32L831.5 237.35L831.41 237.59L831.44 237.62L831.35 237.85L831.39 237.89L831.3 238.12L831.34 238.15L831.25 238.38L831.29 238.42L831.19 238.65L831.23 238.69L831.14 238.92L831.18 238.95L831.08 239.18L831.12 239.22L831.03 239.45L831.07 239.48L830.97 239.71L831.02 239.75L830.93 239.98L830.96 240.01L830.87 240.25L830.91 240.28L830.82 240.51L830.86 240.54L830.76 240.77L830.81 240.81L830.71 241.04L830.75 241.08L830.66 241.31L830.7 241.34L830.6 241.57L830.64 241.61L830.55 241.84L830.59 241.87L830.49 242.1L830.54 242.14L830.44 242.37L830.49 242.4L830.39 242.63L830.43 242.67L830.34 242.9L830.38 242.93L830.29 243.17L830.32 243.2L830.23 243.43L832.68 245.52C849.92 260.18 887.78 271.75 919.95 272.36V272.4H922.6C947.23 272.4 968.76 267.29 984.85 257.63C994.83 251.64 1002.6 244.05 1007.86 235.27C1008.47 234.28 1009.04 233.26 1009.58 232.23C1009.7 232.01 1009.82 231.78 1009.94 231.56C1010.04 231.37 1010.14 231.17 1010.24 230.98C1010.31 230.86 1010.38 230.73 1010.45 230.61C1010.52 230.46 1010.6 230.32 1010.67 230.17C1010.78 229.98 1010.88 229.8 1010.98 229.61C1011.05 229.48 1011.12 229.34 1011.19 229.21C1011.42 228.81 1011.64 228.4 1011.86 227.99C1011.96 227.81 1012.06 227.63 1012.16 227.45C1012.21 227.35 1012.26 227.25 1012.32 227.14C1012.34 227.1 1012.37 227.05 1012.39 227C1012.56 226.71 1012.72 226.41 1012.89 226.11C1012.91 226.06 1012.94 226.01 1012.97 225.96C1013.02 225.86 1013.08 225.76 1013.13 225.66C1013.21 225.51 1013.29 225.36 1013.37 225.22C1013.43 225.1 1013.49 224.99 1013.55 224.88C1013.62 224.75 1013.69 224.63 1013.76 224.5C1013.99 224.09 1014.21 223.68 1014.43 223.26C1014.48 223.18 1014.52 223.11 1014.56 223.03C1014.61 222.93 1014.66 222.84 1014.72 222.74C1014.76 222.66 1014.81 222.57 1014.86 222.48C1014.95 222.32 1015.04 222.16 1015.13 221.99C1015.17 221.91 1015.22 221.82 1015.27 221.74L1015.45 221.41C1015.55 221.22 1015.65 221.03 1015.76 220.84C1015.89 220.6 1016.03 220.35 1016.16 220.1C1016.22 220 1016.27 219.9 1016.33 219.8C1017.73 217.26 1018.93 214.63 1019.91 211.91C1021.61 207.58 1023.88 200.21 1023.7 190.87Z" fill="url(#paint3_linear_393_8247)"/>
<path d="M1240.25 255.09L1243.03 259.1L1232.08 270.45L1230.98 271.59L1230.72 271.86L1230.21 272.39H1166.34L1171.09 265.37C1174.55 260.27 1178.67 250.75 1178.67 234.36V95.4C1178.67 79.05 1174.55 69.51 1171.09 64.39L1166.36 57.39H1166.77L1166.59 57.13H1166.99L1166.81 56.86H1167.22L1167.04 56.59H1167.43L1167.25 56.33H1167.65L1167.47 56.07H1167.88L1167.69 55.8H1168.09L1167.91 55.53H1168.32L1168.14 55.27H1168.54L1168.36 55H1168.76L1168.58 54.74H1168.99L1168.81 54.47H1169.21L1169.03 54.21H1169.44L1169.26 53.94H1169.65L1169.47 53.67H1169.88L1169.7 53.41H1170.1L1169.92 53.14H1170.32L1170.14 52.88H1170.55L1170.37 52.61H1170.77L1170.59 52.34H1170.99L1170.81 52.08H1171.21L1171.03 51.81H1171.44L1171.26 51.55H1171.67L1171.49 51.28H1171.89L1171.71 51.02H1172.12L1171.94 50.75H1172.33L1172.15 50.48H1172.56L1172.38 50.22H1172.78L1172.6 49.96H1173.01L1172.83 49.69H1173.23L1173.05 49.42H1173.46L1173.28 49.16H1173.69L1173.5 48.89H1173.9L1173.72 48.63H1174.13L1173.95 48.36H1174.36L1174.18 48.09H1174.59L1174.4 47.83H1174.81L1174.63 47.56H1175.04L1174.85 47.3H1175.26L1175.08 47.03H1175.48L1175.3 46.77H1175.71L1175.53 46.5H1175.94L1175.75 46.23H1176.16L1175.98 45.97H1176.39L1176.21 45.71H1176.62L1176.43 45.44H1176.84L1176.66 45.17H1177.06L1176.88 44.91H1177.3L1177.11 44.64H1177.52L1177.34 44.38H1177.75L1177.57 44.11H1243.04C1241.11 46.57 1239 49.62 1237.02 53.28C1235.17 56.68 1233.82 59.88 1232.83 62.67C1232.06 65.5 1231.33 68.8 1230.9 72.52C1230.53 75.73 1230.4 78.79 1230.4 81.5V221.72C1230.4 230.47 1231.75 242.85 1238.17 252.1L1240.25 255.09Z" fill="url(#paint4_linear_393_8247)"/>
<path d="M263.33 140.69C262.9 141.05 262.44 141.46 261.95 141.93C261.79 142.07 261.64 142.23 261.48 142.38C261.32 142.54 261.15 142.7 260.99 142.87C260.26 143.61 259.5 144.45 258.75 145.4C258.51 145.69 258.28 145.98 258.06 146.29C257.99 146.38 257.92 146.47 257.85 146.57C257.56 146.96 257.28 147.36 257 147.79C256.74 148.18 256.48 148.58 256.23 149C256.2 149.04 256.18 149.09 256.16 149.13C253.9 152.89 252.77 156.46 252.17 159.14C252.04 159.73 251.94 160.27 251.85 160.77C251.33 162.72 250.87 164.8 250.49 167C249.25 174.08 249.06 180.43 249.06 183.58V230.35L248.12 231.57C227.55 258.1 186.84 270.84 153.36 272.25L153.48 272.38H147.16C138 272.39 124 271.27 114.89 268.84C97.18 264.62 80.5 256.33 66.13 244.8C65.98 244.69 65.84 244.57 65.7 244.46C65.6 244.38 65.51 244.3 65.41 244.22C65.33 244.16 65.24 244.09 65.16 244.02C65.05 243.94 64.95 243.85 64.85 243.77C64.62 243.59 64.38 243.4 64.15 243.21C64.05 243.13 63.94 243.04 63.84 242.96C63.7 242.85 63.57 242.74 63.43 242.63C63.34 242.56 63.24 242.48 63.15 242.4C62.95 242.25 62.75 242.09 62.56 241.93C62.43 241.83 62.3 241.72 62.17 241.62C62.09 241.55 62 241.48 61.91 241.41C61.74 241.27 61.57 241.14 61.4 241C61.31 240.93 61.23 240.86 61.14 240.79C61.08 240.74 61.02 240.69 60.95 240.64C60.58 240.35 60.22 240.05 59.85 239.76C59.74 239.67 59.64 239.59 59.53 239.5C59.39 239.39 59.24 239.27 59.1 239.16C59 239.09 58.91 239.01 58.82 238.93C58.73 238.86 58.64 238.79 58.55 238.72C58.4 238.61 58.26 238.49 58.11 238.37C58.02 238.3 57.94 238.23 57.85 238.16C57.74 238.08 57.64 238 57.54 237.92C57.2 237.65 56.86 237.38 56.53 237.11L56.11 236.78C56.03 236.71 55.96 236.65 55.88 236.59C55.76 236.5 55.65 236.41 55.53 236.32C55.41 236.23 55.29 236.13 55.17 236.04C55.04 235.93 54.91 235.83 54.78 235.72C54.68 235.65 54.59 235.57 54.49 235.5C54.39 235.41 54.28 235.33 54.18 235.25C53.94 235.06 53.71 234.88 53.48 234.69C53.39 234.62 53.3 234.54 53.2 234.47C52.98 234.3 52.76 234.12 52.54 233.95C52.41 233.84 52.28 233.74 52.15 233.64C51.93 233.46 51.71 233.29 51.48 233.11C51.39 233.04 51.29 232.96 51.2 232.89C50.98 232.72 50.76 232.54 50.54 232.37C50.39 232.25 50.23 232.13 50.08 232C49.97 231.92 49.87 231.84 49.76 231.76C42.04 225.75 34.97 218.86 28.73 211.2C19.65 200.05 12.56 187.61 7.67 174.22C2.59 160.3 0 145.69 0 130.79C0 113.58 3.43 96.85 10.19 81.05C16.7 65.84 26 52.16 37.84 40.39C49.65 28.64 63.36 19.4 78.61 12.94C94.39 6.23998 111.07 2.84998 128.2 2.84998C140.04 2.84998 158.19 3.39998 177.42 5.97998C197.65 8.69998 214.07 13.04 226.2 18.87L228.73 20.08V20.23L228.99 20.35V20.49L229.23 20.61V20.76L229.48 20.88V21.02L229.73 21.14V21.29L229.97 21.41V21.55L230.22 21.67V21.82L230.47 21.94V22.09L230.71 22.21V22.35L230.96 22.47V22.61L231.2 22.73V22.88L231.45 23V23.15L231.7 23.26V23.41L231.94 23.53V23.67L232.19 23.8V23.94L232.44 24.06V24.21L232.68 24.33V24.47L232.93 24.59V24.74L233.18 24.86V25L233.42 25.12V25.27L233.67 25.39V25.54L233.91 25.65V25.8L234.15 25.92V26.07L234.4 26.19V26.33L234.65 26.45V26.6L234.89 26.72V26.87L235.13 26.98V27.13L235.38 27.25V27.39L235.63 27.51V27.66L235.87 27.78V27.93L236.11 28.05V28.19L236.36 28.31V28.46L236.59 28.57V28.72L236.84 28.84V28.99L237.09 29.11V29.25L237.34 29.37V29.53L237.57 29.64V29.78L237.82 29.9V30.05L238.07 30.17V30.32L238.31 30.44V30.59L238.54 30.7V30.85L238.78 30.97V31.12L239.03 31.23V31.37L239.28 31.5V31.65L239.52 31.76V31.91L239.76 32.03V32.18L240 32.3V32.44L240.24 32.56V32.7L240.49 32.82V32.98L240.73 33.09V33.24L240.96 33.36V106.39L233.42 107.92L233.3 107.63L233.17 107.66L233.06 107.36L232.93 107.39L232.82 107.1L232.68 107.12L232.57 106.83L232.44 106.86L232.32 106.57L232.19 106.59L232.07 106.3L231.94 106.33L231.83 106.04L231.7 106.06L231.58 105.77L231.44 105.8L231.33 105.5L231.2 105.53L231.08 105.24L230.96 105.26L230.84 104.98L230.72 105L230.6 104.71L230.47 104.73L230.36 104.44L230.22 104.47L230.1 104.17L229.96 104.2L229.85 103.91L229.73 103.93L229.61 103.64L229.48 103.67L229.36 103.38L229.22 103.41L229.11 103.11L228.97 103.14L228.86 102.85L228.74 102.87L228.62 102.58L228.49 102.61L228.37 102.32L228.24 102.34L228.12 102.05L228 102.08L227.88 101.78L227.74 101.81L227.62 101.52L227.49 101.55L227.37 101.25L227.24 101.28L227.13 100.99L227 101.01L226.88 100.72L226.74 100.75L226.63 100.46L226.5 100.48L226.38 100.19L226.25 100.22L226.13 99.93L226 99.95L225.88 99.66L225.75 99.68L225.63 99.39L225.51 99.42L225.39 99.13L225.26 99.16L225.14 98.86L225 98.89L224.88 98.6L224.76 98.62L224.64 98.33L224.5 98.36L224.39 98.07L224.25 98.09L224.13 97.8L224 97.83L223.88 97.54L223.75 97.56L223.63 97.27L223.5 97.3L223.38 97.01L223.25 97.03L223.13 96.74L223 96.77L222.88 96.48L222.75 96.5L222.63 96.21L222.5 96.24L222.38 95.95L222.25 95.97L222.13 95.68L222 95.71L221.88 95.42L221.75 95.44L221.63 95.15L221.5 95.17L221.38 94.88L221.25 94.91L221.13 94.62L220.99 94.65L220.14 92.59C213.79 77.12 206.67 64.53 198.44 54.24C184.95 43.36 168.25 37.13 151.64 37.13C150.61 37.13 149.56 37.15 148.52 37.2H148.28C96.71 40.33 70.82 95.87 71.92 149.13C72.48 176.18 79.82 201.07 92.6 219.23C94.41 221.82 96.33 224.24 98.34 226.51C109.49 233.42 122.37 237.08 136.57 237.28H138.34C159.18 237.28 176.6 231.56 190.16 220.3V171.06C190.16 155 186.89 141.98 180.72 133.39L175.64 126.33H251.99L252.2 126.59V126.61L252.4 126.85L252.43 126.89L252.61 127.12L252.66 127.18L252.83 127.39L252.89 127.47L253.03 127.65L253.11 127.75L253.25 127.92L253.33 128.03L253.45 128.18L253.55 128.3L253.67 128.45L253.77 128.59L253.87 128.71L253.99 128.87L254.08 128.98L254.22 129.15L254.29 129.24L254.44 129.43L254.49 129.51L257.28 133.04L263.32 140.68L263.33 140.69Z" fill="url(#paint5_linear_393_8247)"/>
<path d="M832.34 109.66C826.69 96.88 818.63 85.4 808.36 75.53C798.11 65.68 786.18 57.94 772.92 52.53C759.19 46.93 744.63 44.1 729.63 44.1H638.1L638.28 44.36H638.13L638.32 44.63H638.18L638.36 44.89H638.22L638.4 45.16H638.27L638.45 45.43H638.31L638.49 45.69H638.35L638.53 45.96H638.39L638.58 46.22H638.44L638.62 46.49H638.49L638.67 46.75H638.52L638.71 47.02H638.57L638.75 47.29H638.61L638.79 47.55H638.65L638.84 47.82H638.7L638.88 48.08H638.73L638.92 48.35H638.78L638.96 48.61H638.82L639.01 48.88H638.86L639.05 49.14H638.91L639.09 49.41H638.95L639.13 49.68H639L639.18 49.94H639.04L639.22 50.21H639.08L639.26 50.47H639.12L639.3 50.74H639.16L639.34 51H639.21L639.39 51.27H639.25L639.43 51.54H639.29L639.47 51.8H639.33L639.51 52.06H639.38L639.56 52.33H639.42L639.6 52.6H639.46L639.64 52.86H639.51L639.69 53.13H639.54L639.72 53.39H639.59L639.77 53.66H639.63L639.81 53.93H639.67L639.85 54.19H639.72L639.9 54.46H639.76L639.94 54.73H639.8L639.98 54.99H639.84L640.02 55.25H639.88L640.07 55.52H639.93L640.1 55.79H639.97L640.15 56.05H640.01L640.19 56.32H640.05L640.23 56.58H640.09L640.27 56.85H640.13L640.31 57.11H640.18L640.36 57.38H640.21L644.96 64.39C646.93 67.29 649.11 71.64 650.63 77.87C650.69 79.23 650.73 80.64 650.73 82.11V221.09C650.73 237.49 646.5 247 642.96 252.1L638.09 259.1H638.32L638.13 259.37H638.36L638.18 259.64H638.4L638.22 259.9H638.45L638.26 260.17H638.49L638.31 260.43H638.53L638.35 260.7H638.57L638.39 260.96H638.62L638.44 261.23H638.66L638.48 261.5H638.7L638.52 261.76H638.74L638.56 262.02H638.79L638.6 262.28H638.83L638.65 262.55H638.87L638.69 262.81H638.92L638.73 263.08H638.96L638.78 263.34H639L638.82 263.61H639.04L638.86 263.88H639.09L638.91 264.14H639.13L638.95 264.41H639.17L638.99 264.67H639.21L639.03 264.94H639.26L639.07 265.2H639.3L639.12 265.47H639.34L639.16 265.74H639.38L639.2 266H639.43L639.25 266.26H639.24H639.47L639.29 266.52H639.51L639.33 266.79H639.55L639.37 267.05H639.6L639.41 267.32H639.64L639.46 267.58H639.68L639.5 267.85H639.72L639.54 268.11H639.53H639.76L639.58 268.38H639.81L639.63 268.65H639.85L639.67 268.91H639.89L639.71 269.18H639.93L639.75 269.44H639.98L639.8 269.71H640.02L639.84 269.98H640.06L639.88 270.24H640.1L639.92 270.51H640.14L639.96 270.77H640.18L640 271.04H640.23L640.05 271.3H640.27L640.09 271.57H640.31L640.13 271.84H640.35L640.17 272.1H640.39L640.21 272.36H729.49C744.11 272.37 758.32 269.51 771.72 263.88C784.65 258.45 796.28 250.67 806.29 240.77C816.3 230.87 824.16 219.35 829.67 206.54C832.55 199.83 834.71 192.92 836.14 185.86C836.19 185.64 836.24 185.42 836.29 185.21C836.35 184.88 836.43 184.56 836.49 184.23C836.52 184.09 836.56 183.94 836.59 183.79C836.6 183.74 836.61 183.68 836.62 183.62C836.65 183.49 836.68 183.36 836.7 183.23C836.71 183.18 836.72 183.14 836.73 183.09C836.75 183.02 836.76 182.95 836.78 182.88C836.81 182.73 836.84 182.58 836.87 182.43C836.88 182.38 836.89 182.34 836.9 182.29C836.93 182.15 836.96 182.02 836.99 181.88C837.02 181.7 837.06 181.52 837.1 181.34C837.1 181.32 837.11 181.3 837.11 181.28C837.13 181.18 837.16 181.08 837.18 180.98C837.2 180.88 837.22 180.77 837.24 180.67C837.26 180.61 837.27 180.54 837.29 180.48C837.31 180.36 837.34 180.23 837.36 180.11C837.41 179.92 837.45 179.73 837.49 179.54C837.55 179.23 837.63 178.92 837.69 178.62C837.73 178.44 837.77 178.26 837.8 178.08C837.84 177.92 837.87 177.76 837.9 177.6C837.91 177.57 837.91 177.54 837.92 177.52C837.94 177.44 837.96 177.36 837.97 177.28C838.01 177.11 838.04 176.94 838.08 176.78C838.1 176.67 838.13 176.56 838.15 176.45C838.17 176.34 838.2 176.23 838.22 176.12C838.32 175.67 838.42 175.22 838.51 174.77C838.52 174.7 838.54 174.63 838.55 174.55C838.58 174.43 838.61 174.3 838.63 174.18C838.63 174.15 838.63 174.13 838.65 174.11C838.69 173.92 838.73 173.73 838.77 173.55C838.79 173.47 838.81 173.39 838.83 173.3C840.37 166.15 841.16 158.84 841.16 151.43C841.16 136.95 838.19 122.89 832.34 109.64V109.66ZM798.89 169.9C797.69 175.18 795.99 180.36 793.76 185.39C789.15 195.82 782.55 205.2 774.15 213.27C765.73 221.36 755.95 227.71 745.07 232.15C733.79 236.76 721.84 239.09 709.55 239.09H691.77V77.38H709.9C721.91 77.38 733.57 79.7 744.56 84.27C755.17 88.68 764.72 95 772.92 103.04C781.12 111.07 787.55 120.42 792.04 130.81C796.69 141.56 799.05 152.96 799.05 164.71C799.05 166.45 798.99 168.18 798.89 169.9Z" fill="url(#paint6_linear_393_8247)"/>
<path d="M470.51 186.23C470.56 185.98 470.62 185.73 470.67 185.47C470.7 185.31 470.74 185.15 470.77 185C470.79 184.89 470.82 184.77 470.84 184.66C470.86 184.55 470.88 184.44 470.9 184.33C470.93 184.18 470.96 184.03 470.99 183.88C470.99 183.84 471.01 183.8 471.01 183.76C471.11 183.28 471.21 182.81 471.3 182.33C471.34 182.14 471.38 181.96 471.42 181.77C471.46 181.58 471.51 181.38 471.55 181.19C471.58 181.03 471.62 180.87 471.65 180.71C471.72 180.37 471.79 180.03 471.86 179.7C471.86 179.68 471.86 179.65 471.87 179.63C471.9 179.47 471.94 179.31 471.97 179.15C472.04 178.84 472.1 178.53 472.17 178.21C472.2 178.07 472.22 177.93 472.25 177.79C472.27 177.71 472.29 177.63 472.3 177.54C472.33 177.39 472.36 177.24 472.39 177.09C472.48 176.67 472.58 176.25 472.67 175.82C472.69 175.74 472.7 175.67 472.72 175.59C472.72 175.56 472.73 175.53 472.74 175.51C472.76 175.43 472.78 175.34 472.8 175.26C472.87 174.93 472.94 174.6 473.01 174.27C473.23 173.26 473.43 172.25 473.61 171.23C474.76 165.03 475.34 158.72 475.34 152.32C475.34 133.68 470.27 115.31 460.68 99.19C451.4 83.58 438.08 70.34 422.16 60.88C420.73 60.03 419.53 59.35 418.43 58.76L417.43 57.76H416.54C400.34 49.34 382.03 44.88 363.55 44.88C350.52 44.88 337.75 47.03 325.59 51.28C323.67 51.94 321.93 52.59 320.27 53.28C318.52 54 316.94 54.69 315.45 55.37C304.12 60.59 293.84 67.6 284.87 76.19C274.61 86.02 266.54 97.51 260.88 110.32C259.97 112.36 259.14 114.42 258.34 116.61C258.02 117.47 257.68 118.42 257.34 119.44L257.22 119.85C253.78 130.27 252.04 141.19 252.04 152.3C252.04 159.68 252.8 166.94 254.3 174.03C254.3 174.06 254.3 174.08 254.32 174.11C254.35 174.24 254.37 174.37 254.4 174.5C254.43 174.63 254.45 174.75 254.48 174.88C254.51 175.01 254.53 175.14 254.56 175.27C254.59 175.43 254.63 175.6 254.67 175.76C254.69 175.83 254.7 175.91 254.72 175.98C254.72 176.05 254.75 176.11 254.76 176.18C254.78 176.27 254.8 176.37 254.82 176.46C254.85 176.61 254.88 176.76 254.91 176.9C254.91 176.97 254.94 177.03 254.95 177.1C254.95 177.14 254.97 177.19 254.98 177.23C255 177.33 255.02 177.43 255.04 177.52C255.08 177.69 255.11 177.87 255.15 178.04C255.21 178.33 255.27 178.61 255.33 178.9C255.35 179 255.37 179.1 255.39 179.2C255.41 179.31 255.44 179.41 255.46 179.52C255.48 179.6 255.49 179.69 255.51 179.77C255.55 179.97 255.59 180.17 255.64 180.38C255.66 180.49 255.69 180.6 255.71 180.71C255.71 180.78 255.74 180.84 255.75 180.91C255.78 181.04 255.81 181.17 255.83 181.3C255.9 181.65 255.97 182.01 256.05 182.36C256.11 182.67 256.18 182.98 256.24 183.29C256.31 183.63 256.38 183.97 256.45 184.3C256.48 184.47 256.52 184.63 256.55 184.79C256.57 184.91 256.6 185.02 256.62 185.14C256.65 185.3 256.68 185.47 256.72 185.63C256.78 185.95 256.85 186.27 256.92 186.59C258.35 193.67 260.5 200.58 263.37 207.27C266.13 213.74 269.53 219.96 273.48 225.71C273.92 226.36 274.36 226.98 274.78 227.56V227.61L274.83 227.66V227.87L274.88 227.92V228.14L276.19 229.49C279.38 233.74 282.92 237.79 286.7 241.53C296.66 251.4 308.28 259.15 321.25 264.57C332.37 269.23 344.11 271.98 356.11 272.75C358.52 272.93 360.95 273.02 363.55 273.02H363.65C378.3 273 392.52 270.15 405.9 264.53C418.84 259.12 430.5 251.34 440.56 241.43C450.57 231.55 458.45 220.03 463.97 207.19C466.49 201.33 468.46 195.31 469.88 189.17C470.11 188.19 470.32 187.2 470.53 186.21L470.51 186.23ZM313.57 182.33C320.04 175.12 326.25 170.01 332.02 167.15C335.84 165.21 339.68 164.18 343.73 164.01C341.27 167.06 339.17 170.72 337.64 175.26C335.33 182.03 334.46 190.39 335.04 200.5C335.04 200.58 335.04 200.65 335.05 200.73C335.05 200.92 335.07 201.11 335.08 201.31C335.08 201.43 335.09 201.56 335.1 201.68C335.12 202.06 335.14 202.45 335.17 202.84C335.17 203 335.19 203.17 335.2 203.33C335.2 203.45 335.21 203.57 335.22 203.69C335.22 203.76 335.22 203.83 335.23 203.91C335.23 204.03 335.24 204.15 335.25 204.26V204.33C335.25 204.49 335.27 204.64 335.28 204.8C335.28 204.88 335.29 204.97 335.3 205.05C335.31 205.29 335.33 205.53 335.34 205.77C335.37 206.48 335.41 207.19 335.46 207.91C335.48 208.39 335.5 208.86 335.53 209.35C335.55 209.73 335.57 210.11 335.6 210.49C335.6 210.61 335.61 210.74 335.62 210.86C335.63 211.09 335.64 211.31 335.65 211.54C335.67 211.93 335.69 212.33 335.72 212.72C335.75 213.37 335.79 214.04 335.84 214.71C336.08 218.26 336.49 222.03 337.07 226.02C335.17 225.4 333.28 224.71 331.44 223.96C321.68 219.98 312.95 214.31 305.48 207.1C303.87 205.55 302.33 203.93 300.89 202.29L299.38 200.42C304.61 193.04 309.29 187.08 313.58 182.33H313.57ZM287.52 142.14L287.64 141.76L287.73 141.44C287.87 141.03 288.01 140.61 288.16 140.2L288.23 140L288.28 139.86C288.85 138.27 289.41 136.83 290.02 135.45L290.06 135.37C291.18 132.77 292.46 130.21 293.87 127.72H295.59C318.32 127.72 334.77 130.92 344.48 137.23L344.52 137.25C346.58 138.54 348.35 139.95 349.88 141.48C346.24 140.08 342.33 139.2 337.98 139.2C335.44 139.2 332.82 139.51 330.22 140.11C317.55 142.85 302.46 152.88 284.19 170.75C284.16 170.62 284.13 170.48 284.1 170.35C283.99 168.67 283.93 166.99 283.93 165.29C283.93 157.35 285.14 149.57 287.53 142.14H287.52ZM366.38 230.15C357.88 215.06 352.81 202.43 351.07 191.93C352.27 183.47 356.38 177.46 361.08 172.12C361.35 182.57 363.05 192.17 370.57 201.29C375.07 206.89 381.72 212.25 390.33 217.22C393.11 218.83 396.21 220.48 399.68 222.17C398.36 222.79 397.03 223.38 395.67 223.93C386.38 227.73 376.53 229.81 366.37 230.15H366.38ZM328.77 95.5C329.88 94.98 331.09 94.44 332.47 93.86C333.54 93.41 334.7 92.96 336.01 92.5L336.1 92.47C344.09 89.61 352.47 88.03 361.04 87.78C369.86 103.83 374.89 117.11 376.26 127.99C374.7 135.42 370.78 140.91 366.34 145.82C366.07 135.37 364.32 125.77 356.61 116.65C352 111.05 345.18 105.69 336.35 100.72C333.7 99.22 330.76 97.69 327.5 96.12C327.92 95.91 328.35 95.7 328.78 95.5H328.77ZM435.05 190.21H433.5C410.19 190.21 393.33 187.01 383.38 180.7L383.34 180.68C381.43 179.52 379.77 178.25 378.3 176.89C381.52 178.03 384.97 178.74 388.75 178.74C391.22 178.74 393.78 178.43 396.32 177.83C408.68 175.09 423.4 165.05 441.22 147.19C442.69 153.13 443.44 159.2 443.44 165.3C443.44 166.93 443.38 168.55 443.28 170.16C442.26 174.26 440.89 178.27 439.16 182.2C437.96 184.92 436.58 187.61 435.04 190.22L435.05 190.21ZM396.15 150.79C391.92 152.89 387.65 153.93 383.13 153.95C385.54 150.89 387.59 147.23 389.09 142.68C390.59 138.17 391.47 132.96 391.72 126.99V126.86C391.76 126.2 391.8 125.54 391.83 124.86C391.83 124.77 391.84 124.67 391.84 124.58C391.84 124.47 391.85 124.36 391.86 124.25C391.89 123.83 391.91 123.4 391.93 122.97C391.95 122.64 391.97 122.3 391.99 121.96C392.03 121.34 392.07 120.72 392.1 120.09C392.12 119.74 392.14 119.39 392.16 119.04C392.18 118.71 392.2 118.39 392.21 118.06C392.21 117.9 392.23 117.75 392.24 117.59V117.49C392.28 116.83 392.32 116.17 392.35 115.49C392.77 108.83 392.35 101.19 391.08 92.5C394.78 93.82 398.36 95.4 401.79 97.23L403.14 97.96C403.89 98.36 404.76 98.87 405.88 99.54C414.5 104.8 422.06 111.66 428.08 119.63C423.34 126.04 419.05 131.31 415.09 135.59C408.45 142.81 402.09 147.91 396.17 150.78H396.15V150.79Z" fill="url(#paint7_linear_393_8247)"/>
<path d="M132.55 259.11C123.16 259.11 108.8 258 99.46 255.56C71.94 249.17 46.82 233.42 28.73 211.21C19.65 200.05 12.56 187.61 7.67 174.22C2.58 160.3 0 145.69 0 130.79C0 113.58 3.43 96.85 10.19 81.05C16.7 65.84 26 52.16 37.84 40.38C49.65 28.63 63.36 19.4 78.61 12.93C94.39 6.23998 111.07 2.84998 128.2 2.84998C140.04 2.84998 158.19 3.38998 177.42 5.97998C197.65 8.69998 214.07 13.04 226.2 18.87L228.73 20.09V93.13L220.99 94.66L220.14 92.6C213.16 75.61 205.25 62.08 195.97 51.26C180.97 34.11 158.98 23.86 137.14 23.86C136.09 23.86 135.01 23.89 133.93 23.94H133.69C80.82 27.07 54.27 82.61 55.4 135.87C55.97 162.91 63.5 187.8 76.6 205.97C91.14 226.13 111.87 236.96 136.56 237.29H138.34C159.17 237.29 176.6 231.58 190.15 220.31V171.07C190.15 155.01 186.89 141.99 180.71 133.4L175.63 126.33H251.98L246.35 133.54C242.69 138.22 240.04 145.02 238.47 153.72C237.19 160.8 237.01 167.15 237.01 170.3V217.07L236.04 218.29C214.95 244.82 173.21 257.57 138.88 258.98L139.01 259.11H132.53H132.55Z" fill="url(#paint8_linear_393_8247)"/>
<path d="M474.64 259.11V255.55L477.04 252.1C480.59 247 484.75 237.49 484.48 221.16V82.05C484.76 65.73 480.59 56.22 477.05 51.11L472.19 44.1H538.29L532.66 51.31C530.37 54.24 525.04 63.05 525.04 81.49L524.39 239.43H576.07C587.94 238.54 599.32 234.44 608.97 227.56C618.42 220.82 625.85 211.73 630.44 201.26L631.42 199.02L639.39 201.58L627.27 259.11H474.62H474.64Z" fill="url(#paint9_linear_393_8247)"/>
<path d="M474.64 259.11V255.55L477.04 252.1C480.59 247 484.75 237.49 484.48 221.16V82.05C484.76 65.73 480.59 56.22 477.05 51.11L472.19 44.1H538.29L532.66 51.31C530.37 54.24 525.04 63.05 525.04 81.49L524.39 239.43H576.07C587.94 238.54 599.32 234.44 608.97 227.56C618.42 220.82 625.85 211.73 630.44 201.26L631.42 199.02L639.39 201.58L627.27 259.11H474.62H474.64Z" fill="url(#paint10_linear_393_8247)"/>
<path d="M638.09 259.1L642.96 252.09C646.5 247 650.73 237.48 650.73 221.08V82.11C650.73 65.73 646.5 56.2 642.96 51.1L638.1 44.09H729.63C744.63 44.09 759.19 46.93 772.92 52.52C786.19 57.93 798.11 65.67 808.37 75.52C818.64 85.38 826.7 96.87 832.34 109.65C838.19 122.9 841.16 136.96 841.16 151.44C841.16 165.92 838.19 179.99 832.34 193.27C826.7 206.08 818.64 217.6 808.37 227.5C798.11 237.4 786.18 245.18 772.92 250.61C759.18 256.24 744.61 259.1 729.62 259.1H638.08H638.09ZM709.55 239.09C721.85 239.09 733.8 236.75 745.08 232.15C755.96 227.71 765.74 221.35 774.16 213.27C782.56 205.2 789.16 195.82 793.77 185.39C798.54 174.61 800.96 163.18 800.96 151.43C800.96 139.68 798.54 128.27 793.78 117.52C789.17 107.13 782.58 97.79 774.18 89.76C765.77 81.72 755.98 75.4 745.1 70.99C733.83 66.42 721.87 64.1 709.56 64.1H690.97V239.1H709.57H709.55V239.09Z" fill="url(#paint11_linear_393_8247)"/>
<path d="M924.92 259.11V259.08C891.94 258.47 853.11 246.9 835.44 232.24L832.93 230.15L858.32 167.68L862.26 178.68C866.21 189.73 871.63 204.86 881.51 216.81C886.73 223.13 892.81 228.03 899.57 231.38C907.46 235.29 916.64 237.28 926.85 237.28C946.74 237.28 962.26 231.55 970.55 221.15C975.92 214.4 977.82 206.01 975.87 197.53C971.18 177.8 946.3 161.36 919 144.88C915.52 142.82 911.93 140.73 908.46 138.7L908.31 138.61C887.57 126.53 867.99 115.13 854.78 100.77C842.81 87.51 837.76 71.4 840.56 55.37C843.63 37.79 855.7 22.58 874.54 12.51L874.6 12.48C886.86 6.19 903.84 2.88 923.68 2.88C929.64 2.88 938.57 3.77 948.02 4.71C958.18 5.72 968.67 6.77 976.04 6.77C977.19 6.77 978.24 6.74 979.16 6.69C985.26 6.35 989.93 5.68 994.36 3.39L1000.86 0V71.1L993.13 72.64L992.28 70.59C986.66 57.08 978.84 46.32 969.04 38.62C956.97 29.14 941.84 24.33 924.07 24.33C913.27 24.33 903.75 26.31 896.55 30.04C890.26 33.3 885.83 37.84 883.74 43.16C882.06 47.44 881.94 52.23 883.4 56.98C885 62.19 888.49 67.4 893.51 72.06C904.36 82 921.41 92.16 939.46 102.91C964.49 117.82 990.38 133.24 1006.86 151.76C1022.42 168.96 1027.14 187.23 1021.27 207.59C1017.25 222.56 1006.94 235.27 991.46 244.34C974.97 254 952.89 259.1 927.63 259.1H924.92V259.11Z" fill="url(#paint12_linear_393_8247)"/>
<path d="M1019.33 259.11L1015.91 257.46L1017.72 254.85L1019.63 252.1C1023.18 247 1027.4 237.48 1027.4 221.09V82.13C1027.4 65.78 1023.17 56.24 1019.63 51.12L1014.79 44.12H1117.85C1133.99 44.12 1149.21 50.21 1160.72 61.27C1172.28 72.38 1178.64 87.09 1178.64 102.71C1178.64 118.33 1172.28 133.04 1160.72 144.15C1149.21 155.21 1133.98 161.31 1117.86 161.31H1067.63V221.74C1067.63 230.49 1068.98 242.87 1075.4 252.12L1080.26 259.13H1019.34V259.11H1019.33ZM1097.08 141.92C1119.69 141.92 1138.08 124.32 1138.08 102.69C1138.08 81.06 1119.69 63.46 1097.08 63.46H1067.61V141.92H1097.08Z" fill="url(#paint13_linear_393_8247)"/>
<path d="M1177.55 259.1L1182.42 252.09C1185.97 246.99 1190.19 237.47 1190.19 221.08V82.13C1190.19 65.78 1185.96 56.24 1182.42 51.12L1177.58 44.12H1243.05L1238.18 51.13C1231.76 60.37 1230.41 72.75 1230.41 81.51V221.74C1230.41 230.49 1231.76 242.87 1238.18 252.12L1243.04 259.13H1177.55V259.1Z" fill="url(#paint14_linear_393_8247)"/>
<path d="M1434.63 259.11C1430.32 259.11 1424.21 257.34 1417.87 254.25C1411.12 250.96 1404.74 246.5 1399.9 241.7C1394.06 236.08 1390.36 232.31 1383.02 224.8L1378.42 220.1C1363.83 205.09 1349.57 189.33 1335.77 174.1L1335.66 173.97C1322.92 159.89 1309.75 145.35 1296.37 131.43L1276.05 110.29V222.36C1276.05 238.95 1280.88 248.06 1283.76 252.02L1288.91 259.11H1243.63L1248.48 252.11C1250.9 248.63 1256.46 238.65 1255.92 221.23V90.04C1255.92 60.67 1252.48 54.37 1249.5 52.17L1238.58 44.12H1252.15C1256.46 44.12 1262.57 45.89 1268.91 48.98C1275.65 52.27 1282.04 56.73 1286.89 61.53C1293.91 68.28 1297.82 72.36 1308.06 83.15C1322.88 98.23 1337.26 114.02 1351.17 129.29C1363.86 143.23 1376.97 157.64 1390.41 171.46L1410.74 192.61V80.53C1410.74 64.16 1405.91 55.12 1403.04 51.2L1397.85 44.1H1443.33L1438.6 50.7L1438.18 51.29L1437.79 51.84C1431.48 61.22 1430.54 74.82 1430.54 82.1V213.15C1430.54 242.31 1434.15 248.71 1437.29 251.02L1448.23 259.08H1434.63V259.11Z" fill="url(#paint15_linear_393_8247)"/>
<path d="M363.53 260.06C360.87 260.06 358.37 259.97 355.9 259.79C343.6 259.02 331.56 256.27 320.15 251.61C306.85 246.19 294.94 238.44 284.73 228.57C280.85 224.83 277.22 220.78 273.95 216.53L272.61 215.18V214.74C272.15 214.13 271.66 213.46 271.18 212.76C267.13 207.01 263.64 200.8 260.82 194.32C254.99 181.05 252.03 166.91 252.03 152.31C252.03 141.2 253.77 130.28 257.21 119.86L257.33 119.45C257.67 118.42 258.01 117.48 258.33 116.62C259.13 114.43 259.96 112.37 260.87 110.33C266.53 97.52 274.6 86.03 284.86 76.2C293.82 67.61 304.11 60.6 315.44 55.38C316.93 54.7 318.51 54.02 320.26 53.29C321.91 52.61 323.65 51.95 325.58 51.29C337.74 47.05 350.51 44.89 363.54 44.89C382.02 44.89 400.33 49.34 416.53 57.77H417.42L418.42 58.77C419.52 59.36 420.72 60.04 422.15 60.89C438.08 70.34 451.39 83.59 460.67 99.2C470.26 115.32 475.33 133.69 475.33 152.33C475.33 166.84 472.36 180.94 466.5 194.24C460.84 207.08 452.76 218.6 442.49 228.48C432.18 238.4 420.22 246.17 406.96 251.58C393.24 257.19 378.66 260.04 363.64 260.07H363.53V260.06ZM361.02 159.15C356.11 164.59 351.81 170.72 350.68 179.43C349.05 191.9 354.19 208.5 366.38 230.14C376.54 229.8 386.39 227.72 395.68 223.92C401.72 221.46 407.42 218.31 412.67 214.53C403.87 210.88 396.75 207.5 391.01 204.24C382.18 199.27 375.36 193.91 370.75 188.31C363.04 179.19 361.29 169.59 361.02 159.14V159.15ZM300.88 202.29C302.32 203.93 303.87 205.55 305.47 207.1C312.93 214.31 321.66 219.98 331.43 223.96C333.85 224.95 336.35 225.83 338.87 226.59C333.96 203.97 333.56 187.15 337.63 175.25C341.54 163.7 349.06 157.86 357.05 153.15C352.86 151.91 348.68 151.02 344.4 151.02C339.81 151.02 335.49 152.06 331.2 154.19C325.28 157.06 318.92 162.16 312.28 169.37C306.85 175.24 300.8 182.96 293.82 192.94C294.41 193.87 295.02 194.77 295.62 195.63L295.79 195.87C296.03 196.21 296.35 196.65 296.72 197.14L300.88 202.29ZM368.14 158.66C370.72 167.33 374.32 175.2 383.34 180.69L383.38 180.71C393.34 187.02 410.2 190.22 433.5 190.22H435.05C436.59 187.62 437.97 184.92 439.17 182.2C443.35 172.72 445.46 162.67 445.46 152.34C445.46 146.24 444.69 140.17 443.18 134.23C424.9 152.1 409.82 162.13 397.14 164.87C394.54 165.47 391.92 165.78 389.38 165.78C381.06 165.78 374.34 162.57 368.12 158.67H368.14V158.66ZM285.71 128.79L285.59 129.17C283.14 136.6 281.9 144.38 281.9 152.32C281.9 158.59 282.67 164.76 284.18 170.74C302.45 152.87 317.54 142.84 330.21 140.1C332.81 139.5 335.43 139.19 337.97 139.19C346.29 139.19 353.01 142.4 359.23 146.3C356.65 137.63 353.05 129.76 344.03 124.27L343.99 124.25C334.03 117.94 317.17 114.74 293.87 114.74H292.11C290.66 117.23 289.35 119.79 288.2 122.39L288.16 122.47C287.54 123.85 286.96 125.29 286.38 126.88L286.33 127.02L286.26 127.22C286.11 127.63 285.96 128.05 285.82 128.46L285.73 128.77L285.71 128.79ZM370.3 151.82C374.49 153.06 378.67 153.95 382.95 153.95C387.54 153.95 391.86 152.91 396.15 150.78C402.07 147.91 408.43 142.81 415.07 135.59C420.5 129.73 426.54 122.02 433.51 112.06C426.86 101.77 417.71 92.98 406.93 86.58C405.79 85.9 404.89 85.4 404.13 85L402.75 84.27C398.24 81.92 393.47 79.98 388.52 78.48C393.41 101.04 393.79 117.83 389.73 129.72C385.82 141.28 378.3 147.11 370.31 151.82H370.3ZM314.47 90.34C323.36 94.02 330.56 97.43 336.35 100.72C345.18 105.69 352 111.05 356.61 116.65C364.32 125.77 366.07 135.37 366.34 145.82C371.25 140.38 375.55 134.25 376.68 125.54C378.31 113.07 373.17 96.46 360.98 74.82C352.2 75.08 343.6 76.65 335.41 79.51L335.32 79.54C333.98 80 332.79 80.45 331.69 80.9C330.28 81.48 329.04 82.02 327.9 82.54C323.19 84.72 318.69 87.34 314.48 90.35L314.47 90.34Z" fill="url(#paint16_linear_393_8247)"/>
<path d="M28.68 211.2C41.15 226.27 57.01 238.47 74.73 246.62C79.18 248.6 83.7 250.44 88.34 251.93C89.49 252.34 90.67 252.65 91.83 253C93 253.33 94.16 253.72 95.35 253.99C97.72 254.56 100.08 255.2 102.45 255.69C107.21 256.66 112.05 257.25 116.9 257.68C121.75 258.1 126.63 258.34 131.49 258.35L138.8 258.31C141.22 258.15 143.64 258.01 146.06 257.8C148.48 257.52 150.9 257.33 153.31 256.98L156.92 256.45L158.72 256.19L160.51 255.86C170.08 254.16 179.52 251.7 188.65 248.38C197.76 245.06 206.57 240.87 214.67 235.61L216.2 234.64L217.66 233.58L220.59 231.45C221.59 230.77 222.47 229.94 223.4 229.18L226.16 226.86C227.05 226.05 227.88 225.18 228.74 224.35C229.58 223.49 230.49 222.7 231.27 221.79L233.61 219.06C234.39 218.16 235.17 217.25 235.92 216.27L238.27 218.14C237.52 219.1 236.7 220.03 235.87 220.97L233.4 223.78C232.57 224.71 231.62 225.52 230.74 226.4C229.84 227.25 228.96 228.14 228.03 228.96L225.15 231.32C224.18 232.09 223.26 232.93 222.22 233.62L219.18 235.77L217.66 236.84L216.08 237.82C207.71 243.11 198.69 247.25 189.4 250.5C180.1 253.75 170.52 256.12 160.82 257.71L159 258.02L157.17 258.26L153.52 258.75C151.09 259.08 148.63 259.24 146.19 259.49C143.74 259.67 141.27 259.78 138.82 259.91L131.46 259.86C126.54 259.78 121.65 259.48 116.76 258.99C111.88 258.5 107.01 257.84 102.2 256.8C99.79 256.27 97.44 255.61 95.06 255C93.87 254.71 92.71 254.3 91.53 253.96C90.36 253.59 89.18 253.27 88.03 252.84C83.37 251.28 78.85 249.37 74.4 247.32C56.69 238.89 40.95 226.44 28.67 211.22V211.2H28.68Z" fill="url(#paint17_linear_393_8247)"/>
<path d="M627.279 257.635L474.889 257.901L474.894 260.901L627.284 260.635L627.279 257.635Z" fill="url(#paint18_linear_393_8247)"/>
<path d="M841.16 151.44C841.42 162.43 839.81 173.48 836.53 184.03C833.2 194.56 828.21 204.59 821.8 213.64C808.95 231.74 790.48 245.79 769.62 253.57C759.19 257.46 748.17 259.81 737.05 260.54C734.28 260.74 731.47 260.79 728.71 260.81L720.47 260.84H703.99L671.04 260.81L638.09 260.61V257.61L671.04 257.41L703.99 257.37H720.47L728.71 257.41C731.44 257.41 734.13 257.38 736.84 257.21C747.65 256.58 758.36 254.37 768.54 250.66C778.72 246.97 788.41 241.86 797.13 235.39C805.87 228.94 813.63 221.17 820.15 212.46C833.19 195.04 840.77 173.45 841.16 151.46V151.44Z" fill="url(#paint19_linear_393_8247)"/>
<path d="M833.88 229L836.25 230.94L838.63 232.74L839.82 233.64L841.08 234.46L843.6 236.09C845.34 237.09 847.07 238.1 848.85 239.03L851.55 240.38L852.9 241.05L854.28 241.66C861.64 244.97 869.28 247.68 877.07 249.91C884.86 252.14 892.79 253.88 900.79 255.15C908.79 256.43 916.86 257.27 924.95 257.44L926.55 257.48V259.49L926.38 259.83L924.93 257.49C939.67 257.69 954.42 256.31 968.57 252.38C970.35 251.92 972.08 251.33 973.83 250.79C975.55 250.17 977.3 249.61 978.99 248.91C982.41 247.6 985.72 246.04 988.94 244.31C995.39 240.87 1001.34 236.49 1006.44 231.29C1011.53 226.08 1015.73 219.96 1018.48 213.19C1021.14 206.41 1022.87 199.13 1023.04 191.81C1023.19 188.14 1022.77 184.48 1022.11 180.87C1021.45 177.25 1020.31 173.73 1018.86 170.34C1016.01 163.52 1011.7 157.38 1006.87 151.77C1011.87 157.23 1016.39 163.26 1019.49 170.07C1021.05 173.45 1022.33 177 1023.11 180.66C1023.91 184.31 1024.39 188.07 1024.33 191.82C1024.28 195.57 1023.98 199.34 1023.19 203.01C1022.41 206.67 1021.5 210.32 1020.13 213.85C1017.44 220.9 1013.24 227.37 1008.03 232.82C1002.82 238.28 996.74 242.89 990.15 246.53C986.86 248.36 983.47 250.01 979.98 251.42C978.25 252.17 976.47 252.77 974.71 253.43C972.92 254.01 971.15 254.64 969.34 255.14C954.92 259.41 939.81 260.81 924.91 260.75H922.3L923.46 258.4L923.29 259.12V259.09L924.88 260.71C908.36 260.42 891.98 257.68 876.14 253.17C868.22 250.89 860.42 248.14 852.92 244.63L851.51 243.99L850.13 243.28L847.36 241.87C845.53 240.89 843.74 239.82 841.95 238.77L839.34 237.04L838.04 236.17L836.79 235.21L834.31 233.29L831.96 231.32L833.88 229.01V229Z" fill="url(#paint20_linear_393_8247)"/>
<path d="M1178.63 102.7C1178.79 114.71 1174.93 126.74 1167.85 136.53C1160.81 146.34 1150.79 154.02 1139.41 158.26C1133.73 160.4 1127.72 161.68 1121.65 162.11C1118.6 162.31 1115.59 162.29 1112.6 162.33L1103.6 162.42L1067.61 162.8V159.8L1103.6 160.18L1112.6 160.27C1115.6 160.29 1118.6 160.38 1121.54 160.24C1127.44 159.95 1133.31 158.83 1138.9 156.86C1150.09 152.95 1160.09 145.63 1167.25 136.09C1174.44 126.58 1178.54 114.72 1178.63 102.71V102.7Z" fill="url(#paint21_linear_393_8247)"/>
<path d="M1079.51 260.61H1018.99L1015.51 258.93L1016.81 256.23L1019.68 257.61H1079.51V260.61Z" fill="url(#paint22_linear_393_8247)"/>
<path d="M1243.03 257.61H1177.55V260.61H1243.03V257.61Z" fill="url(#paint23_linear_393_8247)"/>
<path d="M1288.23 257.59H1243.63V260.59H1288.23V257.59Z" fill="url(#paint24_linear_393_8247)"/>
<path d="M1335.77 174.08C1350.8 190.33 1365.82 206.59 1381.47 222.23C1385.38 226.14 1389.28 230.07 1393.22 233.94C1395.19 235.88 1397.18 237.79 1399.18 239.69C1400.2 240.64 1401.18 241.61 1402.19 242.51C1403.21 243.41 1404.25 244.29 1405.32 245.13C1409.62 248.48 1414.32 251.32 1419.26 253.58C1421.73 254.71 1424.27 255.69 1426.85 256.45C1429.42 257.19 1432.08 257.75 1434.63 257.74L1434.3 257.78H1434.32L1434.47 257.74H1434.65L1446.23 257.6V260.6L1434.65 260.46L1434.98 260.42H1434.96L1434.78 260.47H1434.63C1431.63 260.4 1428.83 259.73 1426.11 258.9C1423.4 258.05 1420.78 256.97 1418.25 255.75C1413.18 253.3 1408.41 250.28 1404.05 246.74C1402.96 245.86 1401.9 244.93 1400.87 243.97C1399.83 243.01 1398.87 242.01 1397.88 241.05C1395.91 239.1 1393.95 237.14 1392.01 235.16C1388.14 231.2 1384.32 227.19 1380.49 223.2C1365.14 207.22 1350.45 190.65 1335.76 174.1V174.08H1335.77Z" fill="url(#paint25_linear_393_8247)"/>
<path d="M475.43 150.79C475.56 165.17 472.64 179.59 466.9 192.82C461.2 206.07 452.74 218.13 442.3 228.13C431.88 238.16 419.49 246.15 406.03 251.55C392.59 256.99 378.08 259.8 363.55 259.91C359.2 259.74 354.85 259.71 350.53 259.2C346.2 258.74 341.9 258.02 337.65 257.08C329.16 255.17 320.88 252.29 313.03 248.52C305.18 244.76 297.75 240.08 290.98 234.6C284.2 229.12 278.05 222.87 272.71 215.97L272.83 216.11L271.5 214.78L271.48 214.76L271.04 214.32V213.26L271.34 214.16C268.07 209.52 265.2 204.66 262.72 199.59C261.48 197.06 260.34 194.48 259.32 191.86C258.28 189.25 257.34 186.6 256.52 183.91C254.86 178.54 253.66 173.05 252.9 167.5C252.14 161.95 251.84 156.36 251.95 150.78C252.09 156.36 252.64 161.91 253.64 167.38C254.65 172.84 256.08 178.22 257.95 183.43C259.81 188.64 262.09 193.7 264.73 198.55C267.37 203.39 270.4 208.02 273.76 212.36L274.06 212.75V213.7L273.62 212.64L273.64 212.66L274.96 214L275.03 214.07L275.09 214.14C280.26 220.87 286.22 226.99 292.81 232.35C299.39 237.72 306.61 242.3 314.25 246C321.9 249.71 329.96 252.55 338.25 254.45C342.39 255.39 346.59 256.11 350.82 256.57C355.04 257.09 359.31 257.14 363.56 257.32C377.78 257.43 392.03 254.89 405.33 249.74C418.64 244.63 430.97 236.95 441.42 227.19C451.89 217.46 460.46 205.65 466.32 192.56C472.22 179.49 475.36 165.17 475.44 150.79H475.43Z" fill="url(#paint26_linear_393_8247)"/>
</g>
<defs>
<linearGradient id="paint0_linear_393_8247" x1="982.89" y1="174.39" x2="1229.42" y2="108.33" gradientUnits="userSpaceOnUse">
<stop stop-color="#20190D"/>
<stop offset="0.29" stop-color="#57421E"/>
<stop offset="0.52" stop-color="#926C2D"/>
<stop offset="0.57" stop-color="#FFD056"/>
<stop offset="0.63" stop-color="#3C2E17"/>
<stop offset="1" stop-color="#231C10"/>
</linearGradient>
<linearGradient id="paint1_linear_393_8247" x1="1206.64" y1="192.5" x2="1464.58" y2="123.38" gradientUnits="userSpaceOnUse">
<stop stop-color="#20190D"/>
<stop offset="0.29" stop-color="#57421E"/>
<stop offset="0.56" stop-color="#926C2D"/>
<stop offset="0.62" stop-color="#FFD056"/>
<stop offset="0.69" stop-color="#3C2E17"/>
<stop offset="1" stop-color="#231C10"/>
</linearGradient>
<linearGradient id="paint2_linear_393_8247" x1="454.55" y1="184.09" x2="659.28" y2="129.23" gradientUnits="userSpaceOnUse">
<stop stop-color="#20190D"/>
<stop offset="0.29" stop-color="#57421E"/>
<stop offset="0.56" stop-color="#926C2D"/>
<stop offset="0.62" stop-color="#FFD056"/>
<stop offset="0.69" stop-color="#3C2E17"/>
<stop offset="1" stop-color="#231C10"/>
</linearGradient>
<linearGradient id="paint3_linear_393_8247" x1="810.04" y1="168.11" x2="1078.04" y2="96.29" gradientUnits="userSpaceOnUse">
<stop stop-color="#20190D"/>
<stop offset="0.29" stop-color="#57421E"/>
<stop offset="0.48" stop-color="#926C2D"/>
<stop offset="0.53" stop-color="#FFD056"/>
<stop offset="0.59" stop-color="#3C2E17"/>
<stop offset="1" stop-color="#231C10"/>
</linearGradient>
<linearGradient id="paint4_linear_393_8247" x1="1140.31" y1="175.29" x2="1268.96" y2="140.81" gradientUnits="userSpaceOnUse">
<stop stop-color="#20190D"/>
<stop offset="0.25" stop-color="#57421E"/>
<stop offset="0.39" stop-color="#926C2D"/>
<stop offset="0.47" stop-color="#FFD056"/>
<stop offset="0.55" stop-color="#3C2E17"/>
<stop offset="1" stop-color="#231C10"/>
</linearGradient>
<linearGradient id="paint5_linear_393_8247" x1="6.89" y1="173.21" x2="260.24" y2="105.33" gradientUnits="userSpaceOnUse">
<stop stop-color="#20190D"/>
<stop offset="0.29" stop-color="#57421E"/>
<stop offset="0.68" stop-color="#926C2D"/>
<stop offset="0.74" stop-color="#FFD056"/>
<stop offset="0.78" stop-color="#3C2E17"/>
<stop offset="1" stop-color="#231C10"/>
</linearGradient>
<linearGradient id="paint6_linear_393_8247" x1="578.75" y1="188.32" x2="846.32" y2="116.62" gradientUnits="userSpaceOnUse">
<stop stop-color="#20190D"/>
<stop offset="0.29" stop-color="#57421E"/>
<stop offset="0.68" stop-color="#926C2D"/>
<stop offset="0.74" stop-color="#FFD056"/>
<stop offset="0.78" stop-color="#3C2E17"/>
<stop offset="1" stop-color="#231C10"/>
</linearGradient>
<linearGradient id="paint7_linear_393_8247" x1="256.93" y1="187.42" x2="472.88" y2="129.55" gradientUnits="userSpaceOnUse">
<stop stop-color="#20190D"/>
<stop offset="0.29" stop-color="#57421E"/>
<stop offset="0.68" stop-color="#926C2D"/>
<stop offset="0.74" stop-color="#FFD056"/>
<stop offset="0.78" stop-color="#3C2E17"/>
<stop offset="1" stop-color="#231C10"/>
</linearGradient>
<linearGradient id="paint8_linear_393_8247" x1="125.99" y1="261.87" x2="125.99" y2="-2.65989e-05" gradientUnits="userSpaceOnUse">
<stop stop-color="#834F00"/>
<stop offset="0.52" stop-color="#FFE594"/>
<stop offset="1" stop-color="#835A1F"/>
</linearGradient>
<linearGradient id="paint9_linear_393_8247" x1="555.79" y1="10818.4" x2="555.79" y2="10818.4" gradientUnits="userSpaceOnUse">
<stop stop-color="#834F00"/>
<stop offset="0.52" stop-color="#FFE594"/>
<stop offset="1" stop-color="#835A1F"/>
</linearGradient>
<linearGradient id="paint10_linear_393_8247" x1="555.79" y1="259.11" x2="555.79" y2="44.1" gradientUnits="userSpaceOnUse">
<stop stop-color="#834F00"/>
<stop offset="0.62" stop-color="#FFE594"/>
<stop offset="1" stop-color="#835A1F"/>
</linearGradient>
<linearGradient id="paint11_linear_393_8247" x1="739.62" y1="259.1" x2="739.62" y2="44.09" gradientUnits="userSpaceOnUse">
<stop stop-color="#834F00"/>
<stop offset="0.62" stop-color="#FFE594"/>
<stop offset="1" stop-color="#835A1F"/>
</linearGradient>
<linearGradient id="paint12_linear_393_8247" x1="928.317" y1="259.11" x2="928.317" y2="0" gradientUnits="userSpaceOnUse">
<stop stop-color="#834F00"/>
<stop offset="0.52" stop-color="#FFE594"/>
<stop offset="1" stop-color="#835A1F"/>
</linearGradient>
<linearGradient id="paint13_linear_393_8247" x1="1096.72" y1="259.13" x2="1096.72" y2="44.12" gradientUnits="userSpaceOnUse">
<stop stop-color="#834F00"/>
<stop offset="0.62" stop-color="#FFE594"/>
<stop offset="1" stop-color="#835A1F"/>
</linearGradient>
<linearGradient id="paint14_linear_393_8247" x1="1210.3" y1="259.13" x2="1210.3" y2="44.12" gradientUnits="userSpaceOnUse">
<stop stop-color="#834F00"/>
<stop offset="0.62" stop-color="#FFE594"/>
<stop offset="1" stop-color="#835A1F"/>
</linearGradient>
<linearGradient id="paint15_linear_393_8247" x1="1343.41" y1="259.11" x2="1343.41" y2="44.1" gradientUnits="userSpaceOnUse">
<stop stop-color="#834F00"/>
<stop offset="0.62" stop-color="#FFE594"/>
<stop offset="1" stop-color="#835A1F"/>
</linearGradient>
<linearGradient id="paint16_linear_393_8247" x1="363.68" y1="260.07" x2="363.68" y2="44.89" gradientUnits="userSpaceOnUse">
<stop stop-color="#834F00"/>
<stop offset="0.62" stop-color="#FFE594"/>
<stop offset="1" stop-color="#835A1F"/>
</linearGradient>
<linearGradient id="paint17_linear_393_8247" x1="27.52" y1="235.55" x2="238.28" y2="235.55" gradientUnits="userSpaceOnUse">
<stop stop-color="#20190D" stop-opacity="0"/>
<stop offset="0.33" stop-color="#57421E" stop-opacity="0.5"/>
<stop offset="0.62" stop-color="#FFD056"/>
<stop offset="0.85" stop-color="#3C2E17" stop-opacity="0.5"/>
<stop offset="1" stop-color="#231C10" stop-opacity="0"/>
</linearGradient>
<linearGradient id="paint18_linear_393_8247" x1="474.899" y1="259.261" x2="627.29" y2="259.261" gradientUnits="userSpaceOnUse">
<stop stop-color="#20190D" stop-opacity="0"/>
<stop offset="0.33" stop-color="#57421E" stop-opacity="0.5"/>
<stop offset="0.62" stop-color="#FFD056"/>
<stop offset="0.85" stop-color="#3C2E17" stop-opacity="0.5"/>
<stop offset="1" stop-color="#231C10" stop-opacity="0"/>
</linearGradient>
<linearGradient id="paint19_linear_393_8247" x1="638.09" y1="206.14" x2="842.71" y2="206.14" gradientUnits="userSpaceOnUse">
<stop stop-color="#20190D" stop-opacity="0"/>
<stop offset="0.33" stop-color="#57421E" stop-opacity="0.5"/>
<stop offset="0.62" stop-color="#FFD056"/>
<stop offset="0.85" stop-color="#3C2E17" stop-opacity="0.5"/>
<stop offset="1" stop-color="#231C10" stop-opacity="0"/>
</linearGradient>
<linearGradient id="paint20_linear_393_8247" x1="831.96" y1="206.26" x2="1025.2" y2="206.26" gradientUnits="userSpaceOnUse">
<stop stop-color="#20190D" stop-opacity="0"/>
<stop offset="0.33" stop-color="#57421E" stop-opacity="0.5"/>
<stop offset="0.62" stop-color="#FFD056"/>
<stop offset="0.85" stop-color="#3C2E17" stop-opacity="0.5"/>
<stop offset="1" stop-color="#231C10" stop-opacity="0"/>
</linearGradient>
<linearGradient id="paint21_linear_393_8247" x1="1067.61" y1="132.75" x2="1180.12" y2="132.75" gradientUnits="userSpaceOnUse">
<stop stop-color="#20190D" stop-opacity="0"/>
<stop offset="0.33" stop-color="#57421E" stop-opacity="0.5"/>
<stop offset="0.62" stop-color="#FFD056"/>
<stop offset="0.85" stop-color="#3C2E17" stop-opacity="0.5"/>
<stop offset="1" stop-color="#231C10" stop-opacity="0"/>
</linearGradient>
<linearGradient id="paint22_linear_393_8247" x1="1015.51" y1="258.42" x2="1079.51" y2="258.42" gradientUnits="userSpaceOnUse">
<stop stop-color="#20190D" stop-opacity="0"/>
<stop offset="0.33" stop-color="#57421E" stop-opacity="0.5"/>
<stop offset="0.62" stop-color="#FFD056"/>
<stop offset="0.85" stop-color="#3C2E17" stop-opacity="0.5"/>
<stop offset="1" stop-color="#231C10" stop-opacity="0"/>
</linearGradient>
<linearGradient id="paint23_linear_393_8247" x1="1243.03" y1="259.11" x2="1177.55" y2="259.11" gradientUnits="userSpaceOnUse">
<stop stop-color="#20190D" stop-opacity="0"/>
<stop offset="0.33" stop-color="#57421E" stop-opacity="0.5"/>
<stop offset="0.62" stop-color="#FFD056"/>
<stop offset="0.85" stop-color="#3C2E17" stop-opacity="0.5"/>
<stop offset="1" stop-color="#231C10" stop-opacity="0"/>
</linearGradient>
<linearGradient id="paint24_linear_393_8247" x1="1243.63" y1="259.09" x2="1288.23" y2="259.09" gradientUnits="userSpaceOnUse">
<stop stop-color="#20190D" stop-opacity="0"/>
<stop offset="0.33" stop-color="#57421E" stop-opacity="0.5"/>
<stop offset="0.62" stop-color="#FFD056"/>
<stop offset="0.85" stop-color="#3C2E17" stop-opacity="0.5"/>
<stop offset="1" stop-color="#231C10" stop-opacity="0"/>
</linearGradient>
<linearGradient id="paint25_linear_393_8247" x1="1334.65" y1="217.34" x2="1446.24" y2="217.34" gradientUnits="userSpaceOnUse">
<stop stop-color="#20190D" stop-opacity="0"/>
<stop offset="0.33" stop-color="#57421E" stop-opacity="0.5"/>
<stop offset="0.62" stop-color="#FFD056"/>
<stop offset="0.85" stop-color="#3C2E17" stop-opacity="0.5"/>
<stop offset="1" stop-color="#231C10" stop-opacity="0"/>
</linearGradient>
<linearGradient id="paint26_linear_393_8247" x1="250.46" y1="205.34" x2="476.93" y2="205.34" gradientUnits="userSpaceOnUse">
<stop stop-color="#20190D" stop-opacity="0"/>
<stop offset="0.33" stop-color="#57421E" stop-opacity="0.5"/>
<stop offset="0.62" stop-color="#FFD056"/>
<stop offset="0.85" stop-color="#3C2E17" stop-opacity="0.5"/>
<stop offset="1" stop-color="#231C10" stop-opacity="0"/>
</linearGradient>
<clipPath id="clip0_393_8247">
<rect width="1448.24" height="273.02" fill="white"/>
</clipPath>
</defs>
</svg>
