<svg width="250" height="87" viewBox="0 0 250 87" fill="none" xmlns="http://www.w3.org/2000/svg">
<g clip-path="url(#clip0_3_698)">
<path d="M43.38 86.76C67.3381 86.76 86.76 67.3381 86.76 43.38C86.76 19.4219 67.3381 0 43.38 0C19.4219 0 0 19.4219 0 43.38C0 67.3381 19.4219 86.76 43.38 86.76Z" fill="url(#paint0_linear_3_698)"/>
<path d="M65.6602 17.43C66.7802 16.7 67.5202 15.65 67.8102 14.21C68.0902 12.82 67.8102 11.6 67.1602 10.52L67.7602 9.69005C67.3002 9.35005 66.8202 9.03005 66.3502 8.71005C66.6302 8.31005 66.9002 7.93005 67.1602 7.55005C67.3502 7.28005 67.3602 7.07005 66.9902 6.95005C66.2902 6.72005 65.6102 6.40005 64.8902 6.26005C63.8202 6.06005 62.7202 5.98005 61.6502 5.85005C61.9202 5.22005 62.2202 4.50005 62.5402 3.75005C60.7302 3.56005 59.0502 3.75005 57.4502 4.24005C57.0202 4.09005 56.6002 3.94005 56.1702 3.80005L55.8302 4.86005C55.1402 5.18005 54.4602 5.57005 53.7802 6.01005C54.0202 5.29005 54.2202 4.73005 54.4702 3.99005C53.4102 4.06005 52.4902 4.12005 51.5702 4.20005C51.2302 4.23005 50.8802 4.44005 50.5602 4.39005C48.9802 4.14005 47.5302 4.43005 46.1402 5.19005C46.0002 5.27005 45.7602 5.28005 45.6202 5.22005C44.8502 4.88005 44.0802 4.70005 43.3302 4.69005V1.80005C38.9402 1.80005 34.6202 2.49005 30.4802 3.84005L31.7202 7.64005C31.6302 7.70005 31.5302 7.76005 31.4402 7.83005C30.4102 8.62005 30.4102 8.58005 29.0802 8.80005C27.5202 9.06005 26.1802 9.73005 25.4202 11.18C25.1202 11.75 24.7202 12.15 24.2602 12.57C23.2402 13.49 22.8302 14.68 22.8502 16C14.5402 22.25 9.16016 32.1901 9.16016 43.3601C9.16016 62.23 24.5102 77.59 43.3902 77.59C62.2702 77.59 77.6202 62.2401 77.6202 43.3601C77.6202 32.9901 72.9802 23.69 65.6702 17.41L65.6602 17.43ZM19.9702 21.09C19.5702 22.4601 19.5502 23.9501 19.9702 25.58C20.0302 25.8 19.9202 26.07 19.8802 26.31C19.8202 26.31 19.7702 26.31 19.7102 26.31C19.1402 25.36 18.5802 24.4 17.9702 23.38C18.6002 22.59 19.2602 21.82 19.9602 21.09H19.9702ZM11.0302 43.3801C11.0302 37.0301 12.8802 31.1101 16.0502 26.1101C15.9002 26.4601 15.7702 26.83 15.6702 27.21C14.6002 31.19 15.2002 34.82 18.0702 38L21.4202 40.9501C22.1402 40.64 22.3602 40.76 22.7702 41.32C23.2702 41.99 23.8102 42.66 24.4302 43.21C25.3802 44.0401 25.8802 45.12 25.6102 46.07C25.3302 47.05 25.4902 48 26.3302 48.5801C27.0202 49.0601 26.9702 49.61 26.9002 50.26C26.8802 50.49 26.8502 50.71 26.8202 50.94C26.5402 53.09 26.1402 55.21 25.2302 57.2001C25.1202 57.4501 24.9702 57.68 24.8202 57.9501C23.8402 57.3 22.8102 57.0701 21.7402 57.2401C19.4002 57.6001 17.8202 59.68 18.0402 62C18.2802 64.4001 20.1802 66.08 22.5702 66.03C22.7502 66.03 22.9802 66.1301 23.0902 66.26C24.6102 68.04 26.0902 69.87 27.6402 71.63C17.7402 66.09 11.0402 55.51 11.0402 43.39L11.0302 43.3801ZM51.3502 74.73C52.8802 74.34 54.3602 73.84 55.7902 73.24C54.3602 73.84 52.8702 74.34 51.3502 74.73ZM55.8002 73.24C55.0302 72.28 53.9902 71.59 52.7902 71.07C52.4602 70.92 52.3002 70.72 52.2302 70.39C52.0002 69.29 51.6602 68.21 51.5502 67.1C51.3102 64.76 51.7802 62.5601 53.4102 60.7701C54.2002 59.9001 54.4702 58.9501 54.2802 57.82C54.1502 57.01 54.0602 56.2001 53.9402 55.3301C56.3802 55.3301 58.7602 55.27 61.1402 55.35C63.4002 55.42 65.1802 53.8101 65.0502 51.5601C65.0002 50.6301 64.6802 49.71 64.4302 48.8C64.2902 48.31 64.2402 47.84 64.6102 47.46C65.1202 46.93 65.1302 46.35 64.9402 45.69C64.9002 45.54 64.9702 45.26 65.0802 45.19C65.6702 44.84 65.7602 44.34 65.7202 43.71C65.6702 42.99 65.7002 42.2601 65.7102 41.5401C65.7102 41.41 65.7402 41.2701 65.7502 41.18C66.5002 41.12 67.2102 41.1 67.9002 41.01C68.9202 40.87 69.8102 39.8601 69.3102 38.5801C68.0302 35.2601 66.8202 31.92 65.5302 28.6C65.2602 27.91 65.2702 27.4 65.8102 26.91C66.1102 26.64 66.1002 26.35 66.0002 25.97C65.3702 23.54 64.7702 21.09 64.1602 18.64C71.2202 24.58 75.7202 33.4701 75.7202 43.4001C75.7202 56.84 67.4802 68.3801 55.7902 73.26L55.8002 73.24Z" fill="white"/>
<path d="M3.82982 56.26C5.17982 60.41 7.16982 64.31 9.74982 67.84L13.6998 64.96C11.4198 61.84 9.66982 58.4 8.46982 54.74L3.81982 56.25L3.82982 56.26Z" fill="white"/>
<path d="M18.96 77.0401C22.5 79.6101 26.4 81.6001 30.55 82.9501L32.06 78.3001C28.4 77.1101 24.96 75.3601 21.83 73.0901L18.96 77.0401Z" fill="white"/>
<path d="M21.77 13.71L18.89 9.76001C15.36 12.33 12.27 15.43 9.70996 18.97L13.66 21.84C15.93 18.72 18.65 15.98 21.77 13.71Z" fill="white"/>
<path d="M6.68004 43.3801C6.68004 39.5201 7.28004 35.7101 8.45004 32.0801L3.80004 30.5801C2.47004 34.7001 1.79004 39.0101 1.79004 43.3901V43.4301H6.68004V43.3901V43.3801Z" fill="white"/>
<path d="M80.08 43.3V43.3801C80.08 47.2601 79.48 51.0701 78.29 54.7201L82.94 56.23C84.28 52.09 84.96 47.7701 84.96 43.3801V43.3H80.07H80.08Z" fill="white"/>
<path d="M43.3999 80.07V84.96C47.7899 84.96 52.1099 84.27 56.2499 82.93L54.7399 78.28C51.0899 79.47 47.2799 80.07 43.3999 80.07Z" fill="white"/>
<path d="M76.98 18.8701L73.04 21.7501C75.32 24.8701 77.08 28.3101 78.28 31.9601L82.92 30.4401C81.56 26.2901 79.57 22.4001 76.98 18.8601V18.8701Z" fill="white"/>
<path d="M64.96 73.0599L67.84 77.0099C71.37 74.4399 74.46 71.3499 77.03 67.8099L73.08 64.9399C70.81 68.0599 68.08 70.7899 64.96 73.0599Z" fill="white"/>
<path d="M69.31 38.56C68.03 35.24 66.82 31.9 65.53 28.58C65.26 27.89 65.27 27.38 65.81 26.89C66.11 26.62 66.1 26.33 66 25.95C65.33 23.38 64.7 20.79 64.05 18.19C66.08 17.53 67.39 16.26 67.8 14.21C68.21 12.18 67.44 10.5 66.05 9.13002C66.45 8.56002 66.8 8.06002 67.15 7.55002C67.34 7.28002 67.35 7.07002 66.98 6.95002C66.28 6.72002 65.6 6.40002 64.88 6.26002C63.81 6.06002 62.71 5.98002 61.64 5.85002C61.91 5.22002 62.21 4.50002 62.53 3.75002C59.29 3.41002 56.47 4.22002 53.76 6.01002C54 5.29002 54.2 4.73002 54.45 3.99002C53.39 4.06002 52.47 4.12002 51.55 4.20002C51.21 4.23002 50.86 4.44002 50.54 4.39002C48.96 4.14002 47.51 4.43002 46.12 5.19002C45.98 5.27002 45.74 5.28002 45.6 5.22002C43.84 4.43002 42.13 4.49002 40.46 5.48002C40.36 5.54002 40.18 5.58002 40.09 5.53002C39.13 4.95002 38.08 5.02002 37.05 5.13002C35.9 5.25002 34.9 5.75002 34.1 6.63002C33.97 6.77002 33.76 6.89002 33.57 6.92002C32.76 7.02002 32.05 7.36002 31.41 7.85002C30.38 8.64002 30.38 8.60002 29.05 8.82002C27.49 9.08002 26.15 9.75002 25.39 11.2C25.09 11.77 24.69 12.17 24.23 12.59C23.14 13.58 22.74 14.87 22.83 16.3C22.85 16.63 22.78 16.82 22.56 17.03C20.08 19.39 19.05 22.19 19.96 25.59C20.02 25.81 19.91 26.08 19.87 26.32C19.81 26.32 19.76 26.32 19.7 26.32C19.13 25.36 18.56 24.4 17.94 23.36C16.8 24.48 16.03 25.75 15.64 27.21C14.57 31.19 15.17 34.82 18.04 38L21.39 40.95C22.11 40.64 22.33 40.76 22.74 41.32C23.24 41.99 23.78 42.66 24.4 43.21C25.35 44.04 25.85 45.12 25.58 46.07C25.3 47.05 25.46 48 26.3 48.58C26.99 49.06 26.94 49.61 26.87 50.26C26.85 50.49 26.82 50.71 26.79 50.94C26.51 53.09 26.11 55.21 25.2 57.2C25.09 57.45 24.94 57.68 24.79 57.95C23.81 57.3 22.78 57.07 21.71 57.24C19.37 57.6 17.79 59.68 18.01 62C18.25 64.4 20.15 66.08 22.54 66.03C22.72 66.03 22.95 66.13 23.06 66.26C24.58 68.04 26.06 69.87 27.61 71.63C28.96 72.39 30.38 73.05 31.84 73.61C31.02 72.77 30.22 71.9 29.43 71.03C28 69.45 26.64 67.8 25.26 66.18C25.11 66.01 24.98 65.82 24.8 65.58C24.99 65.45 25.15 65.34 25.4 65.16C26.21 66 27.07 66.91 27.96 67.79C28.09 67.92 28.33 68.02 28.49 67.99C28.99 67.89 29.08 67.59 28.72 67.21C28.02 66.46 27.31 65.73 26.61 64.98C26.41 64.76 26.23 64.53 26.03 64.3C26.2 64.07 26.35 63.88 26.51 63.66C27.74 64.63 28.93 65.58 30.14 66.52C34.06 69.56 37.95 72.66 41.94 75.62C41.97 75.65 42.01 75.67 42.04 75.69C42.47 75.71 42.91 75.72 43.34 75.72C44 75.72 44.66 75.69 45.31 75.65C43.18 74.27 41.16 72.71 39.13 71.17C39.16 71.13 39.18 71.08 39.21 71.04C41.64 72.55 44.07 74.06 46.5 75.57C47 75.52 47.5 75.46 48 75.39C47.54 75.11 47.08 74.83 46.62 74.54C42.88 72.14 39.01 69.97 35.1 67.87C34.07 67.31 33.11 66.62 32.11 65.99C32.13 65.94 32.15 65.9 32.16 65.85C32.65 66.02 33.15 66.17 33.64 66.35C37.86 67.95 41.9 69.95 45.89 72.07C47.61 72.98 49.33 73.89 51.05 74.79C51.91 74.58 52.75 74.33 53.57 74.06C52.48 73.49 51.38 72.92 50.3 72.33C44.65 69.29 38.96 66.33 32.93 64.09C31.15 63.43 29.35 62.83 27.54 62.25C27.01 62.08 26.58 61.93 26.66 61.26C26.68 61.1 26.6 60.92 26.53 60.63C27.17 60.8 27.73 60.95 28.29 61.11C34.98 63.05 41.1 66.18 47 69.82C49.27 71.22 51.56 72.58 53.84 73.96C54.49 73.74 55.14 73.5 55.77 73.23C55 72.27 53.96 71.58 52.76 71.06C52.43 70.91 52.27 70.71 52.2 70.38C51.97 69.28 51.63 68.2 51.52 67.09C51.28 64.75 51.75 62.55 53.38 60.76C54.17 59.89 54.44 58.94 54.25 57.81C54.12 57 54.03 56.19 53.91 55.32C56.35 55.32 58.73 55.26 61.11 55.34C63.37 55.41 65.15 53.8 65.02 51.55C64.97 50.62 64.65 49.7 64.4 48.79C64.26 48.3 64.21 47.83 64.58 47.45C65.09 46.92 65.1 46.34 64.91 45.68C64.87 45.53 64.94 45.25 65.05 45.18C65.64 44.83 65.73 44.33 65.69 43.7C65.64 42.98 65.67 42.25 65.68 41.53C65.68 41.4 65.71 41.26 65.72 41.17C66.47 41.11 67.18 41.09 67.87 41C68.89 40.86 69.78 39.85 69.28 38.57L69.31 38.56ZM19.77 34.69C19.72 34.71 19.67 34.73 19.61 34.75C19.54 34.66 19.48 34.54 19.38 34.5C19.23 34.44 19.04 34.38 18.89 34.42C18.78 34.45 18.66 34.65 18.66 34.78C18.66 35.16 18.73 35.54 18.77 35.89C17.16 34.58 16.14 29.87 17.78 26.57C19.14 29.16 19.94 31.8 19.75 34.68L19.77 34.69ZM22.32 64.08C20.93 64.08 19.84 63.01 19.83 61.63C19.82 60.15 20.92 59.1 22.47 59.09C23.77 59.09 24.91 60.21 24.91 61.5C24.91 63.02 23.85 64.07 22.32 64.08ZM65.14 10.9C66.19 12.01 66.32 13.21 65.9 14.47C65.54 15.54 64.55 16.26 63.43 16.31C64.36 15.69 65.04 14.96 65.33 13.95C65.62 12.96 65.46 11.98 65.14 10.9ZM62.93 14.75C61.93 15.47 60.86 15.55 59.74 15.05C58.9 14.67 58.26 14.07 57.67 13.25C59.78 12.9 61.87 12.84 63.48 11.37C64.26 12.29 63.97 14 62.93 14.75ZM59.93 5.57002C58.4 8.18002 56.3 10.01 53.25 10.63C53.21 10.52 53.18 10.45 53.15 10.37C53.12 10.29 53.09 10.21 53.02 10.03C52.5 10.25 52.01 10.45 51.46 10.68C53.55 7.69002 56.42 6.10002 59.93 5.57002ZM51.93 5.87002C51.84 8.10002 47.9 12.2 45.56 12.37C46.02 11.98 46.39 11.66 46.74 11.37C46.33 10.75 46.16 10.74 45.76 11.16C45.12 11.83 44.46 12.5 43.81 13.16C43.7 13.28 43.56 13.37 43.38 13.41C45.29 9.83002 47.93 7.09002 51.93 5.87002ZM42.68 6.49002C43.61 6.41002 44.5 6.54002 45.33 7.00002C45.51 7.10002 45.73 7.11002 46.01 7.18002C45.59 7.57002 45.23 7.95002 44.82 8.27002C44.72 8.35002 44.43 8.32002 44.33 8.23002C43.93 7.85002 43.46 7.82002 43 7.98002C41.96 8.35002 40.94 8.77002 39.91 9.17002C39.75 9.23002 39.6 9.30002 39.41 9.37002C39.62 8.23002 41.02 6.63002 42.68 6.49002ZM36.85 15.63C36.19 16.36 35.56 17.11 34.91 17.85C34.67 18.12 34.42 18.37 34.12 18.59C35.66 14.53 38.39 11.63 42.52 9.86002C41.42 13.19 39.53 15.64 36.55 17.18C36.5 17.14 36.45 17.1 36.4 17.06C36.57 16.85 36.73 16.63 36.9 16.42C37.02 16.27 37.16 16.12 37.24 15.95C37.3 15.82 37.27 15.65 37.28 15.5C37.13 15.54 36.93 15.53 36.84 15.63H36.85ZM37.63 9.03002C37.52 9.70002 37.47 10.41 37.27 11.07C37.17 11.4 36.8 11.65 36.55 11.94C36.23 10.54 36.69 9.50002 37.63 9.03002ZM30.86 11.83C31.24 10.08 32.62 8.81002 34.41 8.50002C34.57 8.47002 34.73 8.32002 34.85 8.18002C35.72 7.19002 36.81 6.72002 38.13 6.80002C38.28 6.80002 38.44 6.86002 38.59 6.89002C37.21 7.39002 36.18 8.28002 35.75 9.65002C35.36 10.91 35.19 12.24 34.91 13.62C34.78 13.2 34.66 12.8 34.54 12.4C34.5 12.25 34.53 12.06 34.45 11.94C34.34 11.75 34.17 11.5 34 11.48C33.81 11.46 33.52 11.61 33.4 11.78C33.27 11.96 33.22 12.26 33.27 12.48C33.43 13.23 33.06 13.57 32.35 13.76C32.21 12.55 32.29 11.4 33 10.35C31.74 11.13 31.46 12.47 31.08 13.83C30.66 13.14 30.71 12.49 30.85 11.84L30.86 11.83ZM32.97 15.69C32.38 19.16 30.75 21.95 28.07 24.12C28.02 24.09 27.96 24.06 27.91 24.03C28.13 23.65 28.31 23.24 28.57 22.88C28.85 22.5 28.81 22.25 28.33 22.01C27.42 23.08 26.84 24.35 26.18 25.62C26.35 22.26 29.98 17.13 32.96 15.68L32.97 15.69ZM24.67 15.36C24.86 15.76 25.04 16.15 25.24 16.53C25.33 16.7 25.46 16.85 25.58 17C26.41 17.94 27.16 17.92 28.02 16.88C27.15 16.45 26.51 15.8 26.31 14.83C26.13 13.98 26.25 13.16 26.65 12.38C27.24 11.25 28.56 10.5 29.72 10.73C28.36 11.39 27.91 12.46 28.26 13.8C28.51 14.78 29.24 15.3 30.17 15.38C29.34 16.33 28.53 17.31 27.64 18.23C27.45 18.43 26.98 18.47 26.66 18.42C25.09 18.17 24.26 16.71 24.67 15.36ZM22.51 20.6C23.47 19.68 25.31 19.34 26.45 19.87C26.05 20.72 25.65 21.57 25.22 22.5C25.09 22.31 24.99 22.16 24.88 22.01C24.56 21.54 24.32 21.46 23.89 21.84C23.04 22.59 22.23 23.4 21.43 24.16C21.05 23.25 21.54 21.53 22.5 20.61L22.51 20.6ZM20.95 28.52C21.45 26.9 22.41 25.57 23.62 24.41C23.69 24.34 23.79 24.31 23.9 24.24C24.21 27.47 23.43 30.33 21.52 32.87C21.47 32.86 21.42 32.85 21.37 32.83C21.48 32.37 21.59 31.91 21.71 31.45C21.77 31.23 21.92 31.02 21.93 30.81C21.93 30.54 21.91 30.2 21.75 30.02C21.65 29.91 21.28 30.02 20.95 30.04C20.76 29.62 20.78 29.07 20.95 28.52ZM21.62 37C21.43 37.3 21.23 37.59 21.03 37.9C20.58 37.8 20.61 37.58 20.78 37.31C21.91 35.45 22.99 33.55 24.18 31.72C28.98 24.36 35.54 19.03 43.44 15.31C46.68 13.78 50.09 12.73 53.56 11.88C55.69 11.36 57.81 10.76 59.92 10.17C60.23 10.08 60.56 9.86002 60.76 9.61002C61.02 9.29002 61.05 8.92002 60.49 8.79002C60.38 8.76002 60.28 8.68002 60.17 8.63002C60.78 7.78002 62.7 7.53002 64.62 8.06002C64.57 8.17002 64.53 8.28002 64.47 8.37002C63.35 9.77002 61.86 10.61 60.14 11.03C57.63 11.65 55.11 12.21 52.61 12.84C48.42 13.9 44.38 15.38 40.6 17.52C37.43 19.32 34.45 21.36 31.78 23.86C29.59 25.92 27.5 28.06 25.79 30.54C24.33 32.66 22.99 34.86 21.6 37.02L21.62 37ZM43.15 32.02C42.12 31.35 42.3 29.06 43.68 28.83C43.17 29.84 42.84 30.86 43.15 32.02ZM34.31 26.34C33.67 26.38 33.04 26.5 32.34 26.6C32.59 26.3 32.9 26.1 32.93 25.85C32.96 25.64 32.69 25.38 32.55 25.12C34 23.97 38.34 23.91 40.06 25.05C39.18 25.93 36.79 27.03 34.84 27.18C34.91 26.99 34.99 26.77 35.06 26.55C34.81 26.47 34.55 26.32 34.3 26.33L34.31 26.34ZM39.28 20.54C38.99 20.52 38.69 20.46 38.31 20.4C39.96 19.22 44.22 19.42 46.55 20.89C45.31 22.4 38.86 22.79 36.61 21.74C37.58 21.69 38.42 21.64 39.26 21.6C39.56 21.58 39.89 21.63 39.92 21.19C39.94 20.74 39.69 20.57 39.28 20.54ZM38.94 27.87C39.06 27.62 40.47 27.27 40.73 27.4C40.99 27.54 41.26 27.68 41.53 27.81C41.8 27.94 42.07 28.05 42.34 28.16C41.19 30.51 41.72 32.23 42.94 33.33C41.8 32.88 41.08 32.07 40.9 30.83C40.86 30.57 40.79 30.46 40.53 30.35C39.54 29.94 39.11 29.1 38.91 28.11C38.89 28.03 38.91 27.93 38.94 27.85V27.87ZM41.51 26.45C42.04 26.14 42.59 25.82 43.23 25.44C42.6 25 42.11 24.66 41.56 24.28C42.33 24.15 42.95 24.1 43.62 24.52C45.25 25.54 46.41 25.62 48.44 25.01C47.27 26.85 44.15 27.75 41.51 26.44V26.45ZM45.64 23.42C47.24 23.02 48.51 22.24 49.22 20.72C49.55 21.42 49.25 22.42 48.57 23.03C47.87 23.66 46.46 23.87 45.64 23.42ZM44.78 17.54C44.78 17.54 44.78 17.45 44.78 17.4C45.45 17.43 46.12 17.49 46.78 17.48C47 17.48 47.34 17.36 47.41 17.2C47.56 16.87 47.33 16.61 47.01 16.45C46.88 16.39 46.76 16.33 46.62 16.26C48.68 15.37 52.56 16.02 54.57 17.6C51.24 18.95 48 18.82 44.77 17.53L44.78 17.54ZM28.92 38.1C29.08 37.88 29.22 37.67 29.42 37.4C29.83 37.84 30.21 38.26 30.68 38.77C30.03 38.52 29.49 38.32 28.92 38.11V38.1ZM31.92 42.08C32.12 42.72 32.06 43.55 31.73 44.36C31.59 41.22 29.37 40.29 26.93 39.6C27.4 38.97 27.89 38.87 28.56 39.1C30.12 39.62 31.41 40.4 31.92 42.09V42.08ZM30.47 30.43C30.27 30.72 30.06 31.02 29.95 31.35C29.71 32.09 29.16 32.46 28.51 32.78C27.7 33.18 26.89 33.53 25.94 33.49C26.43 33.16 26.95 32.87 27.41 32.49C27.66 32.29 27.95 31.96 27.95 31.69C27.95 31.5 27.51 31.3 27.25 31.09C27.72 30.22 30.39 28.74 31.77 28.62C31.34 29.22 30.9 29.81 30.48 30.41L30.47 30.43ZM22.06 38.94C22.48 38.68 22.8 38.5 23.1 38.29C23.38 38.09 23.69 37.89 23.89 37.62C24.4 36.95 24.33 36.77 23.49 36.56C25.02 35.03 27.1 34.92 29.02 34.3C28.24 36.75 24.78 39.09 22.05 38.93L22.06 38.94ZM24.89 41.32C24.75 41.17 24.61 41 24.5 40.82C24.45 40.74 24.47 40.61 24.46 40.5C24.57 40.5 24.72 40.47 24.79 40.52C25.57 41.25 26.57 41.47 27.55 41.75C29.6 42.34 30.68 44.62 29.8 46.44C29.51 47.04 29.08 47.37 28.5 47.39C28.72 46.76 29.04 46.16 29.13 45.53C29.32 44.1 28.61 43.05 27.24 42.56C26.39 42.26 25.53 42 24.89 41.31V41.32ZM27.42 45.32C27.34 44.87 27.11 44.45 26.94 43.99C27.97 44.32 28.58 45.99 27.43 46.81C27.43 46.25 27.49 45.77 27.41 45.31L27.42 45.32ZM51.64 59.88C50.92 59.24 50.2 58.61 49.48 57.96C47.23 55.93 44.98 53.89 42.73 51.85C42.64 51.77 42.56 51.64 42.45 51.61C42.26 51.57 42.05 51.58 41.85 51.58C41.87 51.78 41.83 52.04 41.93 52.16C42.48 52.73 43.06 53.27 43.64 53.82C45.87 55.9 48.11 57.97 50.34 60.05C50.43 60.13 50.51 60.23 50.62 60.29C51.16 60.6 51.11 60.97 50.71 61.45C49.89 60.7 49.07 59.96 48.25 59.21C46.48 57.59 44.71 55.97 42.94 54.35C42.74 54.17 42.53 53.94 42.26 54.21C42 54.49 42.19 54.72 42.41 54.93C44.49 56.89 46.56 58.84 48.64 60.8C49.04 61.17 49.4 61.59 49.83 61.92C50.25 62.25 50.26 62.59 49.97 63.08C49.45 62.61 48.95 62.16 48.45 61.71C46.68 60.09 44.92 58.47 43.14 56.86C43.02 56.76 42.78 56.79 42.6 56.76C42.61 56.99 42.54 57.32 42.66 57.45C43.34 58.16 44.07 58.84 44.78 59.51C46.32 60.96 47.85 62.42 49.41 63.84C49.81 64.21 49.61 64.61 49.69 65.14C49.46 64.94 49.32 64.82 49.19 64.7C47.31 62.97 45.42 61.24 43.53 59.52C43.35 59.36 43.18 59.05 42.88 59.36C42.6 59.65 42.8 59.88 43.01 60.08C44.85 61.83 46.7 63.57 48.54 65.32C48.68 65.45 48.81 65.61 48.97 65.71C49.55 66.08 49.71 66.61 49.61 67.34C49.32 67.09 49.06 66.88 48.81 66.66C47.17 65.16 45.54 63.65 43.91 62.14C43.52 61.78 43.26 61.76 43.18 62.1C43.14 62.27 43.25 62.55 43.38 62.68C44.98 64.22 46.6 65.74 48.21 67.27C48.67 67.71 49.17 68.1 49.6 68.57C49.83 68.82 49.96 69.17 50.13 69.48C50.08 69.52 50.02 69.57 49.97 69.61C49.48 69.23 48.96 68.88 48.49 68.47C47.03 67.19 45.6 65.88 44.15 64.6C44.04 64.5 43.86 64.47 43.71 64.41C43.69 64.6 43.64 64.8 43.68 64.98C43.74 65.24 43.86 65.49 43.91 65.78C38.44 62.69 32.7 60.33 26.63 58.88C26.77 57.95 26.79 57.94 27.56 58.18C28.38 58.43 29.21 58.67 30.03 58.94C30.38 59.05 30.67 59.06 30.78 58.64C30.88 58.25 30.59 58.18 30.3 58.09C29.28 57.77 28.27 57.44 27.26 57.12C27.29 56.46 27.35 56.4 27.96 56.57C28.73 56.79 29.49 57.07 30.27 57.29C30.58 57.38 31 57.69 31.17 57.09C31.33 56.54 30.89 56.5 30.54 56.39C29.61 56.09 28.68 55.78 27.75 55.48C27.83 55.23 27.89 55.02 27.97 54.75C28.84 55.01 29.71 55.27 30.57 55.53C30.72 55.58 30.86 55.64 31.02 55.69C31.31 55.77 31.55 55.69 31.64 55.38C31.73 55.07 31.59 54.87 31.29 54.77C30.49 54.52 29.69 54.27 28.88 54.02C28.65 53.95 28.41 53.87 28.13 53.78C28.18 53.54 28.23 53.31 28.29 53.02C29.34 53.35 30.34 53.67 31.34 53.97C31.54 54.03 31.83 54.3 31.96 53.82C32.07 53.42 31.98 53.19 31.58 53.07C30.55 52.74 29.52 52.41 28.44 52.06C28.48 51.83 28.52 51.61 28.57 51.36C29.7 51.69 30.78 51.99 31.84 52.33C32.17 52.44 32.34 52.38 32.45 52.07C32.56 51.73 32.44 51.54 32.1 51.44C31.18 51.17 30.26 50.88 29.34 50.59C28.67 50.38 28.67 50.38 28.82 49.58C29.99 49.94 31.16 50.29 32.33 50.64C32.76 50.77 33 50.61 32.94 50.18C32.92 50.02 32.69 49.82 32.52 49.75C31.78 49.48 31.03 49.25 30.28 49.01C30.17 48.97 30.06 48.92 29.94 48.87C30.49 48.48 31.02 48.37 31.63 48.66C31.99 48.83 32.4 48.92 32.79 48.97C32.96 48.99 33.24 48.86 33.31 48.72C33.43 48.48 33.39 48.2 33.03 48.11C32.55 47.98 32.07 47.83 31.54 47.68C31.75 47.42 31.94 47.2 32.12 46.96C32.48 47.11 32.79 47.27 33.13 47.36C33.28 47.4 33.62 47.28 33.62 47.22C33.62 47.01 33.59 46.71 33.45 46.6C33.23 46.43 32.91 46.38 32.58 46.26C32.7 46.02 32.82 45.8 32.92 45.59C33.33 45.52 33.77 46.17 34.05 45.54C34.31 44.95 33.59 45.02 33.36 44.67C33.41 44.49 33.48 44.26 33.55 44.04C34.24 44.2 34.37 44.13 34.3 43.69C34.28 43.59 34.23 43.49 34.17 43.42C33.98 43.21 33.69 43.05 33.58 42.81C33.47 42.56 33.52 42.24 33.48 41.8C35.16 43.75 37.17 44.92 39.65 45.21C40.02 46.61 40.49 47.97 41.41 49.08C42.31 50.16 43.29 51.17 44.31 52.14C46.75 54.46 49.24 56.73 51.71 59.01C52.07 59.34 52.03 59.59 51.58 59.85L51.64 59.88ZM50.91 56.89C51.7 56.68 52.73 57.58 52.62 58.45C52.04 57.92 51.49 57.42 50.91 56.89ZM65.11 39.2C64.42 39.24 63.73 39.36 63.04 39.47C62.64 39.54 62.59 39.27 62.57 39.01C62.55 38.68 62.59 38.35 62.61 38.03C61.88 37.91 61.19 38.56 61.13 39.4C61.05 40.46 61.75 41.31 62.98 41.64C63.32 41.73 63.66 41.81 64 41.89V43.42C62.91 43.32 62.1 43.96 61.21 44.4C60.86 44.57 60.56 44.81 60.08 44.63C59.72 44.5 59.48 44.85 59.41 45.21C59.33 45.64 59.58 46.07 59.95 46.09C60.2 46.11 60.47 46.04 60.71 45.95C61.15 45.77 61.55 45.48 62.01 45.37C62.41 45.27 62.96 45.21 63.25 45.41C63.47 45.57 63.39 46.16 63.44 46.59C61.88 46.35 60.8 47.2 60.82 48.57C60.94 48.55 61.06 48.56 61.16 48.52C61.93 48.29 62.36 48.38 62.64 49.09C62.96 49.89 63.22 50.75 63.31 51.61C63.41 52.62 62.57 53.39 61.5 53.39C60.07 53.39 58.65 53.31 57.22 53.33C55.05 53.36 52.97 52.82 50.89 52.32C49.59 52.01 48.32 51.61 47.05 51.19C43.91 50.16 42.1 47.92 41.32 44.77C41.12 43.96 40.89 43.15 40.67 42.34C40.63 42.19 40.55 42.05 40.48 41.87C40.03 42.04 39.62 42.25 39.19 42.36C37.64 42.76 36.29 42.21 35.09 41.3C33.43 40.05 32.18 38.44 31.39 36.51C30.45 34.2 31.04 31.79 32.86 30.24C34.67 28.7 37.55 29.15 38.79 31.2C39.12 31.74 39.37 32.33 39.7 32.87C40.72 34.53 42.16 35.41 44.15 35.17C44.54 35.12 44.94 34.98 45.29 34.79C45.77 34.54 45.85 34.13 45.54 33.72C44.25 32.03 44.85 29.82 45.98 28.76C46.11 28.64 46.29 28.54 46.46 28.48C48.75 27.8 50.35 26.39 51 24.05C51.34 22.83 51.29 21.58 50.95 20.28C53.41 20.13 55.57 19.34 57.6 17.95C56.83 17.06 55.98 16.4 55.03 15.93C54.09 15.47 53.09 15.13 52.08 14.73C52.71 14.54 53.38 14.36 54.02 14.13C55.16 13.72 56 13.87 56.78 14.96C57.87 16.49 59.57 17.18 61.35 17.59C62 17.74 62.31 18 62.45 18.67C62.98 21.19 63.57 23.7 64.17 26.31C63.28 26.31 62.48 26.31 61.67 26.31C60.02 26.31 58.35 26.18 56.73 26.6C54.81 27.09 53.17 28.08 51.77 29.55C52.24 29.99 52.7 30.43 53.15 30.86C52.62 31.4 52.26 31.43 51.69 30.98C51.46 30.8 51.26 30.65 51.03 30.96C50.84 31.23 50.73 31.49 51.1 31.71C51.17 31.76 51.24 31.82 51.3 31.88C52.39 32.88 52.45 32.89 53.77 32.17C54.28 31.89 54.78 31.59 55.3 31.29C55.72 32.26 56.52 32.75 57.5 32.97C57.82 33.04 57.93 33.21 57.92 33.53C57.92 33.94 57.8 34.52 58.33 34.58C58.63 34.61 59.06 34.24 59.3 33.94C60.64 32.22 61.94 30.46 63.24 28.71C63.3 28.63 63.34 28.52 63.38 28.43C63.44 28.45 63.51 28.47 63.57 28.49C64.94 32.03 66.31 35.58 67.72 39.23C66.74 39.23 65.91 39.19 65.09 39.24L65.11 39.2ZM58.64 29.61V32.03C57.67 31.87 56.77 31.7 56.17 30.67C56.98 30.32 57.77 29.99 58.64 29.61ZM54.16 29.78C53.85 29.99 53.66 29.93 53.49 29.63C54.34 28.84 55.85 27.77 58.6 27.81C58.23 27.91 57.99 27.98 57.74 28.05C56.43 28.39 55.27 29.05 54.15 29.78H54.16Z" fill="url(#paint1_linear_3_698)"/>
<path d="M38.44 36.8401C37.82 36.6701 37.65 36.2501 37.93 35.6701C38.08 35.3501 38.24 35.0401 38.37 34.7101C38.83 33.5201 38.49 32.1701 37.52 31.2901C36.56 30.4101 35.09 30.1701 33.98 30.7101C32.56 31.4101 32.11 32.6701 32.02 33.9401C32.03 36.1101 33.65 38.9001 35.43 40.0301C35.74 40.2201 36.03 40.3801 36.3 40.0101C36.55 39.6601 36.32 39.4301 36.08 39.2001C35.6 38.7301 35.08 38.3001 34.68 37.7701C34.09 36.9801 33.61 36.1001 33.61 35.0701C33.61 34.5001 33.87 34.0501 34.39 33.8001C34.8 33.6001 35.22 33.6201 35.58 33.9201C35.85 34.1401 35.97 34.3501 35.58 34.6201C34.95 35.0501 34.76 35.7701 35.06 36.4801C35.57 37.6901 36.42 38.5101 37.75 38.7701C38.07 38.8301 38.41 38.9401 38.67 39.1301C38.95 39.3401 39.2 39.4901 39.52 39.2901C39.87 39.0701 40.01 38.7501 39.93 38.3401C39.76 37.5301 39.23 37.0801 38.45 36.8601L38.44 36.8401Z" fill="url(#paint2_linear_3_698)"/>
<path d="M47.3899 46.38C45.7499 44.85 44.1199 43.33 42.4599 41.83C42.3399 41.72 42.0799 41.76 41.8799 41.73C41.8799 41.95 41.7999 42.21 41.8999 42.38C42.0399 42.63 42.2899 42.83 42.5099 43.03C45.3899 45.72 48.2899 48.4 51.1599 51.12C51.7099 51.64 52.2799 51.91 53.1399 51.89C52.8999 51.62 52.7499 51.41 52.5599 51.23C50.8399 49.61 49.1199 47.99 47.3999 46.38H47.3899Z" fill="url(#paint3_linear_3_698)"/>
<path d="M47.2702 48.6001C45.8102 47.2301 44.3502 45.8501 42.8702 44.4901C42.7402 44.3701 42.4502 44.4101 42.2402 44.3701C42.2602 44.5801 42.2602 44.7901 42.3102 44.9901C42.3302 45.0801 42.4402 45.1501 42.5202 45.2201C44.2402 46.8601 45.9802 48.4701 47.6602 50.1601C48.3302 50.8301 49.1602 50.9701 50.0802 51.3001C49.9402 51.1301 49.8802 51.0501 49.8102 50.9801C48.9602 50.1801 48.1202 49.3901 47.2702 48.6001Z" fill="url(#paint4_linear_3_698)"/>
<path d="M111.92 13V40.5C111.92 43.49 111.15 45.54 109.62 46.66C108.09 47.78 105.23 48.34 101.05 48.34H96.9598L96.3398 40.05H99.1398C99.5498 40.05 99.8198 39.98 99.9498 39.83C100.08 39.68 100.15 39.44 100.15 39.1V13H111.91H111.92Z" fill="url(#paint5_linear_3_698)"/>
<path d="M128.94 35.45C128.94 37.47 129.84 38.47 131.66 38.47C133.48 38.47 134.38 37.44 134.38 35.39V13H146.36V36.13C146.36 40.24 145.07 43.3 142.5 45.31C139.92 47.33 136.23 48.33 131.41 48.33C121.63 48.33 116.74 44.3 116.74 36.23V13H128.95V35.46L128.94 35.45Z" fill="url(#paint6_linear_3_698)"/>
<path d="M171.84 47.77H150.95V13H162.93V38.76H172.62L171.84 47.78V47.77Z" fill="url(#paint7_linear_3_698)"/>
<path d="M186.23 47.77H174.41V13H186.23V47.78V47.77Z" fill="url(#paint8_linear_3_698)"/>
<path d="M203.37 35.45C203.37 37.47 204.27 38.47 206.09 38.47C207.91 38.47 208.81 37.44 208.81 35.39V13H220.79V36.13C220.79 40.24 219.5 43.3 216.93 45.31C214.35 47.33 210.66 48.33 205.84 48.33C196.06 48.33 191.17 44.3 191.17 36.23V13H203.38V35.46L203.37 35.45Z" fill="url(#paint9_linear_3_698)"/>
<path d="M223.69 24.1399C223.69 20.4399 224.81 17.5699 227.05 15.5199C229.29 13.4699 232.4 12.4399 236.37 12.4399C240.34 12.4399 244.44 12.8099 248.66 13.5599L247.37 23.4199C242.7 22.4899 239.64 22.0199 238.19 22.0199C236.74 22.0199 236.01 22.4699 236.01 23.3599C236.01 23.6999 236.12 23.9299 236.35 24.0599C236.57 24.1899 236.74 24.2899 236.85 24.3699C236.96 24.4499 237.18 24.5399 237.49 24.6499C237.81 24.7599 238.07 24.8699 238.27 24.9599C238.47 25.0499 239.15 25.3299 240.29 25.7999C241.43 26.2699 242.29 26.6399 242.87 26.9199C243.45 27.1999 244.24 27.6599 245.25 28.2899C248.16 30.1899 249.62 32.9899 249.62 36.6899C249.62 40.3899 248.52 43.2499 246.32 45.2899C244.12 47.3299 240.95 48.3399 236.83 48.3399C232.71 48.3399 228.66 47.8399 224.71 46.8299L225.49 37.3699C230.49 38.6399 233.87 39.2699 235.63 39.2699C236.79 39.2699 237.37 38.8599 237.37 38.0399C237.37 37.6699 237.23 37.3699 236.95 37.1399C236.67 36.9099 236.26 36.6699 235.72 36.4099C235.18 36.1499 234.38 35.7999 233.34 35.3699C232.29 34.9399 231.42 34.5699 230.71 34.2499C230 33.9299 229.16 33.4399 228.19 32.7699C225.2 30.7199 223.71 27.8399 223.71 24.1499L223.69 24.1399Z" fill="url(#paint10_linear_3_698)"/>
<path d="M131.6 64.1901C131.6 65.8301 131.78 67.0201 132.15 67.7701C132.52 68.5101 133.13 68.8901 133.99 68.8901C134.85 68.8901 136.29 68.6501 138.29 68.1801L139.33 73.3301C137.22 74.0001 135.18 74.3301 133.21 74.3301C130.21 74.3301 128.03 73.4701 126.66 71.7601C125.29 70.0401 124.61 67.4901 124.61 64.0901C124.61 60.6901 125.32 58.0901 126.75 56.2901C128.17 54.4901 130.49 53.5901 133.71 53.5901C135.59 53.5901 137.46 53.9601 139.34 54.6901L138.27 60.4501C136.13 59.8201 134.67 59.5101 133.89 59.5101C133.11 59.5101 132.53 59.8801 132.16 60.6301C131.79 61.3701 131.61 62.5701 131.61 64.2101L131.6 64.1901Z" fill="url(#paint11_linear_3_698)"/>
<path d="M157.23 73.9999H150.43L149.78 70.8899H146.19L145.51 73.9999H139.01L143.18 53.8999H153.05L157.22 73.9999H157.23ZM149.3 66.7099L148.07 59.9799H147.94L146.68 66.7099H149.3Z" fill="url(#paint12_linear_3_698)"/>
<path d="M157.55 60.3401C157.55 58.2001 158.2 56.5401 159.49 55.3601C160.78 54.1701 162.58 53.5801 164.88 53.5801C167.18 53.5801 169.54 53.8001 171.98 54.2301L171.24 59.9301C168.54 59.3901 166.77 59.1201 165.93 59.1201C165.09 59.1201 164.67 59.3801 164.67 59.9001C164.67 60.0901 164.73 60.2301 164.86 60.3001C164.99 60.3801 165.09 60.4401 165.15 60.4801C165.21 60.5201 165.34 60.5801 165.52 60.6401C165.7 60.7001 165.85 60.7601 165.97 60.8201C166.09 60.8701 166.48 61.0401 167.14 61.3101C167.8 61.5801 168.29 61.8001 168.63 61.9601C168.96 62.1201 169.42 62.3901 170.01 62.7501C171.69 63.8501 172.53 65.4701 172.53 67.6001C172.53 69.7301 171.89 71.3901 170.62 72.5701C169.35 73.7501 167.52 74.3301 165.13 74.3301C162.74 74.3301 160.41 74.0401 158.12 73.4601L158.57 67.9901C161.46 68.7201 163.41 69.0901 164.43 69.0901C165.1 69.0901 165.43 68.8501 165.43 68.3801C165.43 68.1601 165.35 67.9901 165.19 67.8601C165.03 67.7301 164.79 67.5901 164.48 67.4401C164.17 67.2901 163.71 67.0901 163.1 66.8401C162.5 66.5901 161.99 66.3801 161.58 66.1901C161.17 66.0101 160.68 65.7201 160.12 65.3301C158.39 64.1401 157.53 62.4801 157.53 60.3501L157.55 60.3401Z" fill="url(#paint13_linear_3_698)"/>
<path d="M181.17 73.9999H174.34V53.8999H181.17V73.9999Z" fill="url(#paint14_linear_3_698)"/>
<path d="M201.01 73.9999H194.41L190.33 66.0699H190.1V73.9999H183.95V53.8999H190.78L194.6 62.0899H194.79V53.8999H201V73.9999H201.01Z" fill="url(#paint15_linear_3_698)"/>
<path d="M202.95 63.8201C202.95 60.2301 203.67 57.6201 205.1 56.0001C206.53 54.3801 208.9 53.5701 212.19 53.5701C215.48 53.5701 217.83 54.3701 219.24 55.9601C220.65 57.5601 221.36 60.1501 221.36 63.7401C221.36 67.3301 220.63 69.9901 219.18 71.7201C217.72 73.4501 215.37 74.3101 212.13 74.3101C208.89 74.3101 206.54 73.4601 205.11 71.7501C203.67 70.0501 202.96 67.4001 202.96 63.8101L202.95 63.8201ZM213.99 59.9701C213.71 59.4201 213.11 59.1401 212.18 59.1401C211.25 59.1401 210.66 59.4101 210.4 59.9501C210.14 60.4901 210.01 61.6401 210.01 63.4101V64.8301C210.01 66.6401 210.15 67.8201 210.43 68.3601C210.71 68.9001 211.32 69.1701 212.27 69.1701C213.22 69.1701 213.81 68.9101 214.05 68.3901C214.29 67.8701 214.41 66.7201 214.41 64.9301V63.4401C214.41 61.6701 214.27 60.5101 213.99 59.9601V59.9701Z" fill="url(#paint16_linear_3_698)"/>
</g>
<defs>
<linearGradient id="paint0_linear_3_698" x1="60.67" y1="-13.23" x2="26.51" y2="98.59" gradientUnits="userSpaceOnUse">
<stop offset="0.02" stop-color="#F1D6A4"/>
<stop offset="1" stop-color="#A3805D"/>
</linearGradient>
<linearGradient id="paint1_linear_3_698" x1="20.95" y1="81.85" x2="40.17" y2="40.55" gradientUnits="userSpaceOnUse">
<stop stop-color="#F1D6A4"/>
<stop offset="1" stop-color="#896646"/>
</linearGradient>
<linearGradient id="paint2_linear_3_698" x1="15.75" y1="79.4301" x2="34.96" y2="38.1301" gradientUnits="userSpaceOnUse">
<stop stop-color="#F1D6A4"/>
<stop offset="1" stop-color="#896646"/>
</linearGradient>
<linearGradient id="paint3_linear_3_698" x1="29.3799" y1="85.77" x2="48.5899" y2="44.47" gradientUnits="userSpaceOnUse">
<stop stop-color="#F1D6A4"/>
<stop offset="1" stop-color="#896646"/>
</linearGradient>
<linearGradient id="paint4_linear_3_698" x1="28.6702" y1="85.4401" x2="47.8802" y2="44.1401" gradientUnits="userSpaceOnUse">
<stop stop-color="#F1D6A4"/>
<stop offset="1" stop-color="#896646"/>
</linearGradient>
<linearGradient id="paint5_linear_3_698" x1="172.99" y1="12.44" x2="172.99" y2="137.07" gradientUnits="userSpaceOnUse">
<stop stop-color="#E3BD7E"/>
<stop offset="1" stop-color="#80663C"/>
</linearGradient>
<linearGradient id="paint6_linear_3_698" x1="172.99" y1="12.44" x2="172.99" y2="137.07" gradientUnits="userSpaceOnUse">
<stop stop-color="#E3BD7E"/>
<stop offset="1" stop-color="#80663C"/>
</linearGradient>
<linearGradient id="paint7_linear_3_698" x1="172.99" y1="12.44" x2="172.99" y2="137.07" gradientUnits="userSpaceOnUse">
<stop stop-color="#E3BD7E"/>
<stop offset="1" stop-color="#80663C"/>
</linearGradient>
<linearGradient id="paint8_linear_3_698" x1="172.99" y1="12.44" x2="172.99" y2="137.07" gradientUnits="userSpaceOnUse">
<stop stop-color="#E3BD7E"/>
<stop offset="1" stop-color="#80663C"/>
</linearGradient>
<linearGradient id="paint9_linear_3_698" x1="172.99" y1="12.44" x2="172.99" y2="137.07" gradientUnits="userSpaceOnUse">
<stop stop-color="#E3BD7E"/>
<stop offset="1" stop-color="#80663C"/>
</linearGradient>
<linearGradient id="paint10_linear_3_698" x1="172.99" y1="12.4399" x2="172.99" y2="137.07" gradientUnits="userSpaceOnUse">
<stop stop-color="#E3BD7E"/>
<stop offset="1" stop-color="#80663C"/>
</linearGradient>
<linearGradient id="paint11_linear_3_698" x1="172.99" y1="12.4401" x2="172.99" y2="137.07" gradientUnits="userSpaceOnUse">
<stop stop-color="#E3BD7E"/>
<stop offset="1" stop-color="#80663C"/>
</linearGradient>
<linearGradient id="paint12_linear_3_698" x1="172.99" y1="12.4399" x2="172.99" y2="137.07" gradientUnits="userSpaceOnUse">
<stop stop-color="#E3BD7E"/>
<stop offset="1" stop-color="#80663C"/>
</linearGradient>
<linearGradient id="paint13_linear_3_698" x1="172.99" y1="12.4401" x2="172.99" y2="137.07" gradientUnits="userSpaceOnUse">
<stop stop-color="#E3BD7E"/>
<stop offset="1" stop-color="#80663C"/>
</linearGradient>
<linearGradient id="paint14_linear_3_698" x1="172.99" y1="12.4399" x2="172.99" y2="137.07" gradientUnits="userSpaceOnUse">
<stop stop-color="#E3BD7E"/>
<stop offset="1" stop-color="#80663C"/>
</linearGradient>
<linearGradient id="paint15_linear_3_698" x1="172.99" y1="12.4399" x2="172.99" y2="137.07" gradientUnits="userSpaceOnUse">
<stop stop-color="#E3BD7E"/>
<stop offset="1" stop-color="#80663C"/>
</linearGradient>
<linearGradient id="paint16_linear_3_698" x1="172.99" y1="12.4401" x2="172.99" y2="137.07" gradientUnits="userSpaceOnUse">
<stop stop-color="#E3BD7E"/>
<stop offset="1" stop-color="#80663C"/>
</linearGradient>
<clipPath id="clip0_3_698">
<rect width="249.62" height="86.76" fill="white"/>
</clipPath>
</defs>
</svg>
