<svg xmlns="http://www.w3.org/2000/svg" fill="none" viewBox="0 0 84 38"><g clip-path="url(#a)"><path fill="#A7A5A6" d="M66.663 2.394c1.366 0 2.47.317 3.278.944.657.508 1.438 1.462 1.438 3.129v15.217c0 1.03-.839 1.864-1.87 1.864h-5.693c-.248 0-.483-.048-.698-.134-.216.086-.451.134-.698.134h-5.693a1.9 1.9 0 0 1-.688-.132 1.9 1.9 0 0 1-.688.132h-5.693a1.867 1.867 0 0 1-1.87-1.864v-5.772h-2.565v5.772c0 1.03-.838 1.864-1.87 1.864H37.66a1.9 1.9 0 0 1-.688-.132 1.9 1.9 0 0 1-.688.132h-2.84v3.562c0 1.03-.838 1.864-1.87 1.864h-12.23c-2.78 0-4.718-2.118-4.718-4.018v-1.408H9.355c-.248 0-.483-.048-.698-.134-.216.086-.451.134-.698.134H2.266a1.867 1.867 0 0 1-1.87-1.864V4.258c0-1.029.838-1.864 1.87-1.864h5.693c.393 0 .757.12 1.058.327.905-.252 1.842-.327 2.635-.327 1.303 0 2.34.233 3.186.731 1.16-.619 2.487-.73 3.794-.73 1.616 0 3.021.513 3.99 1.357.15-.162.303-.3.45-.412.808-.627 1.911-.944 3.278-.944h7.088c1.367 0 2.47.317 3.279.944q.13.1.26.222c.75-.699 1.89-1.168 3.53-1.168h7.826c.234 0 .457.045.663.122.205-.079.429-.122.662-.122h5.693a1.86 1.86 0 0 1 1.41.642c.749-.423 1.692-.642 2.813-.642zm0-.394h-7.089c-1.056 0-1.975.185-2.74.554A2.27 2.27 0 0 0 55.35 2h-5.693c-.223 0-.447.034-.662.1a2.2 2.2 0 0 0-.663-.1h-7.826c-1.461 0-2.648.35-3.53 1.042q-.008-.008-.02-.015C36.079 2.345 34.893 2 33.438 2h-7.09c-1.457 0-2.641.345-3.521 1.027a4 4 0 0 0-.233.195C21.543 2.432 20.15 2 18.63 2c-1.184 0-2.55.083-3.784.678-.863-.455-1.91-.678-3.194-.678-.937 0-1.801.1-2.572.296A2.25 2.25 0 0 0 7.957 2H2.266A2.264 2.264 0 0 0 0 4.258v17.426a2.264 2.264 0 0 0 2.266 2.258h5.693q.359-.001.698-.109.338.11.698.109h4.876v1.014c0 2.087 2.1 4.412 5.113 4.412h12.23a2.264 2.264 0 0 0 2.266-2.258v-3.168h2.444q.35 0 .688-.109.336.108.688.109h5.693a2.264 2.264 0 0 0 2.265-2.258v-5.377h1.774v5.377a2.264 2.264 0 0 0 2.266 2.258h5.693q.35 0 .688-.109.337.108.688.109h5.693q.359-.001.698-.109.338.11.698.109h5.692a2.264 2.264 0 0 0 2.266-2.258V6.467c0-1.825-.866-2.879-1.591-3.44C69.303 2.345 68.116 2 66.66 2z"/><path fill="#000" d="M19.344 27.11c-1.396 0-2.845-1.036-2.845-2.154V8.676c0-.028-.028-.056-.056-.056h-1.34c-.028 0-.056.028-.056.056v13.008H9.355V8.675c0-.027-.028-.055-.056-.055H8.014c-.028 0-.055.028-.055.056v13.008H2.266V4.258h5.693v1.117c.684-.737 2.052-1.117 3.693-1.117s2.49.435 3.12 1.308c.849-1.064 2.08-1.308 3.858-1.308 1.97 0 3.504 1.009 3.504 2.427V22.72c0 .028.028.055.055.055h9.385v4.337h-12.23z"/><path fill="#000" d="M31.574 28.976h-12.23c-2.78 0-4.718-2.118-4.718-4.02v-1.408H9.355c-.248 0-.483-.048-.698-.134-.216.086-.451.134-.698.134H2.266a1.867 1.867 0 0 1-1.87-1.864V4.258c0-1.029.838-1.864 1.87-1.864h5.693c.393 0 .757.12 1.057.327.906-.252 1.843-.327 2.636-.327 1.303 0 2.34.233 3.186.731 1.16-.619 2.487-.73 3.794-.73 3.063 0 5.374 1.843 5.374 4.29v14.226h7.568c1.034 0 1.87.836 1.87 1.864v4.337c0 1.03-.838 1.864-1.87 1.864m-13.207-4.148c.139.166.558.418.975.418h10.36v-.607h-7.515a1.925 1.925 0 0 1-1.926-1.919V6.685c0-.112-.524-.563-1.63-.563-1.767 0-2.14.286-2.395.605l-.024.03h.23c1.061 0 1.925.86 1.925 1.918zm-7.142-5.008h1.95V8.676c0-.594.27-1.124.696-1.476a1.86 1.86 0 0 1-.617-.546c-.198-.274-.384-.532-1.6-.532-1.508 0-2.187.376-2.321.52q-.056.06-.117.114h.085c1.062 0 1.926.861 1.926 1.92V19.82zm-7.089 0h1.95V8.676c0-.712.392-1.334.97-1.665a1.87 1.87 0 0 1-.814-.89H4.136zM37.662 21.684V6.467c0-1.444.957-2.209 2.845-2.209h7.826V8.62h-4.925c-.028 0-.056.028-.056.056v1.008h4.926v4.363h-4.926v7.635H37.66z"/><path fill="#000" d="M43.352 23.548H37.66a1.867 1.867 0 0 1-1.87-1.864V6.467c0-1.969 1.239-4.073 4.717-4.073h7.826c1.034 0 1.87.835 1.87 1.864v4.364q-.001.33-.106.623.052.212.053.44v4.364c0 1.03-.838 1.864-1.87 1.864h-3.055v5.77c0 1.031-.839 1.865-1.87 1.865zm-3.82-3.728h1.95v-5.771c0-1.03.838-1.864 1.87-1.864h3.055v-.635h-3.055a1.867 1.867 0 0 1-1.87-1.864V8.677c0-1.058.864-1.919 1.926-1.919h3.055v-.634h-5.956c-.63 0-.888.114-.957.154a.8.8 0 0 0-.018.19v13.354z"/><path fill="#000" d="M49.66 21.684V4.258h5.693v17.426z"/><path fill="#000" d="M55.353 23.548H49.66a1.867 1.867 0 0 1-1.87-1.864V4.258c0-1.03.838-1.864 1.87-1.864h5.693c1.034 0 1.87.835 1.87 1.864v17.426c0 1.03-.838 1.864-1.87 1.864M51.53 19.82h1.95V6.122h-1.95z"/><path fill="#000" d="M63.818 21.684v-6.518h-1.396v6.518h-5.693V6.467c0-1.472.957-2.209 2.845-2.209h7.089c1.888 0 2.845.737 2.845 2.209v15.217h-5.692zm0-13.009c0-.027-.028-.055-.056-.055h-1.285c-.028 0-.055.028-.055.056v2.127h1.396z"/><path fill="#000" d="M69.51 23.548h-5.692c-.248 0-.483-.048-.698-.134-.216.086-.451.134-.698.134h-5.693a1.867 1.867 0 0 1-1.87-1.864V6.467c0-1.665.78-2.62 1.437-3.13.809-.626 1.912-.943 3.278-.943h7.089c1.366 0 2.47.317 3.278.944.657.508 1.438 1.464 1.438 3.129v15.217c0 1.03-.839 1.864-1.87 1.864zm-3.822-3.728h1.95V6.467a1 1 0 0 0-.018-.2c-.077-.039-.342-.145-.957-.145h-7.089c-.615 0-.88.104-.957.146a1 1 0 0 0-.017.199V19.82h1.95v-4.654c0-1.03.838-1.864 1.87-1.864h1.396c1.034 0 1.87.835 1.87 1.864v4.654zm-1.87-7.153h-1.396a1.867 1.867 0 0 1-1.87-1.864V8.676c0-1.058.863-1.919 1.925-1.919h1.285c1.062 0 1.926.861 1.926 1.92v2.127c0 1.031-.838 1.864-1.87 1.864M33.436 4.258h-7.088c-1.889 0-2.846.737-2.846 2.209v15.217h5.693v-6.518h1.396v6.518h5.692V6.467c0-1.472-.956-2.209-2.845-2.209zm-2.845 6.546h-1.396V8.675c0-.027.027-.055.055-.055h1.285c.028 0 .056.028.056.056z"/><path fill="#000" d="M36.284 23.548H30.59c-.247 0-.483-.048-.698-.134-.216.086-.451.134-.698.134h-5.693a1.867 1.867 0 0 1-1.87-1.864V6.467c0-1.665.78-2.62 1.437-3.13.809-.626 1.912-.943 3.279-.943h7.088c1.367 0 2.47.317 3.279.944.656.508 1.437 1.464 1.437 3.129v15.217c0 1.03-.838 1.864-1.87 1.864zM32.46 19.82h1.95V6.467a1 1 0 0 0-.018-.2c-.077-.039-.342-.145-.957-.145h-7.088c-.615 0-.88.104-.957.146a1 1 0 0 0-.018.199V19.82h1.95v-4.654c0-1.03.838-1.864 1.87-1.864h1.396c1.034 0 1.87.835 1.87 1.864v4.654zm-1.87-7.153h-1.396a1.867 1.867 0 0 1-1.87-1.864V8.676c0-1.058.863-1.919 1.925-1.919h1.285c1.062 0 1.926.861 1.926 1.92v2.127c0 1.031-.838 1.864-1.87 1.864"/><path fill="#fff" d="M19.344 27.11c-1.396 0-2.845-1.036-2.845-2.154V8.676c0-.028-.028-.056-.056-.056h-1.34c-.028 0-.056.028-.056.056v13.008H9.355V8.675c0-.027-.028-.055-.056-.055H8.014c-.028 0-.055.028-.055.056v13.008H2.266V4.258h5.693v1.117c.684-.737 2.052-1.117 3.693-1.117s2.49.435 3.12 1.308c.849-1.064 2.08-1.308 3.858-1.308 1.97 0 3.504 1.009 3.504 2.427V22.72c0 .028.028.055.055.055h9.385v4.337h-12.23zM37.662 21.684V6.467c0-1.444.957-2.209 2.845-2.209h7.826V8.62h-4.925c-.028 0-.056.028-.056.056v1.008h4.926v4.363h-4.926v7.635H37.66zM49.66 21.684V4.258h5.693v17.426zM63.818 21.684v-6.518h-1.396v6.518h-5.693V6.467c0-1.472.957-2.209 2.845-2.209h7.089c1.888 0 2.845.737 2.845 2.209v15.217h-5.692zm0-13.009c0-.027-.028-.055-.056-.055h-1.285c-.028 0-.055.028-.055.056v2.127h1.396z"/><path fill="#fff" d="M33.436 4.258h-7.088c-1.889 0-2.846.737-2.846 2.209v15.217h5.693v-6.518h1.396v6.518h5.692V6.467c0-1.472-.956-2.209-2.845-2.209zm-2.845 6.546h-1.396V8.675c0-.027.027-.055.055-.055h1.285c.028 0 .056.028.056.056z"/><path fill="#000" d="m8.095 6.18.342-.37c.623-.67 1.916-1.053 3.55-1.053 1.156 0 1.854.222 2.348.59-.512-.545-1.24-.89-2.683-.89-1.633 0-2.926.384-3.55 1.054l-.007.008zM14.946 5.982l.153.21.162-.204c.82-1.029 2.025-1.235 3.703-1.235 1.005 0 1.875.273 2.472.72-.573-.622-1.592-1.022-2.806-1.022-1.679 0-2.883.207-3.703 1.236l-.105.132q.062.079.124.161zM22.272 23.022c0 .136.115.252.254.252h8.852v-.3h-9.104v.05zM9.887 8.977a.256.256 0 0 0-.254-.252H9.55v12.762h.335V8.977zM17.029 25.258V8.977a.256.256 0 0 0-.254-.252h-.083v16.231c0 .475.323.954.803 1.319-.289-.31-.469-.665-.469-1.02zM2.798 4.757H7.76v-.302H2.464v17.032h.334zM38.194 6.768c0-1.336.891-2.011 2.647-2.011h7.295v-.3h-7.629c-1.758 0-2.648.678-2.648 2.012v15.02h.335z"/><path fill="#000" d="M48.082 9.881h-4.591v.3h4.591zM50.192 4.757h4.963v-.302h-5.297v17.032h.334zM64.35 8.977a.256.256 0 0 0-.254-.252h-.083V11h-1.457v.299h1.791V8.975zM64.35 15.27h-.335v6.217h.335z"/><path fill="#000" d="M57.263 6.768c0-1.353.866-2.011 2.647-2.011H67c.841 0 1.476.15 1.915.447-.417-.5-1.16-.747-2.25-.747h-7.089c-1.781 0-2.647.658-2.647 2.012v15.02h.334zM24.036 6.768c0-1.353.866-2.011 2.648-2.011h7.088c.843 0 1.477.15 1.916.447-.417-.5-1.16-.747-2.25-.747H26.35c-1.781 0-2.647.658-2.647 2.012v15.02h.334z"/><path fill="#000" d="M31.123 8.977a.256.256 0 0 0-.253-.252h-.083V11h-1.458v.299h1.792V8.975zM31.123 15.27h-.334v6.217h.334zM83.185 28.056c-.901-1.08-2.798-1.734-5.754-1.973.754-.553 1.43-1.393 1.909-2.567.763-1.88.547-3.71-.505-4.798a1.86 1.86 0 0 0-2.177-1.692c-2.104.347-3.88 2.329-4.66 4.4-.018.02-.036.037-.052.059a10 10 0 0 1-.358.423c.113-.579.263-1.74-.417-2.516-.292-.333-.84-.715-1.801-.64-.775.07-1.602.585-2.646 1.688-.201-.343-.5-.61-.876-.762-.668-.272-1.724-.18-2.515.97-.164.228-.336.494-.518.776l-.045.069a22 22 0 0 1-1.18 1.674l-.17.203a11 11 0 0 0-.102-.837 1.86 1.86 0 0 0-.593-1.092 2.3 2.3 0 0 0 .324-.435c.572-1.001.21-2.29-.806-2.87-.724-.417-1.624-.399-2.407.042-.607.343-1.05.889-1.218 1.502a1.995 1.995 0 0 0 .78 2.179q-.465.356-.993.863c.037-.644-.091-1.164-.392-1.578-.34-.47-.88-.743-1.518-.767-.781-.027-1.475.302-1.91.91-.457.643-.564 1.514-.309 2.44a13.6 13.6 0 0 1-1.121 1.943 4 4 0 0 0-.081-.595c-.174-.769-.611-1.352-1.236-1.642a2 2 0 0 0-1.066-.175 2 2 0 0 0-.573-.246L48.146 23a3.07 3.07 0 0 0-1.569.096 3.73 3.73 0 0 0 .028-2.037c-.372-1.34-1.663-2.721-4.186-2.57-5.064.357-10.634 5.386-12.659 9.856-1.332 2.942-1.237 5.645.27 7.608.984 1.286 2.412 1.994 4.13 2.049q.097.004.202.004c1.817 0 5.2-.749 9.48-5.107a2.3 2.3 0 0 0 1.092-.038c-.16.402-.182.863-.023 1.3a1.8 1.8 0 0 0 2.325 1.079c1.98-.753 3.745-1.413 5.481-2 .202.396.449.752.738 1.056.62.652 1.366.985 2.111.985.532 0 1.062-.17 1.543-.516l.023-.018c.997-.759 1.61-1.882 1.814-3.286 1.401-.324 2.9-.617 4.567-.891 8.667-1.423 15.698-.94 16.884-.19q-.008.037-.023.091a1.83 1.83 0 0 0 1.154 2.268 1.783 1.783 0 0 0 2.274-1.178c.402-1.299.182-2.54-.619-3.497zm-10.7-2.044.011.012h-.034zm2.809-3.168c.15-.431.449-.989.872-1.432l.055.018c.02.275-.138.888-.538 1.361-.098.116-.26.28-.452.36.031-.1.049-.202.063-.307m-6.177 3.39c-.815.068-1.608.145-2.363.23l.298-.402c.303-.408.62-.834.93-1.248a3.2 3.2 0 0 0 .553.927q.258.293.58.492zM41.834 24.09c.162.974.975 1.521 1.785 1.586-.785 1.193-1.338 2.538-1.578 3.52-2.863 3.217-5.712 5.097-7.652 5.03-.581-.02-1.024-.223-1.317-.605-.878-1.145-.296-2.88.129-3.817 1.49-3.276 5.73-7.1 9.26-7.471a1.93 1.93 0 0 0-.625 1.755zm6.1 5.764c.221.356.532.662.965.876q-.982.36-2.019.753c.251-.301.611-.875 1.056-1.63z"/><path fill="#F41340" d="M81.613 26.972c-.901-1.08-2.798-1.734-5.754-1.972.754-.554 1.43-1.393 1.908-2.568.764-1.88.548-3.71-.504-4.797a1.86 1.86 0 0 0-2.177-1.692c-2.104.346-3.88 2.328-4.66 4.399-.018.02-.036.037-.052.059q-.186.233-.358.424c.113-.58.263-1.74-.417-2.517-.293-.332-.84-.715-1.801-.64-.775.071-1.602.585-2.646 1.689-.201-.343-.5-.611-.876-.763-.668-.272-1.724-.18-2.515.97-.164.228-.336.494-.518.776l-.045.069a22 22 0 0 1-1.18 1.675l-.17.203a11 11 0 0 0-.102-.838 1.86 1.86 0 0 0-.593-1.091q.189-.198.324-.436c.572-1 .21-2.29-.806-2.87-.724-.416-1.624-.399-2.407.043-.607.343-1.05.888-1.218 1.501a1.995 1.995 0 0 0 .78 2.18q-.465.355-.993.862c.037-.644-.091-1.164-.392-1.578-.34-.469-.88-.743-1.518-.766-.782-.028-1.476.301-1.91.91-.457.642-.564 1.513-.309 2.44a13.6 13.6 0 0 1-1.121 1.942 4 4 0 0 0-.081-.595c-.174-.768-.611-1.352-1.236-1.641a2 2 0 0 0-1.066-.176 2 2 0 0 0-.573-.246l-.054-.012a3.07 3.07 0 0 0-1.568.097 3.73 3.73 0 0 0 .028-2.038c-.372-1.34-1.663-2.72-4.186-2.569-5.064.357-10.634 5.385-12.659 9.856-1.332 2.941-1.237 5.645.27 7.607.984 1.287 2.412 1.994 4.13 2.05q.097.002.202.003c1.817 0 5.2-.748 9.48-5.107a2.3 2.3 0 0 0 1.092-.037c-.16.402-.182.863-.023 1.3a1.8 1.8 0 0 0 2.325 1.078c1.98-.753 3.745-1.413 5.481-2 .202.396.449.753.737 1.056.621.652 1.367.985 2.112.985.532 0 1.062-.17 1.543-.516l.023-.018c.997-.758 1.61-1.881 1.813-3.286a73 73 0 0 1 4.568-.89c8.667-1.423 15.698-.94 16.884-.19q-.008.037-.023.09a1.83 1.83 0 0 0 1.154 2.268 1.783 1.783 0 0 0 2.274-1.178c.402-1.298.182-2.54-.619-3.497zm-10.7-2.043.011.012h-.034zm2.809-3.168c.15-.432.449-.99.872-1.433l.055.018c.02.276-.138.888-.538 1.361-.099.117-.26.28-.452.36.031-.1.049-.202.063-.306m-6.177 3.389c-.815.068-1.608.145-2.363.23l.298-.402c.303-.408.62-.833.93-1.247.14.352.326.666.553.926q.258.293.58.492zm-27.283-2.144c.162.973.975 1.52 1.785 1.586-.785 1.192-1.338 2.538-1.578 3.519-2.863 3.217-5.712 5.097-7.652 5.03-.581-.02-1.024-.222-1.317-.605-.878-1.145-.296-2.88.129-3.816 1.49-3.277 5.73-7.101 9.26-7.472a1.93 1.93 0 0 0-.625 1.756zm6.102 5.763c.221.357.532.662.965.877q-.981.36-2.02.752c.252-.301.612-.874 1.057-1.629z"/><path fill="#fff" d="M42.94 29.013a.79.79 0 0 1-.183.664c-5.724 6.57-11.14 7.533-13.44 4.53-3.956-5.16 4.869-15.252 11.603-15.725 3.781-.227 3.95 3.767 1.63 4.969l-.202.06c-.362.058-.92-.113-1.014-.679-.056-.335.095-.703.413-.86.977-.505 1.42-1.932-.71-1.82-5.874.387-13.412 9.13-10.404 13.046 1.524 1.996 5.595 1.411 10.833-4.575.44-.548 1.355-.301 1.47.392z"/><path fill="#fff" d="M51.857 25.979c-1.315 1.738-2.782 3.153-3.897 2.762-1.068-.398-1.074-1.793-1.038-3.097-.224.311-1.92 3.442-2.464 4.08-.817.958-1.556 1.18-2.142.976-.66-.215-1.034-.952-.846-2.08.376-1.96 2.523-6.136 4.882-5.652.235.061.435.203.52.414.716-.366 1.376 0 1.566.84.093.41.067 1.01.06 1.562-.01.85-.022 1.375-.006 1.472.215-.061 1.061-.848 2.131-2.246.63-.877 1.95.128 1.238.969zm-6.05-1.474c-2.496 1.707-2.779 4.457-2.799 4.487 1.092-.751 2.668-3.957 2.798-4.487M72.449 22.062c-.892 1.12-2.322 2.453-3.558 2.406-1.34-.08-1.797-1.476-1.688-2.94.016-.203.033-.404.053-.583-.89.97-2.254 2.865-3.32 4.287-1.02 1.391-2.007.58-1.77-.707l.173-1.076a3 3 0 0 1-.273.32c-.416.518-1.28.285-1.388-.371a.8.8 0 0 1 .172-.627c.415-.516.88-1.192 1.257-1.779.2-.307.378-.585.542-.812.785-1.152 1.9-.613 1.68.62l-.22 1.534c1.288-1.734 2.773-3.5 3.786-3.592 1.137-.087 1.285.81 1.016 2.053-.05.307-.107.565-.14.822-.067.96.01 1.27.213 1.286.505.018 1.418-.807 2.249-1.842.614-.824 1.927.156 1.216.997z"/><path fill="#fff" d="M75.262 17.01a.777.777 0 0 1 .908.648.83.83 0 0 1-.054.434c2.462 1.564.087 7.32-3.306 6.63-3.62-.702-.935-7.154 2.452-7.712m-.725 1.966c-1.699 1.078-2.727 3.941-1.408 4.197 2.074.432 3.549-3.503 1.89-3.854a.78.78 0 0 1-.483-.344zM80.575 30.653a.7.7 0 0 1-.275-.034.74.74 0 0 1-.46-.922c.184-.595.023-.89-.137-1.082-1.048-1.255-8.959-1.682-17.942-.207-6.68 1.096-10.685 2.516-16.49 4.727a.707.707 0 0 1-.914-.433.734.734 0 0 1 .415-.94c5.887-2.24 9.95-3.68 16.758-4.798 4.146-.68 16.874-2.136 19.247.702.394.47.785 1.284.415 2.484a.71.71 0 0 1-.617.505zM56.794 18.035c.408-.23.908-.29 1.33-.048.485.278.685.903.404 1.395-.22.386-.654.615-1.095.682a1.5 1.5 0 0 1-.799-.075.917.917 0 0 1-.544-1.113c.101-.365.38-.66.704-.843zM62.578 23.144c-.997 1.237-2.324 2.91-3.619 2.798-1.463-.127-1.682-1.395-1.761-2.928-.016-.396-.028-.769-.087-1.133a.78.78 0 0 1 .65-.907.777.777 0 0 1 .908.649c.08.484.112.979.128 1.375.048 1.04.06 1.214.451 1.29.322.064 1.325-1.166 2.114-2.143.615-.826 1.928.155 1.216.997z"/><path fill="#fff" d="M58.048 23.54c-.441.073-.75.173-.839-.256-.102-.499-.725.411-1.793 1.538l-.133.146c1.118 2.175 1.871 6.104-.387 7.826-2.236 1.61-5.252-3.367-1.568-7.926-.146-.2-.297-.424-.469-.619q-.024.004-.027-.02c-.548 1.11-1.317 2.252-2.029 3.017-.441.52-1.29.286-1.362-.372-.03-.268.094-.49.201-.655.872-.888 1.728-2.37 2.223-3.519-.556-1.399.033-2.364 1.01-2.327.977.038 1.013 1.027.69 2.148.123.203.27.402.47.642.143.15.284.302.4.456l-.132.145c3.537-3.984 4.459-3.107 4.443-1.133a.827.827 0 0 1-.696.909zm-3.884 2.78c-1.846 2.449-1.058 5.46-.106 5.221 1.447-.364 1.002-3.895.106-5.221"/></g><defs><clipPath id="a"><path fill="#fff" d="M0 2h84v36H0z"/></clipPath></defs></svg>