<svg width="400" height="220" viewBox="0 0 400 220" fill="none" xmlns="http://www.w3.org/2000/svg">
<rect width="400" height="220" fill="white"/>
<g opacity="0.15">
<path fill-rule="evenodd" clip-rule="evenodd" d="M380.56 144.46L302.487 142.566L314.321 122.746L279.939 113.778C275.225 84.9213 223.499 59.9956 164.676 62.107C85.0309 64.9642 66.925 90.7027 71.6942 114.766C74.3466 128.151 86.8942 151.134 110.852 165.961C154.208 192.794 245.938 183.421 274.944 135.763L289.598 135.477L275.875 155.073L380.56 144.46Z" fill="white"/>
<path fill-rule="evenodd" clip-rule="evenodd" d="M380.56 144.46L302.487 142.566L314.321 122.746L279.939 113.778C275.225 84.9213 223.499 59.9956 164.676 62.107C85.0309 64.9642 66.925 90.7027 71.6942 114.766C74.3466 128.151 86.8942 151.134 110.852 165.961C154.208 192.794 245.938 183.421 274.944 135.763L289.598 135.477L275.875 155.073L380.56 144.46Z" fill="#01001F"/>
</g>
<path fill-rule="evenodd" clip-rule="evenodd" d="M380.56 129.133L302.487 127.237L314.321 107.417L279.939 98.4513C275.225 69.5941 223.499 44.6684 164.676 46.7799C85.0309 49.637 66.925 75.3741 71.6942 99.437C74.3466 112.823 86.8942 135.807 110.852 150.634C154.208 177.467 245.938 168.094 274.944 120.436L289.598 120.148L275.875 139.746L380.56 129.133Z" fill="white"/>
<path fill-rule="evenodd" clip-rule="evenodd" d="M287.318 98.5755C288.981 114.63 277.24 128.993 261.094 130.656C244.951 132.318 230.514 120.651 228.853 104.598C227.19 88.5427 238.931 74.1812 255.076 72.517C271.222 70.8555 285.657 82.5212 287.318 98.5755ZM260.834 128.128C275.574 126.61 286.294 113.496 284.776 98.837C283.259 84.1798 270.079 73.527 255.338 75.0455C240.597 76.5641 229.877 89.677 231.395 104.336C232.912 118.993 246.092 129.646 260.834 128.128Z" fill="#04005E"/>
<path d="M260.841 128.128C275.582 126.61 286.302 113.497 284.784 98.8384C283.266 84.1813 270.087 73.5284 255.345 75.047C240.605 76.5641 229.885 89.6784 231.402 104.337C232.92 118.994 246.101 129.647 260.841 128.128Z" fill="url(#paint0_linear_1221_959)"/>
<path d="M259.259 112.961C265.576 112.311 270.171 106.69 269.519 100.408C268.869 94.1271 263.22 89.5613 256.903 90.2128C250.585 90.8628 245.991 96.4842 246.641 102.766C247.293 109.047 252.941 113.613 259.259 112.961Z" fill="url(#paint1_linear_1221_959)"/>
<path fill-rule="evenodd" clip-rule="evenodd" d="M259.18 112.203C265.076 111.596 269.364 106.351 268.757 100.488C268.15 94.6242 262.878 90.3628 256.981 90.9699C251.085 91.5785 246.797 96.8228 247.404 102.687C248.012 108.55 253.283 112.811 259.18 112.203ZM259.259 112.961C265.575 112.311 270.171 106.69 269.52 100.408C268.87 94.1271 263.22 89.5613 256.903 90.2128C250.587 90.8628 245.991 96.4842 246.641 102.766C247.293 109.047 252.941 113.613 259.259 112.961Z" fill="url(#paint2_linear_1221_959)"/>
<path d="M258.61 106.643C259.957 106.506 261.194 105.842 262.049 104.795C262.905 103.749 263.308 102.406 263.171 101.063C263.03 99.7204 262.36 98.4888 261.308 97.639C260.256 96.7892 258.909 96.3909 257.563 96.5317C256.217 96.6683 254.98 97.3328 254.125 98.379C253.269 99.4252 252.866 100.767 253.003 102.11C253.144 103.453 253.814 104.684 254.865 105.534C255.917 106.384 257.264 106.782 258.61 106.642V106.643Z" fill="url(#paint3_linear_1221_959)"/>
<path fill-rule="evenodd" clip-rule="evenodd" d="M251.63 79.11C239.305 82.8529 232.33 95.9529 236.051 108.371C239.772 120.79 252.781 127.824 265.106 124.083C277.433 120.343 284.408 107.241 280.687 94.8229C276.965 82.4043 263.956 75.37 251.63 79.11ZM235.55 108.524C231.744 95.8243 238.877 82.43 251.479 78.6058C264.082 74.78 277.383 81.9729 281.188 94.6715C284.994 107.369 277.861 120.763 265.258 124.589C252.656 128.414 239.354 121.223 235.55 108.524Z" fill="url(#paint4_radial_1221_959)"/>
<path fill-rule="evenodd" clip-rule="evenodd" d="M251.63 79.11C239.305 82.8529 232.33 95.9529 236.051 108.371C239.772 120.79 252.781 127.824 265.106 124.083C277.433 120.343 284.408 107.241 280.687 94.8229C276.965 82.4043 263.956 75.37 251.63 79.11ZM235.55 108.524C231.744 95.8243 238.877 82.43 251.479 78.6058C264.082 74.78 277.383 81.9729 281.188 94.6715C284.994 107.369 277.861 120.763 265.258 124.589C252.656 128.414 239.354 121.223 235.55 108.524Z" fill="url(#paint5_radial_1221_959)"/>
<path fill-rule="evenodd" clip-rule="evenodd" d="M252.236 81.1313C241.018 84.537 234.67 96.4598 238.057 107.761C241.443 119.064 253.283 125.467 264.502 122.061C275.719 118.657 282.068 106.734 278.68 95.4327C275.293 84.1298 263.455 77.7256 252.236 81.1313ZM237.555 107.914C234.084 96.3327 240.589 84.1141 252.084 80.627C263.579 77.137 275.711 83.6984 279.182 95.2798C282.652 106.861 276.147 119.078 264.652 122.567C253.157 126.056 241.026 119.496 237.555 107.914Z" fill="url(#paint6_radial_1221_959)"/>
<path fill-rule="evenodd" clip-rule="evenodd" d="M252.236 81.1313C241.018 84.537 234.67 96.4598 238.057 107.761C241.443 119.064 253.283 125.467 264.502 122.061C275.719 118.657 282.068 106.734 278.68 95.4327C275.293 84.1298 263.455 77.7256 252.236 81.1313ZM237.555 107.914C234.084 96.3327 240.589 84.1141 252.084 80.627C263.579 77.137 275.711 83.6984 279.182 95.2798C282.652 106.861 276.147 119.078 264.652 122.567C253.157 126.056 241.026 119.496 237.555 107.914Z" fill="url(#paint7_radial_1221_959)"/>
<path fill-rule="evenodd" clip-rule="evenodd" d="M252.842 83.1531C242.732 86.2216 237.011 96.9674 240.063 107.153C243.116 117.339 253.786 123.11 263.896 120.042C274.006 116.973 279.726 106.227 276.674 96.0416C273.622 85.8559 262.952 80.0845 252.842 83.1531ZM239.562 107.306C236.426 96.8402 242.304 85.8002 252.691 82.6488C263.078 79.4959 274.04 85.4231 277.176 95.8888C280.312 106.355 274.434 117.393 264.046 120.546C253.66 123.699 242.698 117.77 239.562 107.306Z" fill="url(#paint8_radial_1221_959)"/>
<path fill-rule="evenodd" clip-rule="evenodd" d="M252.842 83.1531C242.732 86.2216 237.011 96.9674 240.063 107.153C243.116 117.339 253.786 123.11 263.896 120.042C274.006 116.973 279.726 106.227 276.674 96.0416C273.622 85.8559 262.952 80.0845 252.842 83.1531ZM239.562 107.306C236.426 96.8402 242.304 85.8002 252.691 82.6488C263.078 79.4959 274.04 85.4231 277.176 95.8888C280.312 106.355 274.434 117.393 264.046 120.546C253.66 123.699 242.698 117.77 239.562 107.306Z" fill="url(#paint9_radial_1221_959)"/>
<path fill-rule="evenodd" clip-rule="evenodd" d="M253.448 85.1741C244.445 87.907 239.351 97.4741 242.069 106.544C244.787 115.614 254.287 120.751 263.29 118.02C272.291 115.287 277.386 105.72 274.669 96.6484C271.95 87.5798 262.449 82.4413 253.448 85.1741ZM241.568 106.696C238.766 97.347 244.017 87.4855 253.296 84.6684C262.575 81.8527 272.369 87.1484 275.17 96.497C277.971 105.847 272.72 115.708 263.44 118.526C254.162 121.34 244.369 116.044 241.568 106.696Z" fill="url(#paint10_radial_1221_959)"/>
<path fill-rule="evenodd" clip-rule="evenodd" d="M253.448 85.1741C244.445 87.907 239.351 97.4741 242.069 106.544C244.787 115.614 254.287 120.751 263.29 118.02C272.291 115.287 277.386 105.72 274.669 96.6484C271.95 87.5798 262.449 82.4413 253.448 85.1741ZM241.568 106.696C238.766 97.347 244.017 87.4855 253.296 84.6684C262.575 81.8527 272.369 87.1484 275.17 96.497C277.971 105.847 272.72 115.708 263.44 118.526C254.162 121.34 244.369 116.044 241.568 106.696Z" fill="url(#paint11_radial_1221_959)"/>
<path fill-rule="evenodd" clip-rule="evenodd" d="M254.054 87.1958C246.16 89.5915 241.693 97.9815 244.076 105.936C246.459 113.889 254.79 118.394 262.684 115.999C270.579 113.603 275.046 105.213 272.663 97.2587C270.279 89.3044 261.947 84.8001 254.054 87.1958ZM243.575 106.087C241.107 97.8544 245.732 89.1701 253.902 86.6901C262.073 84.2101 270.698 88.8744 273.164 97.1058C275.63 105.339 271.007 114.024 262.836 116.504C254.664 118.984 246.041 114.32 243.575 106.087Z" fill="url(#paint12_radial_1221_959)"/>
<path fill-rule="evenodd" clip-rule="evenodd" d="M254.054 87.1958C246.16 89.5915 241.693 97.9815 244.076 105.936C246.459 113.889 254.79 118.394 262.684 115.999C270.579 113.603 275.046 105.213 272.663 97.2587C270.279 89.3044 261.947 84.8001 254.054 87.1958ZM243.575 106.087C241.107 97.8544 245.732 89.1701 253.902 86.6901C262.073 84.2101 270.698 88.8744 273.164 97.1058C275.63 105.339 271.007 114.024 262.836 116.504C254.664 118.984 246.041 114.32 243.575 106.087Z" fill="url(#paint13_radial_1221_959)"/>
<path fill-rule="evenodd" clip-rule="evenodd" d="M254.66 89.2171C247.873 91.2771 244.033 98.4886 246.081 105.326C248.13 112.164 255.293 116.037 262.079 113.977C268.864 111.917 272.706 104.706 270.656 97.8671C268.608 91.03 261.446 87.1571 254.66 89.2171ZM245.58 105.479C243.447 98.3614 247.444 90.8557 254.508 88.7114C261.57 86.5686 269.025 90.5986 271.157 97.7157C273.29 104.831 269.293 112.339 262.23 114.483C255.167 116.626 247.712 112.594 245.58 105.479Z" fill="url(#paint14_radial_1221_959)"/>
<path fill-rule="evenodd" clip-rule="evenodd" d="M254.66 89.2171C247.873 91.2771 244.033 98.4886 246.081 105.326C248.13 112.164 255.293 116.037 262.079 113.977C268.864 111.917 272.706 104.706 270.656 97.8671C268.608 91.03 261.446 87.1571 254.66 89.2171ZM245.58 105.479C243.447 98.3614 247.444 90.8557 254.508 88.7114C261.57 86.5686 269.025 90.5986 271.157 97.7157C273.29 104.831 269.293 112.339 262.23 114.483C255.167 116.626 247.712 112.594 245.58 105.479Z" fill="url(#paint15_radial_1221_959)"/>
<path d="M258.428 104.872C259.303 104.782 260.106 104.351 260.662 103.671C261.218 102.991 261.481 102.119 261.392 101.246C261.3 100.373 260.865 99.5728 260.181 99.0204C259.498 98.4681 258.622 98.209 257.747 98.3001C256.872 98.3889 256.068 98.8207 255.512 99.5006C254.956 100.181 254.694 101.053 254.783 101.926C254.828 102.358 254.958 102.777 255.166 103.159C255.374 103.541 255.655 103.878 255.993 104.152C256.332 104.425 256.721 104.63 257.139 104.753C257.556 104.877 257.994 104.917 258.428 104.872Z" fill="url(#paint16_linear_1221_959)"/>
<path d="M258.675 103.568C258.925 103.543 259.168 103.469 259.389 103.35C259.611 103.231 259.806 103.07 259.965 102.875C260.124 102.681 260.243 102.457 260.315 102.217C260.387 101.977 260.411 101.725 260.385 101.476C260.359 101.226 260.284 100.984 260.164 100.764C260.045 100.544 259.883 100.349 259.687 100.191C259.492 100.033 259.268 99.9153 259.027 99.844C258.786 99.7727 258.533 99.7494 258.283 99.7755C258.033 99.8009 257.79 99.8751 257.569 99.994C257.348 100.113 257.152 100.274 256.993 100.469C256.834 100.663 256.716 100.887 256.643 101.127C256.571 101.367 256.547 101.619 256.573 101.868C256.599 102.118 256.674 102.359 256.794 102.58C256.914 102.8 257.076 102.995 257.271 103.153C257.466 103.311 257.691 103.429 257.932 103.5C258.173 103.571 258.425 103.595 258.675 103.568Z" fill="white"/>
<path d="M248.736 108.297C247.971 106.935 247.495 105.431 247.336 103.877C246.684 97.5787 251.286 91.9444 257.616 91.2916C259.636 91.082 261.675 91.4085 263.528 92.2382C265.38 93.0678 266.98 94.371 268.166 96.0158C267.064 94.0595 265.413 92.4673 263.416 91.4357C261.418 90.404 259.161 89.978 256.924 90.2101C250.595 90.8616 245.992 96.4958 246.645 102.796C246.847 104.781 247.568 106.678 248.736 108.297Z" fill="white"/>
<path fill-rule="evenodd" clip-rule="evenodd" d="M260.71 126.864C274.749 125.418 284.959 112.93 283.514 98.9684C282.069 85.0084 269.516 74.8641 255.477 76.3113C241.437 77.7555 231.227 90.2455 232.672 104.206C234.117 118.166 246.671 128.31 260.71 126.864ZM260.841 128.128C275.582 126.61 286.302 113.497 284.784 98.8384C283.266 84.1813 270.087 73.5284 255.345 75.047C240.605 76.5641 229.885 89.6784 231.402 104.337C232.92 118.994 246.101 129.647 260.841 128.128Z" fill="url(#paint17_linear_1221_959)"/>
<path d="M281.055 87.7569C278.34 83.7053 274.569 80.4694 270.146 78.3983C265.724 76.3272 260.819 75.4994 255.96 76.0041C241.218 77.5226 230.498 90.6369 232.016 105.296C232.417 109.22 233.69 113.007 235.744 116.378C233.333 112.778 231.842 108.643 231.402 104.336C229.885 89.6784 240.605 76.5641 255.345 75.0469C260.397 74.522 265.494 75.4376 270.045 77.6871C274.596 79.9367 278.414 83.4294 281.055 87.7569Z" fill="#E5E3FF"/>
<path d="M280.376 81.1341C280.37 81.0763 280.351 81.0206 280.32 80.9713C280.289 80.922 280.248 80.8804 280.198 80.8497C280.149 80.8189 280.093 80.7999 280.035 80.794C279.977 80.7881 279.918 80.7954 279.864 80.8156L269.844 84.4584C269.764 84.4872 269.696 84.5418 269.651 84.6134C269.605 84.6851 269.585 84.7698 269.593 84.8541L270.732 95.8327C270.743 95.9384 270.623 96.0127 270.53 95.9613C269.899 95.6211 269.18 95.4792 268.467 95.5541C266.527 95.7541 265.113 97.4684 265.311 99.3827C265.509 101.297 267.244 102.687 269.186 102.488C271.129 102.288 272.542 100.574 272.344 98.6584L272.333 98.5584L271.266 88.2556C271.261 88.1994 271.274 88.143 271.304 88.0952C271.334 88.0474 271.379 88.0109 271.432 87.9913L279.157 85.1841C279.194 85.1706 279.233 85.1656 279.272 85.1695C279.31 85.1734 279.348 85.1862 279.38 85.2068C279.413 85.2273 279.441 85.2552 279.462 85.2882C279.482 85.3212 279.495 85.3584 279.498 85.397L280.199 92.1541C280.21 92.2613 280.093 92.3341 279.997 92.2827C279.367 91.9426 278.649 91.8006 277.937 91.8756C275.994 92.0756 274.582 93.7899 274.779 95.7041C274.978 97.6184 276.713 99.0099 278.655 98.8099C280.597 98.6099 282.01 96.8956 281.811 94.9813L281.807 94.9341C281.805 94.9164 281.803 94.8988 281.8 94.8813H281.801L280.376 81.1341Z" fill="#FF00F5"/>
<path fill-rule="evenodd" clip-rule="evenodd" d="M272.326 98.557H272.324L272.337 98.657L272.346 98.757C272.485 100.63 271.087 102.288 269.178 102.486C267.237 102.686 265.501 101.296 265.302 99.3813C265.105 97.467 266.52 95.7527 268.46 95.5527C269.173 95.4791 269.891 95.6204 270.523 95.9585C270.616 96.0099 270.735 95.937 270.723 95.8299L269.586 84.8527C269.577 84.7683 269.597 84.6833 269.642 84.6113C269.687 84.5393 269.755 84.4845 269.835 84.4556L279.856 80.8127C280.09 80.727 280.343 80.8842 280.369 81.1313L281.793 94.8785H281.791C281.795 94.8963 281.797 94.9145 281.798 94.9327L281.804 94.9785L281.813 95.0785C281.953 96.9527 280.554 98.6113 278.646 98.807C276.704 99.007 274.97 97.617 274.772 95.7027C274.573 93.7885 275.987 92.0742 277.929 91.8742C278.246 91.8413 278.566 91.8509 278.881 91.9027L278.937 91.9113C279.305 91.9788 279.66 92.1036 279.99 92.2813C280.084 92.3313 280.201 92.2585 280.19 92.1527L279.491 85.3956C279.487 85.3569 279.474 85.3197 279.454 85.2867C279.433 85.2537 279.405 85.2258 279.372 85.2052C279.339 85.1845 279.302 85.1716 279.263 85.1675C279.225 85.1634 279.185 85.1681 279.149 85.1813L271.424 87.9885C271.37 88.0083 271.325 88.0451 271.295 88.0932C271.265 88.1412 271.252 88.1978 271.257 88.2542L272.326 98.557ZM278.746 90.6042L278.354 86.8227L272.609 88.9113L273.728 99.6899C273.414 101.8 271.54 103.52 269.308 103.75C266.676 104.021 264.304 102.136 264.033 99.5113C263.761 96.8885 265.696 94.5585 268.329 94.287C268.651 94.2542 268.969 94.2542 269.278 94.2827L268.316 84.9827C268.278 84.6167 268.364 84.2486 268.56 83.9368C268.756 83.625 269.05 83.3873 269.397 83.2613L279.418 79.6199C279.655 79.5334 279.909 79.5019 280.16 79.5279C280.411 79.5538 280.653 79.6365 280.867 79.7697C281.082 79.9029 281.263 80.083 281.397 80.2964C281.531 80.5098 281.614 80.7509 281.641 81.0013L283.196 96.0113C282.881 98.1213 281.006 99.8413 278.778 100.071C276.143 100.343 273.771 98.457 273.5 95.8342C273.228 93.2099 275.163 90.8813 277.798 90.6099C278.119 90.577 278.436 90.5756 278.746 90.6042Z" fill="#04005E"/>
<path d="M269.807 84.4728C269.735 84.5067 269.676 84.5619 269.637 84.6307C269.598 84.6995 269.582 84.7786 269.59 84.8571L270.736 95.9143L270.781 95.9371C270.874 95.9886 270.992 95.9143 270.982 95.8086L269.807 84.4728ZM265.443 98.0228C265.309 98.4514 265.261 98.9114 265.309 99.3828C265.509 101.297 267.244 102.689 269.185 102.489C271.017 102.3 272.38 100.763 272.362 98.9814C272.156 99.6443 271.76 100.232 271.222 100.671C270.684 101.111 270.027 101.382 269.335 101.451C267.393 101.651 265.659 100.26 265.461 98.3457C265.449 98.2385 265.443 98.1307 265.443 98.0228ZM271.391 88.0014L279.157 85.1828C279.194 85.1696 279.233 85.1649 279.272 85.1689C279.31 85.173 279.348 85.1857 279.381 85.2062C279.413 85.2267 279.441 85.2544 279.462 85.2873C279.483 85.3201 279.496 85.3572 279.5 85.3957L280.207 92.2314L280.253 92.2557C280.346 92.3071 280.465 92.2328 280.454 92.1271L279.649 84.3586C279.645 84.32 279.632 84.2829 279.611 84.2501C279.59 84.2173 279.562 84.1896 279.529 84.1691C279.496 84.1486 279.459 84.1358 279.421 84.1318C279.382 84.1277 279.343 84.1325 279.306 84.1457L271.479 86.9857C271.426 87.0051 271.38 87.0418 271.35 87.0899C271.32 87.138 271.306 87.1948 271.312 87.2514L271.391 88.0014ZM274.907 94.3443C274.908 94.4514 274.914 94.5586 274.925 94.6671C275.123 96.5814 276.859 97.9714 278.799 97.7714C279.491 97.7027 280.148 97.4318 280.686 96.9926C281.224 96.5535 281.621 95.9657 281.826 95.3028C281.829 96.1766 281.505 97.02 280.918 97.6683C280.331 98.3167 279.522 98.7232 278.65 98.8086C276.708 99.0086 274.974 97.6186 274.776 95.7043C274.728 95.2328 274.776 94.7714 274.907 94.3443Z" fill="#FFD0FE"/>
<path d="M183.849 135.669L183.525 79.9471L198.973 79.8585L199.099 101.926L219.546 101.809L219.42 79.7414L234.869 79.6528L235.192 134.05L219.745 134.139L219.619 114.167L201.846 114.283L201.972 135.58L183.849 135.669Z" fill="#04005E"/>
<path d="M190.945 102.373L175.634 103.95C175.393 102.693 174.985 101.57 174.408 100.584C173.865 99.6162 173.123 98.7739 172.231 98.1129C171.318 97.4166 170.266 96.9249 169.146 96.6714C167.961 96.3714 166.647 96.2971 165.199 96.4457C162.664 96.7071 160.584 97.5457 158.956 98.96C157.346 100.371 156.207 102.276 155.541 104.673C154.892 107.067 154.736 109.88 155.07 113.107C155.422 116.519 156.171 119.329 157.314 121.539C158.474 123.729 159.983 125.316 161.84 126.296C163.696 127.261 165.846 127.617 168.289 127.366C169.683 127.223 170.915 126.92 171.983 126.463C172.997 126.022 173.918 125.395 174.7 124.614C175.444 123.861 176.032 122.969 176.431 121.99C176.867 120.925 177.112 119.792 177.155 118.643L192.478 117.174C192.541 119.551 192.128 122.023 191.242 124.589C190.354 127.137 188.966 129.553 187.081 131.837C185.212 134.101 182.803 136.017 179.857 137.586C176.91 139.154 173.399 140.147 169.326 140.567C164.223 141.093 159.53 140.467 155.249 138.69C150.985 136.911 147.458 134.011 144.662 129.99C141.887 125.969 140.179 120.876 139.541 114.707C138.899 108.504 139.552 103.157 141.503 98.6671C143.451 94.1586 146.338 90.6071 150.168 88.0129C153.994 85.4 158.406 83.8371 163.401 83.3214C166.912 82.96 170.193 83.1071 173.242 83.7657C176.292 84.4229 179.025 85.5628 181.443 87.1828C183.859 88.7857 185.885 90.86 187.519 93.4043C189.155 95.9486 190.298 98.9386 190.945 102.373Z" fill="#04005E"/>
<path d="M190.945 102.373L175.634 103.95C175.393 102.693 174.985 101.57 174.408 100.584C173.865 99.6162 173.123 98.7739 172.231 98.1129C171.318 97.4166 170.266 96.9249 169.146 96.6714C167.961 96.3714 166.647 96.2971 165.199 96.4457C162.664 96.7071 160.584 97.5457 158.956 98.96C157.346 100.371 156.207 102.276 155.541 104.673C154.892 107.067 154.736 109.88 155.07 113.107C155.422 116.519 156.171 119.329 157.314 121.539C158.474 123.729 159.983 125.316 161.84 126.296C163.696 127.261 165.846 127.617 168.289 127.366C169.683 127.223 170.915 126.92 171.983 126.463C172.997 126.022 173.918 125.395 174.7 124.614C175.444 123.861 176.032 122.969 176.431 121.99C176.867 120.925 177.112 119.792 177.155 118.643L192.478 117.174C192.541 119.551 192.128 122.023 191.242 124.589C190.354 127.137 188.966 129.553 187.081 131.837C185.212 134.101 182.803 136.017 179.857 137.586C176.91 139.154 173.399 140.147 169.326 140.567C164.223 141.093 159.53 140.467 155.249 138.69C150.985 136.911 147.458 134.011 144.662 129.99C141.887 125.969 140.179 120.876 139.541 114.707C138.899 108.504 139.552 103.157 141.503 98.6671C143.451 94.1586 146.338 90.6071 150.168 88.0129C153.994 85.4 158.406 83.8371 163.401 83.3214C166.912 82.96 170.193 83.1071 173.242 83.7657C176.292 84.4229 179.025 85.5628 181.443 87.1828C183.859 88.7857 185.885 90.86 187.519 93.4043C189.155 95.9486 190.298 98.9386 190.945 102.373Z" stroke="#04005E" stroke-width="0.116"/>
<path d="M192.846 127.25L192.853 128.571L194.178 128.564L207.643 128.487L208.968 128.48L208.961 127.157L208.848 107.534L224.022 107.447L224.135 127.071L224.144 128.393L225.469 128.386L238.933 128.309L240.257 128.3L240.252 126.979L239.944 73.3585L239.935 72.0356L238.61 72.0442L225.145 72.1199L223.819 72.1285L223.827 73.4499L223.939 93.0742L208.766 93.1599L208.652 73.5371L208.646 72.2156L207.32 72.2228L193.854 72.2999L192.529 72.3071L192.538 73.6285L192.846 127.25Z" fill="url(#paint18_linear_1221_959)" stroke="#04005E" stroke-width="1.85"/>
<path d="M196.264 97.9216L197.686 97.7759L197.433 96.3716C196.787 92.8002 195.671 89.6445 194.064 86.9259C192.468 84.2245 190.485 81.9916 188.115 80.2516C185.75 78.4987 183.088 77.2602 180.139 76.533C177.189 75.8059 174.042 75.623 170.712 75.9659C165.943 76.4573 161.708 78.0616 158.043 80.7916C154.354 83.5187 151.612 87.2616 149.801 91.9602C147.972 96.6802 147.423 102.246 148.082 108.609C148.737 114.933 150.388 120.257 153.091 124.524L153.092 124.527C155.796 128.764 159.222 131.883 163.378 133.822L163.379 133.823C167.533 135.752 172.059 136.452 176.922 135.95C180.778 135.553 184.155 134.546 187.018 132.893C189.829 131.27 192.145 129.259 193.946 126.853C195.727 124.47 197.041 121.932 197.874 119.236V119.232C198.696 116.55 199.073 113.934 198.988 111.392L198.941 109.987L197.538 110.12L183.588 111.447L182.428 111.557L182.389 112.719C182.368 113.717 182.184 114.705 181.845 115.644L181.842 115.649V115.653C181.555 116.457 181.114 117.199 180.546 117.837C179.999 118.446 179.324 118.952 178.506 119.347C177.696 119.722 176.726 119.979 175.58 120.096C173.597 120.3 171.924 119.962 170.499 119.14C169.072 118.302 167.845 116.924 166.855 114.903C165.879 112.859 165.198 110.199 164.855 106.882C164.531 103.75 164.651 101.096 165.175 98.8873C165.714 96.6873 166.628 95.033 167.862 93.8445C169.091 92.6759 170.689 91.9587 172.746 91.7473C173.925 91.6273 174.95 91.7102 175.843 91.9659L175.851 91.9687L175.861 91.9716C176.712 92.1928 177.502 92.603 178.171 93.1716L178.183 93.1816L178.194 93.1916C178.867 93.7402 179.424 94.4273 179.866 95.273L179.87 95.2802L179.874 95.2887C180.335 96.143 180.676 97.1359 180.887 98.2787L181.106 99.483L182.326 99.3573L196.264 97.9216Z" fill="url(#paint19_linear_1221_959)" stroke="#04005E" stroke-width="1.85"/>
<path d="M154.328 120.662C155.269 125.147 162.242 134.187 174.429 134.187" stroke="url(#paint20_linear_1221_959)" stroke-width="1.388"/>
<path d="M171.14 77.2498C188.968 75.7469 195.46 89.6655 196.122 96.6012L194.721 96.7455C191.748 81.6884 181.674 77.6598 170.517 78.4769C157.893 80.7069 153.44 88.8455 152.425 92.7141L151.236 91.6741C155.44 80.8112 166.26 77.5598 171.14 77.2498Z" fill="url(#paint21_linear_1221_959)"/>
<path d="M197.661 111.438L196.514 111.551C195.243 129.038 181.722 133.576 175.563 133.6L175.684 134.75C193.23 133.74 198.036 118.861 197.661 111.438Z" fill="url(#paint22_linear_1221_959)"/>
<path d="M183.506 112.75L197.668 111.432L196.412 112.712L183.617 113.819L183.505 112.75H183.506Z" fill="url(#paint23_linear_1221_959)"/>
<path d="M156.446 84.0815C150.958 88.9658 149.232 98.0301 149.056 101.952L149.835 103.864C151.349 92.7458 155.442 86.7044 157.298 85.0744L156.446 84.0815Z" fill="url(#paint24_linear_1221_959)"/>
<path d="M187.647 74.21L191.818 74.2785L192.005 81.7342L188.137 80.5542L187.647 74.21Z" fill="#04005E"/>
<path fill-rule="evenodd" clip-rule="evenodd" d="M110.915 142.589L120.545 87.8972L141.212 86.4844L157.725 138.627L142.002 140.246L138.992 131.04L128.08 131.797L126.462 141.417L110.916 142.589H110.915ZM127.875 122.557L136.961 122.177L130.901 99.6772L127.875 122.557Z" fill="url(#paint25_linear_1221_959)"/>
<path fill-rule="evenodd" clip-rule="evenodd" d="M124.77 125.12L129.359 91.6015L131.372 91.5215L140.269 124.464L124.77 125.12ZM138.976 123.577L130.377 91.7343L125.942 124.127L138.976 123.576V123.577Z" fill="url(#paint26_linear_1221_959)"/>
<path fill-rule="evenodd" clip-rule="evenodd" d="M156.001 138.847L141.593 93.3026L143.185 92.6826L157.59 138.227L156.001 138.847Z" fill="url(#paint27_linear_1221_959)" fill-opacity="0.3"/>
<path fill-rule="evenodd" clip-rule="evenodd" d="M126.261 122.219L129.3 99.3672L130.913 99.7629L127.872 122.616L126.261 122.219Z" fill="url(#paint28_linear_1221_959)"/>
<path fill-rule="evenodd" clip-rule="evenodd" d="M136.859 121.953L130.758 99.4814L132.41 99.3242L138.511 121.796L136.859 121.953Z" fill="url(#paint29_linear_1221_959)" fill-opacity="0.3"/>
<path fill-rule="evenodd" clip-rule="evenodd" d="M128.518 129.467L126.493 141.471L124.803 141.207L126.828 129.203L128.518 129.467Z" fill="url(#paint30_linear_1221_959)" fill-opacity="0.5"/>
<path d="M111.328 140.263L110.918 142.587L126.463 141.416L126.854 139.094L111.328 140.263Z" fill="url(#paint31_linear_1221_959)"/>
<path d="M128.084 131.796L138.989 131.039L142.001 140.244L157.722 138.626L157.022 136.416L142.399 137.922L139.387 128.716L128.475 129.473L128.084 131.796Z" fill="url(#paint32_linear_1221_959)"/>
<path fill-rule="evenodd" clip-rule="evenodd" d="M138.992 131.04L142.002 140.246L157.725 138.627L141.212 86.4844L120.545 87.8987L110.917 142.589L126.46 141.417L128.08 131.797L138.992 131.04ZM124.972 139.954L126.593 130.326L140.228 129.38L143.221 138.539L155.524 137.273L139.964 88.1429L122.022 89.3701L112.956 140.857L124.972 139.952V139.954Z" fill="url(#paint33_linear_1221_959)"/>
<path fill-rule="evenodd" clip-rule="evenodd" d="M106.828 146.047L117.583 84.9498L143.7 83.1641L162.122 141.335L139.559 143.657L136.517 134.358L131.048 134.738L129.429 144.341L106.828 146.047ZM128.073 131.797L138.985 131.04L141.995 140.245L157.72 138.625L149.461 112.554L141.205 86.4826L120.538 87.8969L110.909 142.585L126.455 141.414L128.073 131.797ZM136.953 122.177L130.893 99.6769L127.867 122.557L136.953 122.177ZM131.755 119.253L132.645 119.215L132.052 117.013L131.755 119.253Z" fill="#04005E"/>
<path fill-rule="evenodd" clip-rule="evenodd" d="M131.413 120.953L135.212 120.773L132.714 111.004L131.413 120.953Z" fill="white"/>
<path fill-rule="evenodd" clip-rule="evenodd" d="M136.309 113.384L139.001 123.581L125.893 124.181L126.823 117.724L128.518 117.954L127.859 122.52L136.859 122.109L134.648 113.73L136.309 113.384Z" fill="url(#paint34_linear_1221_959)"/>
<path d="M117.998 81.5157L118.015 81.6799L118.179 81.6628L124.581 81.0042L124.748 80.9871L124.73 80.8228L123.953 73.3056L125.905 73.1056L130.784 80.2771L130.842 80.3585L130.939 80.3485L137.894 79.6328L138.173 79.6042L138.014 79.3742L132.426 71.3342C133.504 70.6665 134.38 69.7195 134.961 68.5942C135.611 67.3385 135.844 65.8614 135.669 64.1699C135.495 62.4942 134.975 61.0842 134.101 59.9499C133.229 58.8171 132.088 57.9985 130.683 57.4942C129.276 56.9914 127.686 56.8342 125.916 57.0157L115.736 58.0642L115.571 58.0814L115.589 58.2456L117.998 81.5157ZM125.502 67.8528L123.41 68.0685L122.86 62.7614L124.952 62.5471C125.691 62.4699 126.321 62.5071 126.847 62.6499H126.85C127.335 62.7595 127.77 63.0232 128.092 63.4014L128.095 63.4028C128.401 63.7571 128.594 64.2485 128.66 64.8914C128.726 65.5271 128.637 66.0399 128.41 66.4414C128.188 66.8457 127.835 67.1656 127.344 67.3971C126.854 67.6242 126.241 67.7757 125.502 67.8528ZM140.917 78.7099L140.919 78.7114L146.146 77.4871C146.418 76.9442 146.524 76.3585 146.468 75.7371V75.7342C146.365 74.8256 145.934 74.0799 145.184 73.5085C144.445 72.9371 143.627 72.6928 142.737 72.7842C142.291 72.8235 141.858 72.9511 141.462 73.1596C141.066 73.3681 140.716 73.6533 140.432 73.9985C140.144 74.33 139.929 74.7181 139.801 75.1377C139.673 75.5573 139.635 75.999 139.69 76.4342C139.778 77.3642 140.19 78.1257 140.917 78.7099ZM84.3708 62.7428L84.209 62.7757L84.2419 62.9371L89.0255 85.6742L89.0599 85.8357L89.2231 85.8014L95.3129 84.5271L95.4747 84.4928L95.4403 84.3314L92.7406 71.4999L100.386 83.1714L100.449 83.2656L100.559 83.2428L104.231 82.4742L104.341 82.4514L104.36 82.3399L106.675 68.6728L109.356 81.4185L109.39 81.5799L109.552 81.5457L115.642 80.2714L115.805 80.2371L115.77 80.0757L110.987 57.3399L110.953 57.1771L110.791 57.2114L103.042 58.8328L102.935 58.8556L102.915 58.9642L100.316 72.8499L100.264 72.8599L92.288 61.1885L92.2265 61.0971L92.1176 61.1199L84.3708 62.7428Z" fill="#04005E" stroke="#04005E" stroke-width="0.231"/>
<path d="M119.59 79.0942V80.0857L120.582 80.0871L127.019 80.1014H128.013L128.015 79.1114L128.03 72.3814H128.669L132.536 79.59L132.816 80.1114L133.409 80.1128L140.403 80.1271L142.084 80.1314L141.275 78.66L136.955 70.7971C137.909 70.2037 138.722 69.4095 139.336 68.47C140.222 67.1285 140.639 65.5185 140.642 63.6928C140.646 61.8857 140.248 60.2728 139.404 58.8985C138.569 57.54 137.396 56.5014 135.916 55.7885C134.437 55.0771 132.746 54.7357 130.867 54.7314L120.634 54.7114L119.64 54.71L119.639 55.7014L119.59 79.0942ZM129.317 65.4657L128.043 65.4642L128.05 61.7814L129.325 61.7828C129.998 61.7842 130.513 61.8771 130.9 62.0285L130.907 62.0314L130.916 62.0342C131.282 62.17 131.514 62.3614 131.669 62.5914L131.675 62.6014L131.681 62.61C131.825 62.8171 131.941 63.1457 131.938 63.6757C131.938 64.1957 131.824 64.5142 131.681 64.7114L131.678 64.7157L131.675 64.7214C131.524 64.9357 131.295 65.1214 130.924 65.25C130.525 65.3857 129.998 65.4671 129.317 65.4657ZM142.925 79.2857L142.929 79.29L142.933 79.2942C143.327 79.6832 143.794 79.9904 144.308 80.1981C144.821 80.4058 145.371 80.5098 145.925 80.5042C146.657 80.5095 147.378 80.3186 148.01 79.9514L148.016 79.9485L148.022 79.9457C148.638 79.5824 149.158 79.0768 149.537 78.4714C149.947 77.8257 150.157 77.1071 150.167 76.3357V76.3142C150.16 75.1671 149.711 74.17 148.87 73.3742C148.049 72.5914 147.061 72.1742 145.941 72.1714C145.387 72.1636 144.837 72.2653 144.323 72.4708C143.808 72.6763 143.34 72.9814 142.945 73.3685L142.943 73.37L142.94 73.3714C142.541 73.7477 142.223 74.2029 142.009 74.7081C141.795 75.2133 141.689 75.7573 141.697 76.3057C141.685 76.8599 141.788 77.4106 141.999 77.9234C142.211 78.4362 142.526 78.8999 142.925 79.2857Z" fill="url(#paint35_linear_1221_959)" stroke="#04005E" stroke-width="1.388"/>
<path d="M86.7322 59.517L85.7598 59.7213L85.9646 60.6913L90.7481 83.427L90.9515 84.397L91.9254 84.1927L98.0151 82.9184L98.9876 82.7156L98.7828 81.7441L96.9882 73.2113L102.226 81.207L102.597 81.7741L103.261 81.6341L106.933 80.8656L107.597 80.727L107.708 80.0613L109.295 70.697L111.078 79.1713L111.282 80.1413L112.256 79.937L118.344 78.6627L119.318 78.4599L119.113 77.4884L114.329 54.7527L114.125 53.7827L113.152 53.987L105.405 55.6084L104.755 55.7441L104.633 56.397L102.389 68.3827L95.5045 58.307L95.1307 57.7599L94.479 57.8956L86.7322 59.517Z" fill="url(#paint36_linear_1221_959)" stroke="#04005E" stroke-width="1.388" stroke-miterlimit="16"/>
<path d="M87.0547 61.1529L94.3088 59.6572L103.307 72.6001L106.2 57.1044L113.373 55.6187" stroke="url(#paint37_linear_1221_959)" stroke-width="0.925"/>
<path d="M121.012 78.7457L121.286 56.4614L131.621 56.56" stroke="url(#paint38_linear_1221_959)" stroke-width="0.925"/>
<path d="M228.762 60.8713L239.364 47.3584L233.765 41.7256L228.762 60.8699V60.8713ZM233.091 64.6627L242.012 65.3213L241.466 60.0556L233.091 64.6627ZM59.4288 115.66L49.3203 114.927L51.6276 120.111L59.4288 115.66ZM62.3992 106.891L43 92.427L44.2116 104.131L62.3992 106.891ZM115.524 155.054L120.343 149.574L111.416 151.806L115.524 155.054ZM179.631 60.1399L173.667 68.0327L175.185 58.4327L179.631 60.1399ZM171.736 43.9256L167.211 66.5699L162.857 47.3684L171.736 43.9256ZM155.742 58.8399L162.24 69.9984L151.623 62.9599L155.742 58.8399Z" fill="#04005E"/>
<path d="M88.9893 97.4213L90.3642 97.0642C91.3332 96.7969 92.3459 96.7245 93.3432 96.8511C94.3406 96.9777 95.3028 97.3008 96.1738 97.8016C97.0449 98.3025 97.8074 98.9711 98.4171 99.7685C99.0267 100.566 99.4714 101.476 99.7251 102.447C99.9789 103.417 100.037 104.428 99.8952 105.421C99.7537 106.414 99.4157 107.369 98.9009 108.23C98.386 109.092 97.7047 109.842 96.8964 110.439C96.088 111.035 95.1689 111.465 94.1925 111.704L92.8175 112.061L88.9893 97.4213Z" fill="white"/>
<path d="M105.284 147.629L109.133 126.387L112.458 125.249L109.176 144.306L126.841 143.549L126.3 145.996L105.284 147.629Z" fill="#04005E" stroke="#04005E" stroke-width="0.116"/>
<path d="M206.264 96.3771L206.228 75.12L206.231 73.5414L207.311 73.5128L207.477 94.4243L225.202 94.3428L225.209 73.4971L238.6 73.3643L238.882 125.156L237.4 125.309L236.957 75.1943L226.813 75.3257L227.036 95.9814L206.264 96.3771Z" fill="url(#paint39_linear_1221_959)"/>
<path d="M193.954 74.8057L207.271 74.7629L207.225 73.52L193.827 73.5729L193.954 74.8057Z" fill="url(#paint40_linear_1221_959)"/>
<path d="M206.344 106.006L206.602 126.99L207.673 126.88L207.597 106.213L206.344 106.006Z" fill="url(#paint41_linear_1221_959)"/>
<path d="M225.256 106.114L225.486 126.87L226.557 126.759L226.481 105.923L225.256 106.114Z" fill="url(#paint42_linear_1221_959)"/>
<path d="M242.752 125.593L241.844 122.447L239.897 125.519L242.752 125.593ZM78.2809 150.953L66.998 100.857L88.7045 95.9942C92.4368 95.1571 95.8684 95.16 98.9978 96C102.127 96.84 104.77 98.4157 106.922 100.726C109.076 103.036 110.553 105.969 111.355 109.523C112.163 113.11 112.059 116.397 111.047 119.381C110.05 122.363 108.271 124.886 105.709 126.95C103.164 129.01 99.9774 130.47 96.1463 131.329L88.5842 133.023L91.9327 147.894L78.2809 150.953ZM86.2039 122.453L91.0161 121.376C92.6202 121.016 93.9249 120.433 94.9289 119.626C95.9457 118.797 96.6404 117.794 97.0113 116.614C97.398 115.431 97.4324 114.131 97.1116 112.711C96.7893 111.277 96.2035 110.124 95.3528 109.251C94.5164 108.36 93.4637 107.774 92.1977 107.493C90.9431 107.191 89.5137 107.221 87.9097 107.579L83.0974 108.657L86.2039 122.453Z" fill="#04005E"/>
<path d="M78.2809 150.953L66.998 100.857L88.7045 95.9942C92.4368 95.1571 95.8684 95.16 98.9978 96C102.127 96.84 104.77 98.4157 106.922 100.726C109.076 103.036 110.553 105.969 111.355 109.523C112.163 113.11 112.059 116.397 111.047 119.381C110.05 122.363 108.271 124.886 105.709 126.95C103.164 129.01 99.9774 130.47 96.1463 131.329L88.5842 133.023L91.9327 147.894L78.2809 150.953ZM86.2039 122.453L91.0161 121.376C92.6202 121.016 93.9249 120.433 94.9289 119.626C95.9457 118.797 96.6404 117.794 97.0113 116.614C97.398 115.431 97.4324 114.131 97.1116 112.711C96.7893 111.277 96.2035 110.124 95.3528 109.251C94.5164 108.36 93.4637 107.774 92.1977 107.493C90.9431 107.191 89.5137 107.221 87.9096 107.579L83.0974 108.657L86.2039 122.453Z" stroke="#04005E" stroke-width="0.105"/>
<path d="M91.9699 133.447L100.039 131.638C104.401 130.661 108.058 129.01 110.991 126.673C113.941 124.33 116.007 121.467 117.171 118.086C118.355 114.694 118.483 110.978 117.576 106.953C116.678 102.964 114.998 99.6556 112.523 97.0484C110.054 94.4456 107.017 92.677 103.425 91.7413C99.8299 90.807 95.8985 90.827 91.642 91.7799L66.6242 98.0399L66.1831 98.1399L66.2834 98.5784L78.0059 153.71C79.7203 154.378 92.338 152.953 96.0546 149.563L91.9699 133.447Z" fill="#04005E" stroke="#04005E" stroke-width="0.631"/>
<path d="M96.613 146.043L93.1084 130.483C93.1084 130.483 97.2618 129.916 100.441 129.246C105.301 128.22 108.774 126.889 112.754 123.346C116.045 120.414 117.844 118.29 119.233 114.114C120.624 109.932 120.515 107.049 119.565 102.834C118.626 98.6602 116.721 94.8831 114.132 92.1059C111.551 89.3373 108.075 87.2759 104.343 86.2731C100.602 85.2688 95.7952 84.7916 90.4287 85.6731C82.8782 86.9116 77.1135 88.1545 66.0913 93.9473L66.3548 95.1188L78.9038 150.012L79.1673 151.183L80.3417 150.92L95.7021 147.477L96.8765 147.216L96.613 146.043Z" fill="url(#paint43_linear_1221_959)"/>
<path fill-rule="evenodd" clip-rule="evenodd" d="M68.7339 95.4543C74.52 92.5528 88.9136 86.8943 100.042 87.7057C101.589 87.8171 103.061 88.0714 104.45 88.4428C113.051 90.7428 118.51 97.5571 119.503 103.447C120.213 93.5671 109.845 82.3857 93.0226 84.6971C77.2183 86.8686 73.125 89.2728 67.0439 92.8471L65.8423 93.5514L68.7339 95.4543Z" fill="url(#paint44_linear_1221_959)"/>
<path d="M119.504 103.447C118.51 97.5572 113.051 90.7429 104.452 88.4429C110.127 90.4272 116.66 96.5557 117.773 104.62C118.926 112.963 116.14 118.591 107.532 124.941L108.512 126.861C108.512 126.861 119.583 118.387 120.004 108.543C120.149 105.169 119.623 104.653 119.504 103.447Z" fill="url(#paint45_linear_1221_959)"/>
<path d="M68.7339 95.4541L65.8423 93.5513L78.9369 151.056L96.8395 147.24L92.7047 130.674L90.5621 128.204L94.1355 145.23C91.0419 146.31 82.7681 147.768 80.7229 147.187L68.7339 95.4541Z" fill="url(#paint46_radial_1221_959)"/>
<path d="M108.512 126.861L107.534 124.941C105.119 126.469 99.3471 128.204 90.562 128.204L92.7046 130.674L108.512 126.861Z" fill="url(#paint47_radial_1221_959)"/>
<path d="M96.9512 145.996L93.4451 130.434C93.4451 130.434 97.8177 130.163 100.999 129.493C105.857 128.469 108.985 127.166 112.965 123.623C116.256 120.693 118.179 118.212 119.569 114.034C121.259 108.953 120.416 104.854 119.838 102.283C118.898 98.1087 116.843 94.7687 114.252 91.9916C111.684 89.2174 108.378 87.2287 104.719 86.2573C100.98 85.253 95.7968 84.7901 90.4318 85.6716C82.8798 86.9101 77.3629 88.2858 66.3135 93.9358L78.9068 150.01C82.2797 151.14 96.1277 148.562 96.9512 145.996Z" stroke="#04005E" stroke-width="2.07"/>
<path fill-rule="evenodd" clip-rule="evenodd" d="M92.6905 97.0112L84.8177 99.0598L89.2503 117.574C89.9006 117.574 92.8323 117.791 98.3262 116.007C103.819 114.221 106.464 109.481 105.282 104.468C104.101 99.4541 97.7161 95.8327 92.6905 97.0112ZM83.2666 97.9327L88.4168 118.711C88.4168 118.711 92.5645 119.163 98.955 117.138C105.345 115.114 108.303 110.251 106.818 103.957C105.334 97.6627 98.4179 93.5755 92.1062 95.0569L83.2666 97.9327Z" fill="url(#paint48_linear_1221_959)"/>
<path fill-rule="evenodd" clip-rule="evenodd" d="M93.2989 99.4187L87.7118 100.729L91.0116 114.722L96.5987 113.412C97.5198 113.195 98.3892 112.8 99.1573 112.249C99.9254 111.698 100.577 111.001 101.075 110.199C101.573 109.396 101.908 108.504 102.06 107.572C102.213 106.641 102.18 105.688 101.963 104.769C101.746 103.851 101.35 102.983 100.798 102.217C100.245 101.451 99.5464 100.801 98.7419 100.304C97.9374 99.8074 97.0426 99.4734 96.1087 99.3215C95.1748 99.1695 94.22 99.2026 93.2989 99.4187ZM84.8374 98.9544L89.2328 117.589C90.8684 117.44 93.6526 117.582 98.7527 115.826C103.854 114.072 106.498 109.59 105.284 104.444C104.072 99.2987 98.3531 96.5487 92.7518 97.0973C87.1518 97.6458 84.8374 98.9544 84.8374 98.9544Z" fill="url(#paint49_linear_1221_959)"/>
<path d="M86.5249 100.084C88.4154 99.3501 91.4359 98.7086 93.156 98.5401C98.2031 98.0458 102.319 100.512 103.339 104.873C105.148 112.594 97.6818 116.042 90.2229 116.042L86.5249 100.084Z" fill="#04005E"/>
<path d="M91.3398 102.739C94.2486 101.579 99.2327 101.579 100.215 105.77C101.225 110.084 96.8137 111.716 93.4695 111.837L91.3398 102.739Z" fill="white"/>
<defs>
<linearGradient id="paint0_linear_1221_959" x1="255.345" y1="75.0455" x2="260.813" y2="128.131" gradientUnits="userSpaceOnUse">
<stop stop-color="#05004A"/>
<stop offset="1" stop-color="#030033"/>
</linearGradient>
<linearGradient id="paint1_linear_1221_959" x1="256.903" y1="90.2128" x2="259.247" y2="112.963" gradientUnits="userSpaceOnUse">
<stop stop-color="#FAC400"/>
<stop offset="0.495" stop-color="#FAA500"/>
<stop offset="1" stop-color="#FA8700"/>
</linearGradient>
<linearGradient id="paint2_linear_1221_959" x1="254.475" y1="90.9556" x2="259.564" y2="110.748" gradientUnits="userSpaceOnUse">
<stop offset="0.583" stop-color="#FDE280" stop-opacity="0"/>
<stop offset="1" stop-color="#FDE280"/>
</linearGradient>
<linearGradient id="paint3_linear_1221_959" x1="253.746" y1="95.2217" x2="259.412" y2="106.577" gradientUnits="userSpaceOnUse">
<stop stop-color="#832CC8"/>
<stop offset="0.482" stop-color="#FAA501"/>
<stop offset="1" stop-color="#FEE280"/>
</linearGradient>
<radialGradient id="paint4_radial_1221_959" cx="0" cy="0" r="1" gradientUnits="userSpaceOnUse" gradientTransform="translate(275.828 129.23) rotate(-121.989) scale(66.7175 80.7747)">
<stop offset="0.222" stop-color="white"/>
<stop offset="0.447" stop-color="white" stop-opacity="0"/>
</radialGradient>
<radialGradient id="paint5_radial_1221_959" cx="0" cy="0" r="1" gradientUnits="userSpaceOnUse" gradientTransform="translate(240.484 72.6457) rotate(58.8666) scale(67.7336 82.0104)">
<stop offset="0.222" stop-color="white"/>
<stop offset="0.447" stop-color="white" stop-opacity="0"/>
</radialGradient>
<radialGradient id="paint6_radial_1221_959" cx="0" cy="0" r="1" gradientUnits="userSpaceOnUse" gradientTransform="translate(275.828 129.23) rotate(-121.989) scale(66.7174 80.7747)">
<stop offset="0.222" stop-color="white"/>
<stop offset="0.447" stop-color="white" stop-opacity="0"/>
</radialGradient>
<radialGradient id="paint7_radial_1221_959" cx="0" cy="0" r="1" gradientUnits="userSpaceOnUse" gradientTransform="translate(240.483 72.6456) rotate(58.8666) scale(67.7336 82.0104)">
<stop offset="0.222" stop-color="white"/>
<stop offset="0.447" stop-color="white" stop-opacity="0"/>
</radialGradient>
<radialGradient id="paint8_radial_1221_959" cx="0" cy="0" r="1" gradientUnits="userSpaceOnUse" gradientTransform="translate(275.828 129.23) rotate(-121.989) scale(66.7174 80.7747)">
<stop offset="0.222" stop-color="white"/>
<stop offset="0.447" stop-color="white" stop-opacity="0"/>
</radialGradient>
<radialGradient id="paint9_radial_1221_959" cx="0" cy="0" r="1" gradientUnits="userSpaceOnUse" gradientTransform="translate(240.484 72.6459) rotate(58.8666) scale(67.7336 82.0104)">
<stop offset="0.222" stop-color="white"/>
<stop offset="0.447" stop-color="white" stop-opacity="0"/>
</radialGradient>
<radialGradient id="paint10_radial_1221_959" cx="0" cy="0" r="1" gradientUnits="userSpaceOnUse" gradientTransform="translate(275.828 129.23) rotate(-121.989) scale(66.7174 80.7746)">
<stop offset="0.222" stop-color="white"/>
<stop offset="0.447" stop-color="white" stop-opacity="0"/>
</radialGradient>
<radialGradient id="paint11_radial_1221_959" cx="0" cy="0" r="1" gradientUnits="userSpaceOnUse" gradientTransform="translate(240.483 72.6455) rotate(58.8667) scale(67.7336 82.0104)">
<stop offset="0.222" stop-color="white"/>
<stop offset="0.447" stop-color="white" stop-opacity="0"/>
</radialGradient>
<radialGradient id="paint12_radial_1221_959" cx="0" cy="0" r="1" gradientUnits="userSpaceOnUse" gradientTransform="translate(275.828 129.23) rotate(-121.989) scale(66.7174 80.7746)">
<stop offset="0.222" stop-color="white"/>
<stop offset="0.447" stop-color="white" stop-opacity="0"/>
</radialGradient>
<radialGradient id="paint13_radial_1221_959" cx="0" cy="0" r="1" gradientUnits="userSpaceOnUse" gradientTransform="translate(240.484 72.6458) rotate(58.8667) scale(67.7336 82.0104)">
<stop offset="0.222" stop-color="white"/>
<stop offset="0.447" stop-color="white" stop-opacity="0"/>
</radialGradient>
<radialGradient id="paint14_radial_1221_959" cx="0" cy="0" r="1" gradientUnits="userSpaceOnUse" gradientTransform="translate(275.828 129.23) rotate(-121.989) scale(66.7174 80.7746)">
<stop offset="0.222" stop-color="white"/>
<stop offset="0.447" stop-color="white" stop-opacity="0"/>
</radialGradient>
<radialGradient id="paint15_radial_1221_959" cx="0" cy="0" r="1" gradientUnits="userSpaceOnUse" gradientTransform="translate(240.484 72.6457) rotate(58.8667) scale(67.7336 82.0104)">
<stop offset="0.222" stop-color="white"/>
<stop offset="0.447" stop-color="white" stop-opacity="0"/>
</radialGradient>
<linearGradient id="paint16_linear_1221_959" x1="257.747" y1="98.3001" x2="258.424" y2="104.872" gradientUnits="userSpaceOnUse">
<stop stop-color="#05004A"/>
<stop offset="1" stop-color="#030033"/>
</linearGradient>
<linearGradient id="paint17_linear_1221_959" x1="249.681" y1="76.7798" x2="261.553" y2="122.962" gradientUnits="userSpaceOnUse">
<stop stop-color="#E5E3FF"/>
<stop offset="0.271" stop-color="#DAC9F5" stop-opacity="0.37"/>
<stop offset="0.495" stop-color="#C9A2E7" stop-opacity="0.438"/>
<stop offset="1" stop-color="#FF00FF"/>
</linearGradient>
<linearGradient id="paint18_linear_1221_959" x1="106.793" y1="73.3856" x2="107.108" y2="128.577" gradientUnits="userSpaceOnUse">
<stop stop-color="#FBC401"/>
<stop offset="1" stop-color="#FA8901"/>
</linearGradient>
<linearGradient id="paint19_linear_1221_959" x1="111.27" y1="83.4173" x2="117.188" y2="140.885" gradientUnits="userSpaceOnUse">
<stop stop-color="#FBC401"/>
<stop offset="1" stop-color="#FA8901"/>
</linearGradient>
<linearGradient id="paint20_linear_1221_959" x1="162.28" y1="120.037" x2="165.558" y2="134.984" gradientUnits="userSpaceOnUse">
<stop stop-color="white"/>
<stop offset="1" stop-color="white" stop-opacity="0"/>
</linearGradient>
<linearGradient id="paint21_linear_1221_959" x1="194.346" y1="97.1798" x2="157.897" y2="75.51" gradientUnits="userSpaceOnUse">
<stop stop-color="white" stop-opacity="0"/>
<stop offset="0.317" stop-color="white"/>
<stop offset="1" stop-color="white" stop-opacity="0"/>
</linearGradient>
<linearGradient id="paint22_linear_1221_959" x1="185.65" y1="112.797" x2="187.787" y2="133.537" gradientUnits="userSpaceOnUse">
<stop stop-color="white"/>
<stop offset="1" stop-color="white" stop-opacity="0"/>
</linearGradient>
<linearGradient id="paint23_linear_1221_959" x1="196.558" y1="112.569" x2="187.719" y2="113.234" gradientUnits="userSpaceOnUse">
<stop stop-color="white"/>
<stop offset="1" stop-color="white" stop-opacity="0"/>
</linearGradient>
<linearGradient id="paint24_linear_1221_959" x1="149.141" y1="102.773" x2="154.273" y2="91.436" gradientUnits="userSpaceOnUse">
<stop stop-color="white"/>
<stop offset="1" stop-color="white" stop-opacity="0"/>
</linearGradient>
<linearGradient id="paint25_linear_1221_959" x1="119.073" y1="91.6572" x2="137.955" y2="143.332" gradientUnits="userSpaceOnUse">
<stop offset="0.141" stop-color="#FAC400"/>
<stop offset="0.479" stop-color="#FAA500"/>
<stop offset="0.865" stop-color="#FA8700"/>
</linearGradient>
<linearGradient id="paint26_linear_1221_959" x1="127.541" y1="119.166" x2="138.85" y2="123.964" gradientUnits="userSpaceOnUse">
<stop offset="0.135" stop-color="white" stop-opacity="0"/>
<stop offset="1" stop-color="white"/>
</linearGradient>
<linearGradient id="paint27_linear_1221_959" x1="144.62" y1="99.3612" x2="159.365" y2="139.261" gradientUnits="userSpaceOnUse">
<stop offset="0.01" stop-color="#FBA201" stop-opacity="0"/>
<stop offset="0.297" stop-color="#7A0049"/>
<stop offset="1" stop-color="#FA8701" stop-opacity="0"/>
</linearGradient>
<linearGradient id="paint28_linear_1221_959" x1="128.586" y1="99.5529" x2="126.518" y2="122.59" gradientUnits="userSpaceOnUse">
<stop offset="0.01" stop-color="#FBA201" stop-opacity="0"/>
<stop offset="0.364" stop-color="#7A0049" stop-opacity="0.72"/>
<stop offset="0.618" stop-color="#8B1240" stop-opacity="0.52"/>
<stop offset="1" stop-color="#FA8701" stop-opacity="0"/>
</linearGradient>
<linearGradient id="paint29_linear_1221_959" x1="131.293" y1="99.8142" x2="133.85" y2="123.053" gradientUnits="userSpaceOnUse">
<stop offset="0.01" stop-color="#FBA201" stop-opacity="0"/>
<stop offset="0.094" stop-color="#7A0049"/>
<stop offset="1" stop-color="#FA8701" stop-opacity="0"/>
</linearGradient>
<linearGradient id="paint30_linear_1221_959" x1="127.023" y1="128.957" x2="128.405" y2="141.786" gradientUnits="userSpaceOnUse">
<stop offset="0.01" stop-color="#FBA201" stop-opacity="0"/>
<stop offset="0.192" stop-color="#7A0049"/>
<stop offset="0.535" stop-color="#B0392B" stop-opacity="0.575"/>
<stop offset="0.811" stop-color="#FA8701" stop-opacity="0"/>
</linearGradient>
<linearGradient id="paint31_linear_1221_959" x1="129.045" y1="127.654" x2="137.586" y2="137.656" gradientUnits="userSpaceOnUse">
<stop stop-color="#FDE280" stop-opacity="0"/>
<stop offset="1" stop-color="#FDE280"/>
</linearGradient>
<linearGradient id="paint32_linear_1221_959" x1="129.041" y1="127.654" x2="137.582" y2="137.654" gradientUnits="userSpaceOnUse">
<stop stop-color="#FDE280" stop-opacity="0"/>
<stop offset="1" stop-color="#FDE280"/>
</linearGradient>
<linearGradient id="paint33_linear_1221_959" x1="115.807" y1="92.2158" x2="142.296" y2="137.562" gradientUnits="userSpaceOnUse">
<stop stop-color="white"/>
<stop offset="0.702" stop-color="#FA8701" stop-opacity="0"/>
</linearGradient>
<linearGradient id="paint34_linear_1221_959" x1="131.082" y1="113.683" x2="133.66" y2="125.706" gradientUnits="userSpaceOnUse">
<stop stop-color="#FAA101" stop-opacity="0"/>
<stop offset="0.292" stop-color="#FAA401" stop-opacity="0"/>
<stop offset="1" stop-color="#FDE280"/>
</linearGradient>
<linearGradient id="paint35_linear_1221_959" x1="134.923" y1="55.7314" x2="134.876" y2="79.49" gradientUnits="userSpaceOnUse">
<stop stop-color="#FBBE02"/>
<stop offset="1" stop-color="#FA8E02"/>
</linearGradient>
<linearGradient id="paint36_linear_1221_959" x1="100.146" y1="57.7227" x2="104.907" y2="80.4633" gradientUnits="userSpaceOnUse">
<stop stop-color="#FBBE02"/>
<stop offset="1" stop-color="#FA8E02"/>
</linearGradient>
<linearGradient id="paint37_linear_1221_959" x1="99.6237" y1="57.1172" x2="102.611" y2="73.2542" gradientUnits="userSpaceOnUse">
<stop stop-color="white"/>
<stop offset="1" stop-color="white" stop-opacity="0"/>
</linearGradient>
<linearGradient id="paint38_linear_1221_959" x1="120.823" y1="56.0114" x2="126.021" y2="58.5934" gradientUnits="userSpaceOnUse">
<stop stop-color="white"/>
<stop offset="1" stop-color="white" stop-opacity="0"/>
</linearGradient>
<linearGradient id="paint39_linear_1221_959" x1="215.947" y1="71.2957" x2="216.997" y2="119.686" gradientUnits="userSpaceOnUse">
<stop stop-color="white"/>
<stop offset="1" stop-color="white" stop-opacity="0"/>
</linearGradient>
<linearGradient id="paint40_linear_1221_959" x1="206.066" y1="74.3886" x2="195.121" y2="74.0181" gradientUnits="userSpaceOnUse">
<stop stop-color="white"/>
<stop offset="1" stop-color="white" stop-opacity="0"/>
</linearGradient>
<linearGradient id="paint41_linear_1221_959" x1="206.015" y1="106.039" x2="208.157" y2="126.83" gradientUnits="userSpaceOnUse">
<stop stop-color="#8B1640" stop-opacity="0.31"/>
<stop offset="0.302" stop-color="#8B1640"/>
<stop offset="1" stop-color="#8B1640" stop-opacity="0"/>
</linearGradient>
<linearGradient id="paint42_linear_1221_959" x1="226.421" y1="105.759" x2="227.048" y2="126.709" gradientUnits="userSpaceOnUse">
<stop stop-color="#8B1640" stop-opacity="0.28"/>
<stop offset="0.291" stop-color="#8B1640"/>
<stop offset="1" stop-color="#8B1640" stop-opacity="0"/>
</linearGradient>
<linearGradient id="paint43_linear_1221_959" x1="130.929" y1="78.3388" x2="143.93" y2="136.364" gradientUnits="userSpaceOnUse">
<stop stop-color="#FBC401"/>
<stop offset="1" stop-color="#FA8901"/>
</linearGradient>
<linearGradient id="paint44_linear_1221_959" x1="102.18" y1="82.3514" x2="88.8766" y2="109.567" gradientUnits="userSpaceOnUse">
<stop stop-color="white"/>
<stop offset="1" stop-color="white" stop-opacity="0"/>
</linearGradient>
<linearGradient id="paint45_linear_1221_959" x1="123.218" y1="123.881" x2="105.397" y2="122.98" gradientUnits="userSpaceOnUse">
<stop stop-color="white"/>
<stop offset="1" stop-color="white" stop-opacity="0"/>
</linearGradient>
<radialGradient id="paint46_radial_1221_959" cx="0" cy="0" r="1" gradientUnits="userSpaceOnUse" gradientTransform="translate(77.8742 152.996) rotate(-89.292) scale(57.7667 33.5343)">
<stop offset="0.406" stop-color="#FDE280"/>
<stop offset="1" stop-color="#FFF2C4" stop-opacity="0.31"/>
</radialGradient>
<radialGradient id="paint47_radial_1221_959" cx="0" cy="0" r="1" gradientUnits="userSpaceOnUse" gradientTransform="translate(77.8756 152.996) rotate(-89.2922) scale(57.7667 32.5868)">
<stop offset="0.323" stop-color="#FDE280"/>
<stop offset="1" stop-color="#FFF2C4" stop-opacity="0"/>
</radialGradient>
<linearGradient id="paint48_linear_1221_959" x1="86.3702" y1="127.577" x2="95.0917" y2="106.558" gradientUnits="userSpaceOnUse">
<stop stop-color="white"/>
<stop offset="1" stop-color="white" stop-opacity="0"/>
</linearGradient>
<linearGradient id="paint49_linear_1221_959" x1="93.465" y1="96.9301" x2="95.517" y2="116.905" gradientUnits="userSpaceOnUse">
<stop stop-color="#7B0C3B"/>
<stop offset="0.505" stop-color="#BA4D4D" stop-opacity="0.29"/>
<stop offset="1" stop-color="#CCB375" stop-opacity="0"/>
</linearGradient>
</defs>
</svg>
